M48
;DRILL file {KiCad 5.0.2-bee76a0~70~ubuntu16.04.1} date Thu 28 Nov 2019 03:24:58 PM CET
;FORMAT={-:-/ absolute / metric / decimal}
FMAT,2
METRIC,TZ
T1C0.400
T2C0.750
T3C1.000
T4C1.298
T5C1.750
%
G90
G05
T1
X101.727Y-62.395
X101.727Y-112.395
X102.489Y-52.87
X102.489Y-102.87
X105.283Y-67.729
X105.283Y-117.729
X108.077Y-65.443
X108.077Y-115.443
X109.22Y-88.811
X109.22Y-138.811
X109.347Y-64.427
X109.347Y-114.427
X116.967Y-65.697
X116.967Y-115.697
X118.237Y-64.808
X118.237Y-114.808
X120.015Y-76.111
X120.015Y-77.889
X120.015Y-126.111
X120.015Y-127.889
X124.968Y-51.219
X124.968Y-101.219
X127.508Y-73.063
X127.508Y-123.063
X128.524Y-72.936
X128.524Y-122.936
X151.727Y-62.395
X151.727Y-112.395
X152.489Y-52.87
X152.489Y-102.87
X155.283Y-67.729
X155.283Y-117.729
X158.077Y-65.443
X158.077Y-115.443
X159.22Y-88.811
X159.22Y-138.811
X159.347Y-64.427
X159.347Y-114.427
X166.967Y-65.697
X166.967Y-115.697
X168.237Y-64.808
X168.237Y-114.808
X170.015Y-76.111
X170.015Y-77.889
X170.015Y-126.111
X170.015Y-127.889
X174.968Y-51.219
X174.968Y-101.219
X177.508Y-73.063
X177.508Y-123.063
X178.524Y-72.936
X178.524Y-122.936
T2
X158.5Y-92.2
X158.5Y-94.2
X158.5Y-96.2
X158.5Y-142.2
X158.5Y-144.2
X158.5Y-146.2
X152.5Y-81.8
X152.5Y-83.8
X152.5Y-85.8
X158.5Y-81.8
X158.5Y-83.8
X158.5Y-85.8
X152.5Y-141.
X152.5Y-143.
X152.5Y-145.
X152.5Y-147.
X102.5Y-131.8
X102.5Y-133.8
X102.5Y-135.8
X102.5Y-141.
X102.5Y-143.
X102.5Y-145.
X102.5Y-147.
X108.5Y-92.2
X108.5Y-94.2
X108.5Y-96.2
X108.5Y-81.8
X108.5Y-83.8
X108.5Y-85.8
X102.5Y-81.8
X102.5Y-83.8
X102.5Y-85.8
X102.5Y-91.
X102.5Y-93.
X102.5Y-95.
X102.5Y-97.
X108.5Y-131.8
X108.5Y-133.8
X108.5Y-135.8
X152.5Y-131.8
X152.5Y-133.8
X152.5Y-135.8
X108.5Y-142.2
X108.5Y-144.2
X108.5Y-146.2
X158.5Y-131.8
X158.5Y-133.8
X158.5Y-135.8
X152.5Y-91.
X152.5Y-93.
X152.5Y-95.
X152.5Y-97.
T3
X177.41Y-101.9
X179.95Y-101.9
X192.4Y-101.9
X197.5Y-101.9
X102.01Y-107.598
X102.01Y-122.598
X104.55Y-107.598
X104.55Y-122.598
X107.09Y-107.598
X107.09Y-122.598
X109.63Y-107.598
X109.63Y-122.598
X112.17Y-107.598
X112.17Y-122.598
X114.71Y-107.598
X114.71Y-122.598
X117.25Y-107.598
X117.25Y-122.598
X119.79Y-107.598
X119.79Y-122.598
X122.33Y-107.598
X122.33Y-122.598
X124.87Y-107.598
X124.87Y-122.598
X105.22Y-102.627
X107.76Y-102.627
X110.3Y-102.627
X155.22Y-52.627
X157.76Y-52.627
X160.3Y-52.627
X168.096Y-52.868
X170.636Y-52.868
X173.176Y-52.868
X118.096Y-52.868
X120.636Y-52.868
X123.176Y-52.868
X127.41Y-51.9
X129.95Y-51.9
X142.4Y-51.9
X147.5Y-51.9
X152.01Y-107.598
X152.01Y-122.598
X154.55Y-107.598
X154.55Y-122.598
X157.09Y-107.598
X157.09Y-122.598
X159.63Y-107.598
X159.63Y-122.598
X162.17Y-107.598
X162.17Y-122.598
X164.71Y-107.598
X164.71Y-122.598
X167.25Y-107.598
X167.25Y-122.598
X169.79Y-107.598
X169.79Y-122.598
X172.33Y-107.598
X172.33Y-122.598
X174.87Y-107.598
X174.87Y-122.598
X118.096Y-102.868
X120.636Y-102.868
X123.176Y-102.868
X168.096Y-102.868
X170.636Y-102.868
X173.176Y-102.868
X102.01Y-57.598
X102.01Y-72.598
X104.55Y-57.598
X104.55Y-72.598
X107.09Y-57.598
X107.09Y-72.598
X109.63Y-57.598
X109.63Y-72.598
X112.17Y-57.598
X112.17Y-72.598
X114.71Y-57.598
X114.71Y-72.598
X117.25Y-57.598
X117.25Y-72.598
X119.79Y-57.598
X119.79Y-72.598
X122.33Y-57.598
X122.33Y-72.598
X124.87Y-57.598
X124.87Y-72.598
X105.22Y-52.627
X107.76Y-52.627
X110.3Y-52.627
X177.41Y-51.9
X179.95Y-51.9
X192.4Y-51.9
X197.5Y-51.9
X155.22Y-102.627
X157.76Y-102.627
X160.3Y-102.627
X127.41Y-101.9
X129.95Y-101.9
X142.4Y-101.9
X147.5Y-101.9
X152.01Y-57.598
X152.01Y-72.598
X154.55Y-57.598
X154.55Y-72.598
X157.09Y-57.598
X157.09Y-72.598
X159.63Y-57.598
X159.63Y-72.598
X162.17Y-57.598
X162.17Y-72.598
X164.71Y-57.598
X164.71Y-72.598
X167.25Y-57.598
X167.25Y-72.598
X169.79Y-57.598
X169.79Y-72.598
X172.33Y-57.598
X172.33Y-72.598
X174.87Y-57.598
X174.87Y-72.598
T4
X132.202Y-79.5
X134.201Y-73.501
X134.201Y-85.499
X146.399Y-73.501
X146.399Y-85.499
X182.202Y-129.5
X184.201Y-123.501
X184.201Y-135.499
X196.399Y-123.501
X196.399Y-135.499
X182.202Y-63.7
X184.201Y-57.701
X184.201Y-69.699
X196.399Y-57.701
X196.399Y-69.699
X182.202Y-79.5
X184.201Y-73.501
X184.201Y-85.499
X196.399Y-73.501
X196.399Y-85.499
X132.202Y-113.7
X134.201Y-107.701
X134.201Y-119.699
X146.399Y-107.701
X146.399Y-119.699
X132.202Y-63.7
X134.201Y-57.701
X134.201Y-69.699
X146.399Y-57.701
X146.399Y-69.699
X182.202Y-113.7
X184.201Y-107.701
X184.201Y-119.699
X196.399Y-107.701
X196.399Y-119.699
X132.202Y-129.5
X134.201Y-123.501
X134.201Y-135.499
X146.399Y-123.501
X146.399Y-135.499
T5
X141.9Y-94.8
X146.9Y-94.8
X166.332Y-81.612
X166.332Y-86.612
X116.9Y-144.8
X121.9Y-144.8
X126.9Y-144.8
X131.9Y-144.8
X136.9Y-144.8
X191.9Y-144.8
X196.9Y-144.8
X176.9Y-94.8
X181.9Y-94.8
X186.9Y-94.8
X126.9Y-94.8
X131.9Y-94.8
X136.9Y-94.8
X166.9Y-144.8
X171.9Y-144.8
X116.9Y-94.8
X121.9Y-94.8
X116.332Y-81.612
X116.332Y-86.612
X191.9Y-94.8
X196.9Y-94.8
X166.9Y-94.8
X171.9Y-94.8
X166.332Y-131.612
X166.332Y-136.612
X176.9Y-144.8
X181.9Y-144.8
X186.9Y-144.8
X141.9Y-144.8
X146.9Y-144.8
X116.332Y-131.612
X116.332Y-136.612
T0
M30
