G04 #@! TF.GenerationSoftware,KiCad,Pcbnew,5.0.2-bee76a0~70~ubuntu16.04.1*
G04 #@! TF.CreationDate,2019-11-28T15:24:24+01:00*
G04 #@! TF.ProjectId,Shutter_RF_2x2,53687574-7465-4725-9f52-465f3278322e,rev?*
G04 #@! TF.SameCoordinates,Original*
G04 #@! TF.FileFunction,Legend,Top*
G04 #@! TF.FilePolarity,Positive*
%FSLAX46Y46*%
G04 Gerber Fmt 4.6, Leading zero omitted, Abs format (unit mm)*
G04 Created by KiCad (PCBNEW 5.0.2-bee76a0~70~ubuntu16.04.1) date Thu 28 Nov 2019 03:24:24 PM CET*
%MOMM*%
%LPD*%
G01*
G04 APERTURE LIST*
%ADD10C,0.300000*%
%ADD11C,0.150000*%
%ADD12C,0.120000*%
%ADD13C,0.066040*%
%ADD14C,0.127000*%
%ADD15C,0.100000*%
%ADD16C,0.101600*%
G04 APERTURE END LIST*
D10*
X180306000Y-89362571D02*
X179591714Y-89362571D01*
X179591714Y-87862571D01*
X180734571Y-88005428D02*
X180806000Y-87934000D01*
X180948857Y-87862571D01*
X181306000Y-87862571D01*
X181448857Y-87934000D01*
X181520285Y-88005428D01*
X181591714Y-88148285D01*
X181591714Y-88291142D01*
X181520285Y-88505428D01*
X180663142Y-89362571D01*
X181591714Y-89362571D01*
X133354000Y-89362571D02*
X132639714Y-89362571D01*
X132639714Y-87862571D01*
X134639714Y-89362571D02*
X133782571Y-89362571D01*
X134211142Y-89362571D02*
X134211142Y-87862571D01*
X134068285Y-88076857D01*
X133925428Y-88219714D01*
X133782571Y-88291142D01*
X191303428Y-89362571D02*
X191303428Y-87862571D01*
X192160571Y-89362571D01*
X192160571Y-87862571D01*
X141303428Y-89362571D02*
X141303428Y-87862571D01*
X142160571Y-89362571D01*
X142160571Y-87862571D01*
X197784285Y-89362571D02*
X197070000Y-89362571D01*
X197070000Y-87862571D01*
X130306000Y-89362571D02*
X129591714Y-89362571D01*
X129591714Y-87862571D01*
X130734571Y-88005428D02*
X130806000Y-87934000D01*
X130948857Y-87862571D01*
X131306000Y-87862571D01*
X131448857Y-87934000D01*
X131520285Y-88005428D01*
X131591714Y-88148285D01*
X131591714Y-88291142D01*
X131520285Y-88505428D01*
X130663142Y-89362571D01*
X131591714Y-89362571D01*
X183354000Y-89362571D02*
X182639714Y-89362571D01*
X182639714Y-87862571D01*
X184639714Y-89362571D02*
X183782571Y-89362571D01*
X184211142Y-89362571D02*
X184211142Y-87862571D01*
X184068285Y-88076857D01*
X183925428Y-88219714D01*
X183782571Y-88291142D01*
X136731428Y-89362571D02*
X136731428Y-87862571D01*
X137588571Y-89362571D01*
X137588571Y-87862571D01*
X147784285Y-89362571D02*
X147070000Y-89362571D01*
X147070000Y-87862571D01*
X186731428Y-89362571D02*
X186731428Y-87862571D01*
X187588571Y-89362571D01*
X187588571Y-87862571D01*
X183354000Y-139362571D02*
X182639714Y-139362571D01*
X182639714Y-137862571D01*
X184639714Y-139362571D02*
X183782571Y-139362571D01*
X184211142Y-139362571D02*
X184211142Y-137862571D01*
X184068285Y-138076857D01*
X183925428Y-138219714D01*
X183782571Y-138291142D01*
X191303428Y-139362571D02*
X191303428Y-137862571D01*
X192160571Y-139362571D01*
X192160571Y-137862571D01*
X180306000Y-139362571D02*
X179591714Y-139362571D01*
X179591714Y-137862571D01*
X180734571Y-138005428D02*
X180806000Y-137934000D01*
X180948857Y-137862571D01*
X181306000Y-137862571D01*
X181448857Y-137934000D01*
X181520285Y-138005428D01*
X181591714Y-138148285D01*
X181591714Y-138291142D01*
X181520285Y-138505428D01*
X180663142Y-139362571D01*
X181591714Y-139362571D01*
X186731428Y-139362571D02*
X186731428Y-137862571D01*
X187588571Y-139362571D01*
X187588571Y-137862571D01*
X197784285Y-139362571D02*
X197070000Y-139362571D01*
X197070000Y-137862571D01*
X130306000Y-139362571D02*
X129591714Y-139362571D01*
X129591714Y-137862571D01*
X130734571Y-138005428D02*
X130806000Y-137934000D01*
X130948857Y-137862571D01*
X131306000Y-137862571D01*
X131448857Y-137934000D01*
X131520285Y-138005428D01*
X131591714Y-138148285D01*
X131591714Y-138291142D01*
X131520285Y-138505428D01*
X130663142Y-139362571D01*
X131591714Y-139362571D01*
X133354000Y-139362571D02*
X132639714Y-139362571D01*
X132639714Y-137862571D01*
X134639714Y-139362571D02*
X133782571Y-139362571D01*
X134211142Y-139362571D02*
X134211142Y-137862571D01*
X134068285Y-138076857D01*
X133925428Y-138219714D01*
X133782571Y-138291142D01*
X136731428Y-139362571D02*
X136731428Y-137862571D01*
X137588571Y-139362571D01*
X137588571Y-137862571D01*
X141303428Y-139362571D02*
X141303428Y-137862571D01*
X142160571Y-139362571D01*
X142160571Y-137862571D01*
X147784285Y-139362571D02*
X147070000Y-139362571D01*
X147070000Y-137862571D01*
D11*
G04 #@! TO.C,J1*
X196400000Y-90300000D02*
X196400000Y-92800000D01*
X196400000Y-92800000D02*
X192400000Y-92800000D01*
X192400000Y-92800000D02*
X192400000Y-90300000D01*
X199400000Y-90300000D02*
X189400000Y-90300000D01*
X189400000Y-99300000D02*
X199400000Y-99300000D01*
X199400000Y-99300000D02*
X199400000Y-90300000D01*
X189400000Y-99300000D02*
X189400000Y-90300000D01*
D12*
G04 #@! TO.C,R6*
X125356000Y-75900000D02*
X125356000Y-77100000D01*
X123596000Y-77100000D02*
X123596000Y-75900000D01*
G04 #@! TO.C,D1*
X178976000Y-89350000D02*
X178976000Y-86050000D01*
X178976000Y-86050000D02*
X173576000Y-86050000D01*
X178976000Y-89350000D02*
X173576000Y-89350000D01*
D13*
G04 #@! TO.C,K1*
X130800400Y-87249540D02*
X149799600Y-87249540D01*
X149799600Y-87249540D02*
X149799600Y-71750460D01*
X130800400Y-71750460D02*
X149799600Y-71750460D01*
X130800400Y-87249540D02*
X130800400Y-71750460D01*
D14*
X130800400Y-87249540D02*
X149799600Y-87249540D01*
X149799600Y-87249540D02*
X149799600Y-71750460D01*
X149799600Y-71750460D02*
X130800400Y-71750460D01*
X130800400Y-71750460D02*
X130800400Y-87249540D01*
D12*
G04 #@! TO.C,C1*
X155752000Y-65308000D02*
X155752000Y-64308000D01*
X154052000Y-64308000D02*
X154052000Y-65308000D01*
G04 #@! TO.C,R3*
X103600000Y-70480000D02*
X102400000Y-70480000D01*
X102400000Y-68720000D02*
X103600000Y-68720000D01*
G04 #@! TO.C,R7*
X163380000Y-62300000D02*
X163380000Y-63500000D01*
X161620000Y-63500000D02*
X161620000Y-62300000D01*
D14*
G04 #@! TO.C,K1*
X180800400Y-71750460D02*
X180800400Y-87249540D01*
X199799600Y-71750460D02*
X180800400Y-71750460D01*
X199799600Y-87249540D02*
X199799600Y-71750460D01*
X180800400Y-87249540D02*
X199799600Y-87249540D01*
D13*
X180800400Y-87249540D02*
X180800400Y-71750460D01*
X180800400Y-71750460D02*
X199799600Y-71750460D01*
X199799600Y-87249540D02*
X199799600Y-71750460D01*
X180800400Y-87249540D02*
X199799600Y-87249540D01*
D12*
G04 #@! TO.C,R6*
X173596000Y-77100000D02*
X173596000Y-75900000D01*
X175356000Y-75900000D02*
X175356000Y-77100000D01*
G04 #@! TO.C,J8*
X156400000Y-98550000D02*
X157650000Y-98550000D01*
X156400000Y-97300000D02*
X156400000Y-98550000D01*
X160800000Y-93200000D02*
X160300000Y-93200000D01*
X160300000Y-93100000D02*
X160800000Y-93100000D01*
X160300000Y-93300000D02*
X160300000Y-93100000D01*
X160800000Y-93300000D02*
X160300000Y-93300000D01*
X160800000Y-95200000D02*
X160300000Y-95200000D01*
X160300000Y-95100000D02*
X160800000Y-95100000D01*
X160300000Y-95300000D02*
X160300000Y-95100000D01*
X160800000Y-95300000D02*
X160300000Y-95300000D01*
X156600000Y-96500000D02*
X156600000Y-96800000D01*
X156500000Y-96800000D02*
X156700000Y-96800000D01*
X156500000Y-96500000D02*
X156500000Y-96800000D01*
X156700000Y-96500000D02*
X156500000Y-96500000D01*
X159300000Y-90150000D02*
X159300000Y-90750000D01*
X158000000Y-90150000D02*
X158000000Y-90750000D01*
X159300000Y-98250000D02*
X159300000Y-97650000D01*
X158000000Y-98250000D02*
X158000000Y-97650000D01*
X157300000Y-92700000D02*
X156700000Y-92700000D01*
X157300000Y-90750000D02*
X157300000Y-92700000D01*
X160800000Y-90750000D02*
X157300000Y-90750000D01*
X160800000Y-97650000D02*
X160800000Y-90750000D01*
X157300000Y-97650000D02*
X160800000Y-97650000D01*
X157300000Y-95700000D02*
X157300000Y-97650000D01*
X156700000Y-95700000D02*
X157300000Y-95700000D01*
X156700000Y-90150000D02*
X156700000Y-98250000D01*
X161400000Y-90150000D02*
X156700000Y-90150000D01*
X161400000Y-98250000D02*
X161400000Y-90150000D01*
X156700000Y-98250000D02*
X161400000Y-98250000D01*
G04 #@! TO.C,Q1*
X128036000Y-85380000D02*
X128036000Y-84450000D01*
X128036000Y-82220000D02*
X128036000Y-83150000D01*
X128036000Y-82220000D02*
X125876000Y-82220000D01*
X128036000Y-85380000D02*
X126576000Y-85380000D01*
D11*
G04 #@! TO.C,J5*
X117400000Y-99300000D02*
X117400000Y-96800000D01*
X117400000Y-96800000D02*
X121400000Y-96800000D01*
X121400000Y-96800000D02*
X121400000Y-99300000D01*
X114400000Y-99300000D02*
X124400000Y-99300000D01*
X124400000Y-90300000D02*
X114400000Y-90300000D01*
X114400000Y-90300000D02*
X114400000Y-99300000D01*
X124400000Y-90300000D02*
X124400000Y-99300000D01*
D12*
G04 #@! TO.C,R7*
X111620000Y-63500000D02*
X111620000Y-62300000D01*
X113380000Y-62300000D02*
X113380000Y-63500000D01*
G04 #@! TO.C,Q2*
X178036000Y-77980000D02*
X178036000Y-77050000D01*
X178036000Y-74820000D02*
X178036000Y-75750000D01*
X178036000Y-74820000D02*
X175876000Y-74820000D01*
X178036000Y-77980000D02*
X176576000Y-77980000D01*
G04 #@! TO.C,D1*
X128976000Y-89350000D02*
X123576000Y-89350000D01*
X128976000Y-86050000D02*
X123576000Y-86050000D01*
X128976000Y-89350000D02*
X128976000Y-86050000D01*
G04 #@! TO.C,R4*
X102400000Y-66720000D02*
X103600000Y-66720000D01*
X103600000Y-68480000D02*
X102400000Y-68480000D01*
G04 #@! TO.C,J9*
X100400000Y-88150000D02*
X101650000Y-88150000D01*
X100400000Y-86900000D02*
X100400000Y-88150000D01*
X104800000Y-82800000D02*
X104300000Y-82800000D01*
X104300000Y-82700000D02*
X104800000Y-82700000D01*
X104300000Y-82900000D02*
X104300000Y-82700000D01*
X104800000Y-82900000D02*
X104300000Y-82900000D01*
X104800000Y-84800000D02*
X104300000Y-84800000D01*
X104300000Y-84700000D02*
X104800000Y-84700000D01*
X104300000Y-84900000D02*
X104300000Y-84700000D01*
X104800000Y-84900000D02*
X104300000Y-84900000D01*
X100600000Y-86100000D02*
X100600000Y-86400000D01*
X100500000Y-86400000D02*
X100700000Y-86400000D01*
X100500000Y-86100000D02*
X100500000Y-86400000D01*
X100700000Y-86100000D02*
X100500000Y-86100000D01*
X103300000Y-79750000D02*
X103300000Y-80350000D01*
X102000000Y-79750000D02*
X102000000Y-80350000D01*
X103300000Y-87850000D02*
X103300000Y-87250000D01*
X102000000Y-87850000D02*
X102000000Y-87250000D01*
X101300000Y-82300000D02*
X100700000Y-82300000D01*
X101300000Y-80350000D02*
X101300000Y-82300000D01*
X104800000Y-80350000D02*
X101300000Y-80350000D01*
X104800000Y-87250000D02*
X104800000Y-80350000D01*
X101300000Y-87250000D02*
X104800000Y-87250000D01*
X101300000Y-85300000D02*
X101300000Y-87250000D01*
X100700000Y-85300000D02*
X101300000Y-85300000D01*
X100700000Y-79750000D02*
X100700000Y-87850000D01*
X105400000Y-79750000D02*
X100700000Y-79750000D01*
X105400000Y-87850000D02*
X105400000Y-79750000D01*
X100700000Y-87850000D02*
X105400000Y-87850000D01*
G04 #@! TO.C,R8*
X153600000Y-61680000D02*
X152400000Y-61680000D01*
X152400000Y-59920000D02*
X153600000Y-59920000D01*
D14*
G04 #@! TO.C,K2*
X180800400Y-55950460D02*
X180800400Y-71449540D01*
X199799600Y-55950460D02*
X180800400Y-55950460D01*
X199799600Y-71449540D02*
X199799600Y-55950460D01*
X180800400Y-71449540D02*
X199799600Y-71449540D01*
D13*
X180800400Y-71449540D02*
X180800400Y-55950460D01*
X180800400Y-55950460D02*
X199799600Y-55950460D01*
X199799600Y-71449540D02*
X199799600Y-55950460D01*
X180800400Y-71449540D02*
X199799600Y-71449540D01*
D12*
G04 #@! TO.C,C1*
X104052000Y-64308000D02*
X104052000Y-65308000D01*
X105752000Y-65308000D02*
X105752000Y-64308000D01*
G04 #@! TO.C,J9*
X150700000Y-87850000D02*
X155400000Y-87850000D01*
X155400000Y-87850000D02*
X155400000Y-79750000D01*
X155400000Y-79750000D02*
X150700000Y-79750000D01*
X150700000Y-79750000D02*
X150700000Y-87850000D01*
X150700000Y-85300000D02*
X151300000Y-85300000D01*
X151300000Y-85300000D02*
X151300000Y-87250000D01*
X151300000Y-87250000D02*
X154800000Y-87250000D01*
X154800000Y-87250000D02*
X154800000Y-80350000D01*
X154800000Y-80350000D02*
X151300000Y-80350000D01*
X151300000Y-80350000D02*
X151300000Y-82300000D01*
X151300000Y-82300000D02*
X150700000Y-82300000D01*
X152000000Y-87850000D02*
X152000000Y-87250000D01*
X153300000Y-87850000D02*
X153300000Y-87250000D01*
X152000000Y-79750000D02*
X152000000Y-80350000D01*
X153300000Y-79750000D02*
X153300000Y-80350000D01*
X150700000Y-86100000D02*
X150500000Y-86100000D01*
X150500000Y-86100000D02*
X150500000Y-86400000D01*
X150500000Y-86400000D02*
X150700000Y-86400000D01*
X150600000Y-86100000D02*
X150600000Y-86400000D01*
X154800000Y-84900000D02*
X154300000Y-84900000D01*
X154300000Y-84900000D02*
X154300000Y-84700000D01*
X154300000Y-84700000D02*
X154800000Y-84700000D01*
X154800000Y-84800000D02*
X154300000Y-84800000D01*
X154800000Y-82900000D02*
X154300000Y-82900000D01*
X154300000Y-82900000D02*
X154300000Y-82700000D01*
X154300000Y-82700000D02*
X154800000Y-82700000D01*
X154800000Y-82800000D02*
X154300000Y-82800000D01*
X150400000Y-86900000D02*
X150400000Y-88150000D01*
X150400000Y-88150000D02*
X151650000Y-88150000D01*
G04 #@! TO.C,R1*
X166069000Y-66494000D02*
X166069000Y-67694000D01*
X164309000Y-67694000D02*
X164309000Y-66494000D01*
G04 #@! TO.C,R8*
X102400000Y-59920000D02*
X103600000Y-59920000D01*
X103600000Y-61680000D02*
X102400000Y-61680000D01*
D11*
G04 #@! TO.C,J5*
X174400000Y-90300000D02*
X174400000Y-99300000D01*
X164400000Y-90300000D02*
X164400000Y-99300000D01*
X174400000Y-90300000D02*
X164400000Y-90300000D01*
X164400000Y-99300000D02*
X174400000Y-99300000D01*
X171400000Y-96800000D02*
X171400000Y-99300000D01*
X167400000Y-96800000D02*
X171400000Y-96800000D01*
X167400000Y-99300000D02*
X167400000Y-96800000D01*
G04 #@! TO.C,U1*
X156125000Y-67175000D02*
X156175000Y-67175000D01*
X156125000Y-63025000D02*
X156270000Y-63025000D01*
X161275000Y-63025000D02*
X161130000Y-63025000D01*
X161275000Y-67175000D02*
X161130000Y-67175000D01*
X156125000Y-67175000D02*
X156125000Y-63025000D01*
X161275000Y-67175000D02*
X161275000Y-63025000D01*
X156175000Y-67175000D02*
X156175000Y-68575000D01*
G04 #@! TO.C,J2*
X189400000Y-99300000D02*
X189400000Y-90300000D01*
X174400000Y-90300000D02*
X174400000Y-99300000D01*
X174400000Y-90300000D02*
X189400000Y-90300000D01*
X189400000Y-99300000D02*
X174400000Y-99300000D01*
G04 #@! TO.C,M1*
X150470000Y-74000000D02*
X180130000Y-74000000D01*
X180130000Y-74000000D02*
X180130000Y-56200000D01*
X180130000Y-56200000D02*
X150470000Y-56200000D01*
X150470000Y-56200000D02*
X150470000Y-62133334D01*
X150470000Y-62133334D02*
X150920000Y-62133334D01*
X150920000Y-62133334D02*
X150920000Y-68066666D01*
X150920000Y-68066666D02*
X150470000Y-68066666D01*
X150470000Y-68066666D02*
X150470000Y-74000000D01*
D13*
G04 #@! TO.C,K2*
X130800400Y-71449540D02*
X149799600Y-71449540D01*
X149799600Y-71449540D02*
X149799600Y-55950460D01*
X130800400Y-55950460D02*
X149799600Y-55950460D01*
X130800400Y-71449540D02*
X130800400Y-55950460D01*
D14*
X130800400Y-71449540D02*
X149799600Y-71449540D01*
X149799600Y-71449540D02*
X149799600Y-55950460D01*
X149799600Y-55950460D02*
X130800400Y-55950460D01*
X130800400Y-55950460D02*
X130800400Y-71449540D01*
D12*
G04 #@! TO.C,R5*
X163380000Y-66400000D02*
X163380000Y-67600000D01*
X161620000Y-67600000D02*
X161620000Y-66400000D01*
G04 #@! TO.C,R3*
X152400000Y-68720000D02*
X153600000Y-68720000D01*
X153600000Y-70480000D02*
X152400000Y-70480000D01*
G04 #@! TO.C,D2*
X178876000Y-81750000D02*
X173476000Y-81750000D01*
X178876000Y-78450000D02*
X173476000Y-78450000D01*
X178876000Y-81750000D02*
X178876000Y-78450000D01*
G04 #@! TO.C,R4*
X153600000Y-68480000D02*
X152400000Y-68480000D01*
X152400000Y-66720000D02*
X153600000Y-66720000D01*
G04 #@! TO.C,Q2*
X128036000Y-77980000D02*
X126576000Y-77980000D01*
X128036000Y-74820000D02*
X125876000Y-74820000D01*
X128036000Y-74820000D02*
X128036000Y-75750000D01*
X128036000Y-77980000D02*
X128036000Y-77050000D01*
G04 #@! TO.C,J7*
X156700000Y-87850000D02*
X161400000Y-87850000D01*
X161400000Y-87850000D02*
X161400000Y-79750000D01*
X161400000Y-79750000D02*
X156700000Y-79750000D01*
X156700000Y-79750000D02*
X156700000Y-87850000D01*
X156700000Y-85300000D02*
X157300000Y-85300000D01*
X157300000Y-85300000D02*
X157300000Y-87250000D01*
X157300000Y-87250000D02*
X160800000Y-87250000D01*
X160800000Y-87250000D02*
X160800000Y-80350000D01*
X160800000Y-80350000D02*
X157300000Y-80350000D01*
X157300000Y-80350000D02*
X157300000Y-82300000D01*
X157300000Y-82300000D02*
X156700000Y-82300000D01*
X158000000Y-87850000D02*
X158000000Y-87250000D01*
X159300000Y-87850000D02*
X159300000Y-87250000D01*
X158000000Y-79750000D02*
X158000000Y-80350000D01*
X159300000Y-79750000D02*
X159300000Y-80350000D01*
X156700000Y-86100000D02*
X156500000Y-86100000D01*
X156500000Y-86100000D02*
X156500000Y-86400000D01*
X156500000Y-86400000D02*
X156700000Y-86400000D01*
X156600000Y-86100000D02*
X156600000Y-86400000D01*
X160800000Y-84900000D02*
X160300000Y-84900000D01*
X160300000Y-84900000D02*
X160300000Y-84700000D01*
X160300000Y-84700000D02*
X160800000Y-84700000D01*
X160800000Y-84800000D02*
X160300000Y-84800000D01*
X160800000Y-82900000D02*
X160300000Y-82900000D01*
X160300000Y-82900000D02*
X160300000Y-82700000D01*
X160300000Y-82700000D02*
X160800000Y-82700000D01*
X160800000Y-82800000D02*
X160300000Y-82800000D01*
X156400000Y-86900000D02*
X156400000Y-88150000D01*
X156400000Y-88150000D02*
X157650000Y-88150000D01*
G04 #@! TO.C,Q1*
X178036000Y-85380000D02*
X176576000Y-85380000D01*
X178036000Y-82220000D02*
X175876000Y-82220000D01*
X178036000Y-82220000D02*
X178036000Y-83150000D01*
X178036000Y-85380000D02*
X178036000Y-84450000D01*
D11*
G04 #@! TO.C,U1*
X106175000Y-67175000D02*
X106175000Y-68575000D01*
X111275000Y-67175000D02*
X111275000Y-63025000D01*
X106125000Y-67175000D02*
X106125000Y-63025000D01*
X111275000Y-67175000D02*
X111130000Y-67175000D01*
X111275000Y-63025000D02*
X111130000Y-63025000D01*
X106125000Y-63025000D02*
X106270000Y-63025000D01*
X106125000Y-67175000D02*
X106175000Y-67175000D01*
D12*
G04 #@! TO.C,J6*
X100400000Y-99350000D02*
X101650000Y-99350000D01*
X100400000Y-98100000D02*
X100400000Y-99350000D01*
X104800000Y-92000000D02*
X104300000Y-92000000D01*
X104300000Y-91900000D02*
X104800000Y-91900000D01*
X104300000Y-92100000D02*
X104300000Y-91900000D01*
X104800000Y-92100000D02*
X104300000Y-92100000D01*
X104800000Y-94000000D02*
X104300000Y-94000000D01*
X104300000Y-93900000D02*
X104800000Y-93900000D01*
X104300000Y-94100000D02*
X104300000Y-93900000D01*
X104800000Y-94100000D02*
X104300000Y-94100000D01*
X104800000Y-96000000D02*
X104300000Y-96000000D01*
X104300000Y-95900000D02*
X104800000Y-95900000D01*
X104300000Y-96100000D02*
X104300000Y-95900000D01*
X104800000Y-96100000D02*
X104300000Y-96100000D01*
X100600000Y-97300000D02*
X100600000Y-97600000D01*
X100500000Y-97600000D02*
X100700000Y-97600000D01*
X100500000Y-97300000D02*
X100500000Y-97600000D01*
X100700000Y-97300000D02*
X100500000Y-97300000D01*
X103300000Y-88950000D02*
X103300000Y-89550000D01*
X102000000Y-88950000D02*
X102000000Y-89550000D01*
X103300000Y-99050000D02*
X103300000Y-98450000D01*
X102000000Y-99050000D02*
X102000000Y-98450000D01*
X101300000Y-91500000D02*
X100700000Y-91500000D01*
X101300000Y-89550000D02*
X101300000Y-91500000D01*
X104800000Y-89550000D02*
X101300000Y-89550000D01*
X104800000Y-98450000D02*
X104800000Y-89550000D01*
X101300000Y-98450000D02*
X104800000Y-98450000D01*
X101300000Y-96500000D02*
X101300000Y-98450000D01*
X100700000Y-96500000D02*
X101300000Y-96500000D01*
X100700000Y-88950000D02*
X100700000Y-99050000D01*
X105400000Y-88950000D02*
X100700000Y-88950000D01*
X105400000Y-99050000D02*
X105400000Y-88950000D01*
X100700000Y-99050000D02*
X105400000Y-99050000D01*
G04 #@! TO.C,R1*
X114309000Y-67694000D02*
X114309000Y-66494000D01*
X116069000Y-66494000D02*
X116069000Y-67694000D01*
G04 #@! TO.C,R5*
X111620000Y-67600000D02*
X111620000Y-66400000D01*
X113380000Y-66400000D02*
X113380000Y-67600000D01*
G04 #@! TO.C,D2*
X128876000Y-81750000D02*
X128876000Y-78450000D01*
X128876000Y-78450000D02*
X123476000Y-78450000D01*
X128876000Y-81750000D02*
X123476000Y-81750000D01*
G04 #@! TO.C,R2*
X173396000Y-84400000D02*
X173396000Y-83200000D01*
X175156000Y-83200000D02*
X175156000Y-84400000D01*
G04 #@! TO.C,J6*
X150700000Y-99050000D02*
X155400000Y-99050000D01*
X155400000Y-99050000D02*
X155400000Y-88950000D01*
X155400000Y-88950000D02*
X150700000Y-88950000D01*
X150700000Y-88950000D02*
X150700000Y-99050000D01*
X150700000Y-96500000D02*
X151300000Y-96500000D01*
X151300000Y-96500000D02*
X151300000Y-98450000D01*
X151300000Y-98450000D02*
X154800000Y-98450000D01*
X154800000Y-98450000D02*
X154800000Y-89550000D01*
X154800000Y-89550000D02*
X151300000Y-89550000D01*
X151300000Y-89550000D02*
X151300000Y-91500000D01*
X151300000Y-91500000D02*
X150700000Y-91500000D01*
X152000000Y-99050000D02*
X152000000Y-98450000D01*
X153300000Y-99050000D02*
X153300000Y-98450000D01*
X152000000Y-88950000D02*
X152000000Y-89550000D01*
X153300000Y-88950000D02*
X153300000Y-89550000D01*
X150700000Y-97300000D02*
X150500000Y-97300000D01*
X150500000Y-97300000D02*
X150500000Y-97600000D01*
X150500000Y-97600000D02*
X150700000Y-97600000D01*
X150600000Y-97300000D02*
X150600000Y-97600000D01*
X154800000Y-96100000D02*
X154300000Y-96100000D01*
X154300000Y-96100000D02*
X154300000Y-95900000D01*
X154300000Y-95900000D02*
X154800000Y-95900000D01*
X154800000Y-96000000D02*
X154300000Y-96000000D01*
X154800000Y-94100000D02*
X154300000Y-94100000D01*
X154300000Y-94100000D02*
X154300000Y-93900000D01*
X154300000Y-93900000D02*
X154800000Y-93900000D01*
X154800000Y-94000000D02*
X154300000Y-94000000D01*
X154800000Y-92100000D02*
X154300000Y-92100000D01*
X154300000Y-92100000D02*
X154300000Y-91900000D01*
X154300000Y-91900000D02*
X154800000Y-91900000D01*
X154800000Y-92000000D02*
X154300000Y-92000000D01*
X150400000Y-98100000D02*
X150400000Y-99350000D01*
X150400000Y-99350000D02*
X151650000Y-99350000D01*
D11*
G04 #@! TO.C,J2*
X139400000Y-99300000D02*
X124400000Y-99300000D01*
X124400000Y-90300000D02*
X139400000Y-90300000D01*
X124400000Y-90300000D02*
X124400000Y-99300000D01*
X139400000Y-99300000D02*
X139400000Y-90300000D01*
G04 #@! TO.C,J10*
X111832000Y-79112000D02*
X120832000Y-79112000D01*
X111832000Y-89112000D02*
X120832000Y-89112000D01*
X111832000Y-79112000D02*
X111832000Y-89112000D01*
X120832000Y-89112000D02*
X120832000Y-79112000D01*
X118332000Y-82112000D02*
X120832000Y-82112000D01*
X118332000Y-86112000D02*
X118332000Y-82112000D01*
X120832000Y-86112000D02*
X118332000Y-86112000D01*
X170832000Y-86112000D02*
X168332000Y-86112000D01*
X168332000Y-86112000D02*
X168332000Y-82112000D01*
X168332000Y-82112000D02*
X170832000Y-82112000D01*
X170832000Y-89112000D02*
X170832000Y-79112000D01*
X161832000Y-79112000D02*
X161832000Y-89112000D01*
X161832000Y-89112000D02*
X170832000Y-89112000D01*
X161832000Y-79112000D02*
X170832000Y-79112000D01*
D12*
G04 #@! TO.C,R2*
X125156000Y-83200000D02*
X125156000Y-84400000D01*
X123396000Y-84400000D02*
X123396000Y-83200000D01*
D11*
G04 #@! TO.C,J1*
X139400000Y-99300000D02*
X139400000Y-90300000D01*
X149400000Y-99300000D02*
X149400000Y-90300000D01*
X139400000Y-99300000D02*
X149400000Y-99300000D01*
X149400000Y-90300000D02*
X139400000Y-90300000D01*
X142400000Y-92800000D02*
X142400000Y-90300000D01*
X146400000Y-92800000D02*
X142400000Y-92800000D01*
X146400000Y-90300000D02*
X146400000Y-92800000D01*
D12*
G04 #@! TO.C,J8*
X106700000Y-98250000D02*
X111400000Y-98250000D01*
X111400000Y-98250000D02*
X111400000Y-90150000D01*
X111400000Y-90150000D02*
X106700000Y-90150000D01*
X106700000Y-90150000D02*
X106700000Y-98250000D01*
X106700000Y-95700000D02*
X107300000Y-95700000D01*
X107300000Y-95700000D02*
X107300000Y-97650000D01*
X107300000Y-97650000D02*
X110800000Y-97650000D01*
X110800000Y-97650000D02*
X110800000Y-90750000D01*
X110800000Y-90750000D02*
X107300000Y-90750000D01*
X107300000Y-90750000D02*
X107300000Y-92700000D01*
X107300000Y-92700000D02*
X106700000Y-92700000D01*
X108000000Y-98250000D02*
X108000000Y-97650000D01*
X109300000Y-98250000D02*
X109300000Y-97650000D01*
X108000000Y-90150000D02*
X108000000Y-90750000D01*
X109300000Y-90150000D02*
X109300000Y-90750000D01*
X106700000Y-96500000D02*
X106500000Y-96500000D01*
X106500000Y-96500000D02*
X106500000Y-96800000D01*
X106500000Y-96800000D02*
X106700000Y-96800000D01*
X106600000Y-96500000D02*
X106600000Y-96800000D01*
X110800000Y-95300000D02*
X110300000Y-95300000D01*
X110300000Y-95300000D02*
X110300000Y-95100000D01*
X110300000Y-95100000D02*
X110800000Y-95100000D01*
X110800000Y-95200000D02*
X110300000Y-95200000D01*
X110800000Y-93300000D02*
X110300000Y-93300000D01*
X110300000Y-93300000D02*
X110300000Y-93100000D01*
X110300000Y-93100000D02*
X110800000Y-93100000D01*
X110800000Y-93200000D02*
X110300000Y-93200000D01*
X106400000Y-97300000D02*
X106400000Y-98550000D01*
X106400000Y-98550000D02*
X107650000Y-98550000D01*
D11*
G04 #@! TO.C,M1*
X100470000Y-68066666D02*
X100470000Y-74000000D01*
X100920000Y-68066666D02*
X100470000Y-68066666D01*
X100920000Y-62133334D02*
X100920000Y-68066666D01*
X100470000Y-62133334D02*
X100920000Y-62133334D01*
X100470000Y-56200000D02*
X100470000Y-62133334D01*
X130130000Y-56200000D02*
X100470000Y-56200000D01*
X130130000Y-74000000D02*
X130130000Y-56200000D01*
X100470000Y-74000000D02*
X130130000Y-74000000D01*
D12*
G04 #@! TO.C,J7*
X106400000Y-88150000D02*
X107650000Y-88150000D01*
X106400000Y-86900000D02*
X106400000Y-88150000D01*
X110800000Y-82800000D02*
X110300000Y-82800000D01*
X110300000Y-82700000D02*
X110800000Y-82700000D01*
X110300000Y-82900000D02*
X110300000Y-82700000D01*
X110800000Y-82900000D02*
X110300000Y-82900000D01*
X110800000Y-84800000D02*
X110300000Y-84800000D01*
X110300000Y-84700000D02*
X110800000Y-84700000D01*
X110300000Y-84900000D02*
X110300000Y-84700000D01*
X110800000Y-84900000D02*
X110300000Y-84900000D01*
X106600000Y-86100000D02*
X106600000Y-86400000D01*
X106500000Y-86400000D02*
X106700000Y-86400000D01*
X106500000Y-86100000D02*
X106500000Y-86400000D01*
X106700000Y-86100000D02*
X106500000Y-86100000D01*
X109300000Y-79750000D02*
X109300000Y-80350000D01*
X108000000Y-79750000D02*
X108000000Y-80350000D01*
X109300000Y-87850000D02*
X109300000Y-87250000D01*
X108000000Y-87850000D02*
X108000000Y-87250000D01*
X107300000Y-82300000D02*
X106700000Y-82300000D01*
X107300000Y-80350000D02*
X107300000Y-82300000D01*
X110800000Y-80350000D02*
X107300000Y-80350000D01*
X110800000Y-87250000D02*
X110800000Y-80350000D01*
X107300000Y-87250000D02*
X110800000Y-87250000D01*
X107300000Y-85300000D02*
X107300000Y-87250000D01*
X106700000Y-85300000D02*
X107300000Y-85300000D01*
X106700000Y-79750000D02*
X106700000Y-87850000D01*
X111400000Y-79750000D02*
X106700000Y-79750000D01*
X111400000Y-87850000D02*
X111400000Y-79750000D01*
X106700000Y-87850000D02*
X111400000Y-87850000D01*
G04 #@! TO.C,R6*
X175356000Y-125900000D02*
X175356000Y-127100000D01*
X173596000Y-127100000D02*
X173596000Y-125900000D01*
D13*
G04 #@! TO.C,K1*
X180800400Y-137249540D02*
X199799600Y-137249540D01*
X199799600Y-137249540D02*
X199799600Y-121750460D01*
X180800400Y-121750460D02*
X199799600Y-121750460D01*
X180800400Y-137249540D02*
X180800400Y-121750460D01*
D14*
X180800400Y-137249540D02*
X199799600Y-137249540D01*
X199799600Y-137249540D02*
X199799600Y-121750460D01*
X199799600Y-121750460D02*
X180800400Y-121750460D01*
X180800400Y-121750460D02*
X180800400Y-137249540D01*
D12*
G04 #@! TO.C,R3*
X153600000Y-120480000D02*
X152400000Y-120480000D01*
X152400000Y-118720000D02*
X153600000Y-118720000D01*
G04 #@! TO.C,Q1*
X178036000Y-135380000D02*
X178036000Y-134450000D01*
X178036000Y-132220000D02*
X178036000Y-133150000D01*
X178036000Y-132220000D02*
X175876000Y-132220000D01*
X178036000Y-135380000D02*
X176576000Y-135380000D01*
D11*
G04 #@! TO.C,J5*
X167400000Y-149300000D02*
X167400000Y-146800000D01*
X167400000Y-146800000D02*
X171400000Y-146800000D01*
X171400000Y-146800000D02*
X171400000Y-149300000D01*
X164400000Y-149300000D02*
X174400000Y-149300000D01*
X174400000Y-140300000D02*
X164400000Y-140300000D01*
X164400000Y-140300000D02*
X164400000Y-149300000D01*
X174400000Y-140300000D02*
X174400000Y-149300000D01*
D12*
G04 #@! TO.C,R7*
X161620000Y-113500000D02*
X161620000Y-112300000D01*
X163380000Y-112300000D02*
X163380000Y-113500000D01*
G04 #@! TO.C,D1*
X178976000Y-139350000D02*
X173576000Y-139350000D01*
X178976000Y-136050000D02*
X173576000Y-136050000D01*
X178976000Y-139350000D02*
X178976000Y-136050000D01*
G04 #@! TO.C,R4*
X152400000Y-116720000D02*
X153600000Y-116720000D01*
X153600000Y-118480000D02*
X152400000Y-118480000D01*
G04 #@! TO.C,J9*
X150400000Y-138150000D02*
X151650000Y-138150000D01*
X150400000Y-136900000D02*
X150400000Y-138150000D01*
X154800000Y-132800000D02*
X154300000Y-132800000D01*
X154300000Y-132700000D02*
X154800000Y-132700000D01*
X154300000Y-132900000D02*
X154300000Y-132700000D01*
X154800000Y-132900000D02*
X154300000Y-132900000D01*
X154800000Y-134800000D02*
X154300000Y-134800000D01*
X154300000Y-134700000D02*
X154800000Y-134700000D01*
X154300000Y-134900000D02*
X154300000Y-134700000D01*
X154800000Y-134900000D02*
X154300000Y-134900000D01*
X150600000Y-136100000D02*
X150600000Y-136400000D01*
X150500000Y-136400000D02*
X150700000Y-136400000D01*
X150500000Y-136100000D02*
X150500000Y-136400000D01*
X150700000Y-136100000D02*
X150500000Y-136100000D01*
X153300000Y-129750000D02*
X153300000Y-130350000D01*
X152000000Y-129750000D02*
X152000000Y-130350000D01*
X153300000Y-137850000D02*
X153300000Y-137250000D01*
X152000000Y-137850000D02*
X152000000Y-137250000D01*
X151300000Y-132300000D02*
X150700000Y-132300000D01*
X151300000Y-130350000D02*
X151300000Y-132300000D01*
X154800000Y-130350000D02*
X151300000Y-130350000D01*
X154800000Y-137250000D02*
X154800000Y-130350000D01*
X151300000Y-137250000D02*
X154800000Y-137250000D01*
X151300000Y-135300000D02*
X151300000Y-137250000D01*
X150700000Y-135300000D02*
X151300000Y-135300000D01*
X150700000Y-129750000D02*
X150700000Y-137850000D01*
X155400000Y-129750000D02*
X150700000Y-129750000D01*
X155400000Y-137850000D02*
X155400000Y-129750000D01*
X150700000Y-137850000D02*
X155400000Y-137850000D01*
G04 #@! TO.C,C1*
X154052000Y-114308000D02*
X154052000Y-115308000D01*
X155752000Y-115308000D02*
X155752000Y-114308000D01*
G04 #@! TO.C,R8*
X152400000Y-109920000D02*
X153600000Y-109920000D01*
X153600000Y-111680000D02*
X152400000Y-111680000D01*
D13*
G04 #@! TO.C,K2*
X180800400Y-121449540D02*
X199799600Y-121449540D01*
X199799600Y-121449540D02*
X199799600Y-105950460D01*
X180800400Y-105950460D02*
X199799600Y-105950460D01*
X180800400Y-121449540D02*
X180800400Y-105950460D01*
D14*
X180800400Y-121449540D02*
X199799600Y-121449540D01*
X199799600Y-121449540D02*
X199799600Y-105950460D01*
X199799600Y-105950460D02*
X180800400Y-105950460D01*
X180800400Y-105950460D02*
X180800400Y-121449540D01*
D12*
G04 #@! TO.C,Q2*
X178036000Y-127980000D02*
X176576000Y-127980000D01*
X178036000Y-124820000D02*
X175876000Y-124820000D01*
X178036000Y-124820000D02*
X178036000Y-125750000D01*
X178036000Y-127980000D02*
X178036000Y-127050000D01*
D11*
G04 #@! TO.C,U1*
X156175000Y-117175000D02*
X156175000Y-118575000D01*
X161275000Y-117175000D02*
X161275000Y-113025000D01*
X156125000Y-117175000D02*
X156125000Y-113025000D01*
X161275000Y-117175000D02*
X161130000Y-117175000D01*
X161275000Y-113025000D02*
X161130000Y-113025000D01*
X156125000Y-113025000D02*
X156270000Y-113025000D01*
X156125000Y-117175000D02*
X156175000Y-117175000D01*
D12*
G04 #@! TO.C,J6*
X150400000Y-149350000D02*
X151650000Y-149350000D01*
X150400000Y-148100000D02*
X150400000Y-149350000D01*
X154800000Y-142000000D02*
X154300000Y-142000000D01*
X154300000Y-141900000D02*
X154800000Y-141900000D01*
X154300000Y-142100000D02*
X154300000Y-141900000D01*
X154800000Y-142100000D02*
X154300000Y-142100000D01*
X154800000Y-144000000D02*
X154300000Y-144000000D01*
X154300000Y-143900000D02*
X154800000Y-143900000D01*
X154300000Y-144100000D02*
X154300000Y-143900000D01*
X154800000Y-144100000D02*
X154300000Y-144100000D01*
X154800000Y-146000000D02*
X154300000Y-146000000D01*
X154300000Y-145900000D02*
X154800000Y-145900000D01*
X154300000Y-146100000D02*
X154300000Y-145900000D01*
X154800000Y-146100000D02*
X154300000Y-146100000D01*
X150600000Y-147300000D02*
X150600000Y-147600000D01*
X150500000Y-147600000D02*
X150700000Y-147600000D01*
X150500000Y-147300000D02*
X150500000Y-147600000D01*
X150700000Y-147300000D02*
X150500000Y-147300000D01*
X153300000Y-138950000D02*
X153300000Y-139550000D01*
X152000000Y-138950000D02*
X152000000Y-139550000D01*
X153300000Y-149050000D02*
X153300000Y-148450000D01*
X152000000Y-149050000D02*
X152000000Y-148450000D01*
X151300000Y-141500000D02*
X150700000Y-141500000D01*
X151300000Y-139550000D02*
X151300000Y-141500000D01*
X154800000Y-139550000D02*
X151300000Y-139550000D01*
X154800000Y-148450000D02*
X154800000Y-139550000D01*
X151300000Y-148450000D02*
X154800000Y-148450000D01*
X151300000Y-146500000D02*
X151300000Y-148450000D01*
X150700000Y-146500000D02*
X151300000Y-146500000D01*
X150700000Y-138950000D02*
X150700000Y-149050000D01*
X155400000Y-138950000D02*
X150700000Y-138950000D01*
X155400000Y-149050000D02*
X155400000Y-138950000D01*
X150700000Y-149050000D02*
X155400000Y-149050000D01*
G04 #@! TO.C,R1*
X164309000Y-117694000D02*
X164309000Y-116494000D01*
X166069000Y-116494000D02*
X166069000Y-117694000D01*
G04 #@! TO.C,R5*
X161620000Y-117600000D02*
X161620000Y-116400000D01*
X163380000Y-116400000D02*
X163380000Y-117600000D01*
G04 #@! TO.C,D2*
X178876000Y-131750000D02*
X178876000Y-128450000D01*
X178876000Y-128450000D02*
X173476000Y-128450000D01*
X178876000Y-131750000D02*
X173476000Y-131750000D01*
D11*
G04 #@! TO.C,J2*
X189400000Y-149300000D02*
X174400000Y-149300000D01*
X174400000Y-140300000D02*
X189400000Y-140300000D01*
X174400000Y-140300000D02*
X174400000Y-149300000D01*
X189400000Y-149300000D02*
X189400000Y-140300000D01*
G04 #@! TO.C,J10*
X161832000Y-129112000D02*
X170832000Y-129112000D01*
X161832000Y-139112000D02*
X170832000Y-139112000D01*
X161832000Y-129112000D02*
X161832000Y-139112000D01*
X170832000Y-139112000D02*
X170832000Y-129112000D01*
X168332000Y-132112000D02*
X170832000Y-132112000D01*
X168332000Y-136112000D02*
X168332000Y-132112000D01*
X170832000Y-136112000D02*
X168332000Y-136112000D01*
D12*
G04 #@! TO.C,R2*
X175156000Y-133200000D02*
X175156000Y-134400000D01*
X173396000Y-134400000D02*
X173396000Y-133200000D01*
D11*
G04 #@! TO.C,J1*
X189400000Y-149300000D02*
X189400000Y-140300000D01*
X199400000Y-149300000D02*
X199400000Y-140300000D01*
X189400000Y-149300000D02*
X199400000Y-149300000D01*
X199400000Y-140300000D02*
X189400000Y-140300000D01*
X192400000Y-142800000D02*
X192400000Y-140300000D01*
X196400000Y-142800000D02*
X192400000Y-142800000D01*
X196400000Y-140300000D02*
X196400000Y-142800000D01*
D12*
G04 #@! TO.C,J8*
X156700000Y-148250000D02*
X161400000Y-148250000D01*
X161400000Y-148250000D02*
X161400000Y-140150000D01*
X161400000Y-140150000D02*
X156700000Y-140150000D01*
X156700000Y-140150000D02*
X156700000Y-148250000D01*
X156700000Y-145700000D02*
X157300000Y-145700000D01*
X157300000Y-145700000D02*
X157300000Y-147650000D01*
X157300000Y-147650000D02*
X160800000Y-147650000D01*
X160800000Y-147650000D02*
X160800000Y-140750000D01*
X160800000Y-140750000D02*
X157300000Y-140750000D01*
X157300000Y-140750000D02*
X157300000Y-142700000D01*
X157300000Y-142700000D02*
X156700000Y-142700000D01*
X158000000Y-148250000D02*
X158000000Y-147650000D01*
X159300000Y-148250000D02*
X159300000Y-147650000D01*
X158000000Y-140150000D02*
X158000000Y-140750000D01*
X159300000Y-140150000D02*
X159300000Y-140750000D01*
X156700000Y-146500000D02*
X156500000Y-146500000D01*
X156500000Y-146500000D02*
X156500000Y-146800000D01*
X156500000Y-146800000D02*
X156700000Y-146800000D01*
X156600000Y-146500000D02*
X156600000Y-146800000D01*
X160800000Y-145300000D02*
X160300000Y-145300000D01*
X160300000Y-145300000D02*
X160300000Y-145100000D01*
X160300000Y-145100000D02*
X160800000Y-145100000D01*
X160800000Y-145200000D02*
X160300000Y-145200000D01*
X160800000Y-143300000D02*
X160300000Y-143300000D01*
X160300000Y-143300000D02*
X160300000Y-143100000D01*
X160300000Y-143100000D02*
X160800000Y-143100000D01*
X160800000Y-143200000D02*
X160300000Y-143200000D01*
X156400000Y-147300000D02*
X156400000Y-148550000D01*
X156400000Y-148550000D02*
X157650000Y-148550000D01*
D11*
G04 #@! TO.C,M1*
X150470000Y-118066666D02*
X150470000Y-124000000D01*
X150920000Y-118066666D02*
X150470000Y-118066666D01*
X150920000Y-112133334D02*
X150920000Y-118066666D01*
X150470000Y-112133334D02*
X150920000Y-112133334D01*
X150470000Y-106200000D02*
X150470000Y-112133334D01*
X180130000Y-106200000D02*
X150470000Y-106200000D01*
X180130000Y-124000000D02*
X180130000Y-106200000D01*
X150470000Y-124000000D02*
X180130000Y-124000000D01*
D12*
G04 #@! TO.C,J7*
X156400000Y-138150000D02*
X157650000Y-138150000D01*
X156400000Y-136900000D02*
X156400000Y-138150000D01*
X160800000Y-132800000D02*
X160300000Y-132800000D01*
X160300000Y-132700000D02*
X160800000Y-132700000D01*
X160300000Y-132900000D02*
X160300000Y-132700000D01*
X160800000Y-132900000D02*
X160300000Y-132900000D01*
X160800000Y-134800000D02*
X160300000Y-134800000D01*
X160300000Y-134700000D02*
X160800000Y-134700000D01*
X160300000Y-134900000D02*
X160300000Y-134700000D01*
X160800000Y-134900000D02*
X160300000Y-134900000D01*
X156600000Y-136100000D02*
X156600000Y-136400000D01*
X156500000Y-136400000D02*
X156700000Y-136400000D01*
X156500000Y-136100000D02*
X156500000Y-136400000D01*
X156700000Y-136100000D02*
X156500000Y-136100000D01*
X159300000Y-129750000D02*
X159300000Y-130350000D01*
X158000000Y-129750000D02*
X158000000Y-130350000D01*
X159300000Y-137850000D02*
X159300000Y-137250000D01*
X158000000Y-137850000D02*
X158000000Y-137250000D01*
X157300000Y-132300000D02*
X156700000Y-132300000D01*
X157300000Y-130350000D02*
X157300000Y-132300000D01*
X160800000Y-130350000D02*
X157300000Y-130350000D01*
X160800000Y-137250000D02*
X160800000Y-130350000D01*
X157300000Y-137250000D02*
X160800000Y-137250000D01*
X157300000Y-135300000D02*
X157300000Y-137250000D01*
X156700000Y-135300000D02*
X157300000Y-135300000D01*
X156700000Y-129750000D02*
X156700000Y-137850000D01*
X161400000Y-129750000D02*
X156700000Y-129750000D01*
X161400000Y-137850000D02*
X161400000Y-129750000D01*
X156700000Y-137850000D02*
X161400000Y-137850000D01*
D14*
G04 #@! TO.C,K1*
X130800400Y-121750460D02*
X130800400Y-137249540D01*
X149799600Y-121750460D02*
X130800400Y-121750460D01*
X149799600Y-137249540D02*
X149799600Y-121750460D01*
X130800400Y-137249540D02*
X149799600Y-137249540D01*
D13*
X130800400Y-137249540D02*
X130800400Y-121750460D01*
X130800400Y-121750460D02*
X149799600Y-121750460D01*
X149799600Y-137249540D02*
X149799600Y-121750460D01*
X130800400Y-137249540D02*
X149799600Y-137249540D01*
D14*
G04 #@! TO.C,K2*
X130800400Y-105950460D02*
X130800400Y-121449540D01*
X149799600Y-105950460D02*
X130800400Y-105950460D01*
X149799600Y-121449540D02*
X149799600Y-105950460D01*
X130800400Y-121449540D02*
X149799600Y-121449540D01*
D13*
X130800400Y-121449540D02*
X130800400Y-105950460D01*
X130800400Y-105950460D02*
X149799600Y-105950460D01*
X149799600Y-121449540D02*
X149799600Y-105950460D01*
X130800400Y-121449540D02*
X149799600Y-121449540D01*
D11*
G04 #@! TO.C,M1*
X100470000Y-124000000D02*
X130130000Y-124000000D01*
X130130000Y-124000000D02*
X130130000Y-106200000D01*
X130130000Y-106200000D02*
X100470000Y-106200000D01*
X100470000Y-106200000D02*
X100470000Y-112133334D01*
X100470000Y-112133334D02*
X100920000Y-112133334D01*
X100920000Y-112133334D02*
X100920000Y-118066666D01*
X100920000Y-118066666D02*
X100470000Y-118066666D01*
X100470000Y-118066666D02*
X100470000Y-124000000D01*
D12*
G04 #@! TO.C,C1*
X105752000Y-115308000D02*
X105752000Y-114308000D01*
X104052000Y-114308000D02*
X104052000Y-115308000D01*
G04 #@! TO.C,D1*
X128976000Y-139350000D02*
X128976000Y-136050000D01*
X128976000Y-136050000D02*
X123576000Y-136050000D01*
X128976000Y-139350000D02*
X123576000Y-139350000D01*
G04 #@! TO.C,D2*
X128876000Y-131750000D02*
X123476000Y-131750000D01*
X128876000Y-128450000D02*
X123476000Y-128450000D01*
X128876000Y-131750000D02*
X128876000Y-128450000D01*
G04 #@! TO.C,J6*
X100700000Y-149050000D02*
X105400000Y-149050000D01*
X105400000Y-149050000D02*
X105400000Y-138950000D01*
X105400000Y-138950000D02*
X100700000Y-138950000D01*
X100700000Y-138950000D02*
X100700000Y-149050000D01*
X100700000Y-146500000D02*
X101300000Y-146500000D01*
X101300000Y-146500000D02*
X101300000Y-148450000D01*
X101300000Y-148450000D02*
X104800000Y-148450000D01*
X104800000Y-148450000D02*
X104800000Y-139550000D01*
X104800000Y-139550000D02*
X101300000Y-139550000D01*
X101300000Y-139550000D02*
X101300000Y-141500000D01*
X101300000Y-141500000D02*
X100700000Y-141500000D01*
X102000000Y-149050000D02*
X102000000Y-148450000D01*
X103300000Y-149050000D02*
X103300000Y-148450000D01*
X102000000Y-138950000D02*
X102000000Y-139550000D01*
X103300000Y-138950000D02*
X103300000Y-139550000D01*
X100700000Y-147300000D02*
X100500000Y-147300000D01*
X100500000Y-147300000D02*
X100500000Y-147600000D01*
X100500000Y-147600000D02*
X100700000Y-147600000D01*
X100600000Y-147300000D02*
X100600000Y-147600000D01*
X104800000Y-146100000D02*
X104300000Y-146100000D01*
X104300000Y-146100000D02*
X104300000Y-145900000D01*
X104300000Y-145900000D02*
X104800000Y-145900000D01*
X104800000Y-146000000D02*
X104300000Y-146000000D01*
X104800000Y-144100000D02*
X104300000Y-144100000D01*
X104300000Y-144100000D02*
X104300000Y-143900000D01*
X104300000Y-143900000D02*
X104800000Y-143900000D01*
X104800000Y-144000000D02*
X104300000Y-144000000D01*
X104800000Y-142100000D02*
X104300000Y-142100000D01*
X104300000Y-142100000D02*
X104300000Y-141900000D01*
X104300000Y-141900000D02*
X104800000Y-141900000D01*
X104800000Y-142000000D02*
X104300000Y-142000000D01*
X100400000Y-148100000D02*
X100400000Y-149350000D01*
X100400000Y-149350000D02*
X101650000Y-149350000D01*
G04 #@! TO.C,J7*
X106700000Y-137850000D02*
X111400000Y-137850000D01*
X111400000Y-137850000D02*
X111400000Y-129750000D01*
X111400000Y-129750000D02*
X106700000Y-129750000D01*
X106700000Y-129750000D02*
X106700000Y-137850000D01*
X106700000Y-135300000D02*
X107300000Y-135300000D01*
X107300000Y-135300000D02*
X107300000Y-137250000D01*
X107300000Y-137250000D02*
X110800000Y-137250000D01*
X110800000Y-137250000D02*
X110800000Y-130350000D01*
X110800000Y-130350000D02*
X107300000Y-130350000D01*
X107300000Y-130350000D02*
X107300000Y-132300000D01*
X107300000Y-132300000D02*
X106700000Y-132300000D01*
X108000000Y-137850000D02*
X108000000Y-137250000D01*
X109300000Y-137850000D02*
X109300000Y-137250000D01*
X108000000Y-129750000D02*
X108000000Y-130350000D01*
X109300000Y-129750000D02*
X109300000Y-130350000D01*
X106700000Y-136100000D02*
X106500000Y-136100000D01*
X106500000Y-136100000D02*
X106500000Y-136400000D01*
X106500000Y-136400000D02*
X106700000Y-136400000D01*
X106600000Y-136100000D02*
X106600000Y-136400000D01*
X110800000Y-134900000D02*
X110300000Y-134900000D01*
X110300000Y-134900000D02*
X110300000Y-134700000D01*
X110300000Y-134700000D02*
X110800000Y-134700000D01*
X110800000Y-134800000D02*
X110300000Y-134800000D01*
X110800000Y-132900000D02*
X110300000Y-132900000D01*
X110300000Y-132900000D02*
X110300000Y-132700000D01*
X110300000Y-132700000D02*
X110800000Y-132700000D01*
X110800000Y-132800000D02*
X110300000Y-132800000D01*
X106400000Y-136900000D02*
X106400000Y-138150000D01*
X106400000Y-138150000D02*
X107650000Y-138150000D01*
G04 #@! TO.C,J8*
X106400000Y-148550000D02*
X107650000Y-148550000D01*
X106400000Y-147300000D02*
X106400000Y-148550000D01*
X110800000Y-143200000D02*
X110300000Y-143200000D01*
X110300000Y-143100000D02*
X110800000Y-143100000D01*
X110300000Y-143300000D02*
X110300000Y-143100000D01*
X110800000Y-143300000D02*
X110300000Y-143300000D01*
X110800000Y-145200000D02*
X110300000Y-145200000D01*
X110300000Y-145100000D02*
X110800000Y-145100000D01*
X110300000Y-145300000D02*
X110300000Y-145100000D01*
X110800000Y-145300000D02*
X110300000Y-145300000D01*
X106600000Y-146500000D02*
X106600000Y-146800000D01*
X106500000Y-146800000D02*
X106700000Y-146800000D01*
X106500000Y-146500000D02*
X106500000Y-146800000D01*
X106700000Y-146500000D02*
X106500000Y-146500000D01*
X109300000Y-140150000D02*
X109300000Y-140750000D01*
X108000000Y-140150000D02*
X108000000Y-140750000D01*
X109300000Y-148250000D02*
X109300000Y-147650000D01*
X108000000Y-148250000D02*
X108000000Y-147650000D01*
X107300000Y-142700000D02*
X106700000Y-142700000D01*
X107300000Y-140750000D02*
X107300000Y-142700000D01*
X110800000Y-140750000D02*
X107300000Y-140750000D01*
X110800000Y-147650000D02*
X110800000Y-140750000D01*
X107300000Y-147650000D02*
X110800000Y-147650000D01*
X107300000Y-145700000D02*
X107300000Y-147650000D01*
X106700000Y-145700000D02*
X107300000Y-145700000D01*
X106700000Y-140150000D02*
X106700000Y-148250000D01*
X111400000Y-140150000D02*
X106700000Y-140150000D01*
X111400000Y-148250000D02*
X111400000Y-140150000D01*
X106700000Y-148250000D02*
X111400000Y-148250000D01*
G04 #@! TO.C,J9*
X100700000Y-137850000D02*
X105400000Y-137850000D01*
X105400000Y-137850000D02*
X105400000Y-129750000D01*
X105400000Y-129750000D02*
X100700000Y-129750000D01*
X100700000Y-129750000D02*
X100700000Y-137850000D01*
X100700000Y-135300000D02*
X101300000Y-135300000D01*
X101300000Y-135300000D02*
X101300000Y-137250000D01*
X101300000Y-137250000D02*
X104800000Y-137250000D01*
X104800000Y-137250000D02*
X104800000Y-130350000D01*
X104800000Y-130350000D02*
X101300000Y-130350000D01*
X101300000Y-130350000D02*
X101300000Y-132300000D01*
X101300000Y-132300000D02*
X100700000Y-132300000D01*
X102000000Y-137850000D02*
X102000000Y-137250000D01*
X103300000Y-137850000D02*
X103300000Y-137250000D01*
X102000000Y-129750000D02*
X102000000Y-130350000D01*
X103300000Y-129750000D02*
X103300000Y-130350000D01*
X100700000Y-136100000D02*
X100500000Y-136100000D01*
X100500000Y-136100000D02*
X100500000Y-136400000D01*
X100500000Y-136400000D02*
X100700000Y-136400000D01*
X100600000Y-136100000D02*
X100600000Y-136400000D01*
X104800000Y-134900000D02*
X104300000Y-134900000D01*
X104300000Y-134900000D02*
X104300000Y-134700000D01*
X104300000Y-134700000D02*
X104800000Y-134700000D01*
X104800000Y-134800000D02*
X104300000Y-134800000D01*
X104800000Y-132900000D02*
X104300000Y-132900000D01*
X104300000Y-132900000D02*
X104300000Y-132700000D01*
X104300000Y-132700000D02*
X104800000Y-132700000D01*
X104800000Y-132800000D02*
X104300000Y-132800000D01*
X100400000Y-136900000D02*
X100400000Y-138150000D01*
X100400000Y-138150000D02*
X101650000Y-138150000D01*
G04 #@! TO.C,Q1*
X128036000Y-135380000D02*
X126576000Y-135380000D01*
X128036000Y-132220000D02*
X125876000Y-132220000D01*
X128036000Y-132220000D02*
X128036000Y-133150000D01*
X128036000Y-135380000D02*
X128036000Y-134450000D01*
G04 #@! TO.C,Q2*
X128036000Y-127980000D02*
X128036000Y-127050000D01*
X128036000Y-124820000D02*
X128036000Y-125750000D01*
X128036000Y-124820000D02*
X125876000Y-124820000D01*
X128036000Y-127980000D02*
X126576000Y-127980000D01*
G04 #@! TO.C,R1*
X116069000Y-116494000D02*
X116069000Y-117694000D01*
X114309000Y-117694000D02*
X114309000Y-116494000D01*
G04 #@! TO.C,R2*
X123396000Y-134400000D02*
X123396000Y-133200000D01*
X125156000Y-133200000D02*
X125156000Y-134400000D01*
G04 #@! TO.C,R3*
X102400000Y-118720000D02*
X103600000Y-118720000D01*
X103600000Y-120480000D02*
X102400000Y-120480000D01*
G04 #@! TO.C,R4*
X103600000Y-118480000D02*
X102400000Y-118480000D01*
X102400000Y-116720000D02*
X103600000Y-116720000D01*
G04 #@! TO.C,R5*
X113380000Y-116400000D02*
X113380000Y-117600000D01*
X111620000Y-117600000D02*
X111620000Y-116400000D01*
G04 #@! TO.C,R6*
X123596000Y-127100000D02*
X123596000Y-125900000D01*
X125356000Y-125900000D02*
X125356000Y-127100000D01*
G04 #@! TO.C,R7*
X113380000Y-112300000D02*
X113380000Y-113500000D01*
X111620000Y-113500000D02*
X111620000Y-112300000D01*
G04 #@! TO.C,R8*
X103600000Y-111680000D02*
X102400000Y-111680000D01*
X102400000Y-109920000D02*
X103600000Y-109920000D01*
D11*
G04 #@! TO.C,U1*
X106125000Y-117175000D02*
X106175000Y-117175000D01*
X106125000Y-113025000D02*
X106270000Y-113025000D01*
X111275000Y-113025000D02*
X111130000Y-113025000D01*
X111275000Y-117175000D02*
X111130000Y-117175000D01*
X106125000Y-117175000D02*
X106125000Y-113025000D01*
X111275000Y-117175000D02*
X111275000Y-113025000D01*
X106175000Y-117175000D02*
X106175000Y-118575000D01*
G04 #@! TO.C,J1*
X146400000Y-140300000D02*
X146400000Y-142800000D01*
X146400000Y-142800000D02*
X142400000Y-142800000D01*
X142400000Y-142800000D02*
X142400000Y-140300000D01*
X149400000Y-140300000D02*
X139400000Y-140300000D01*
X139400000Y-149300000D02*
X149400000Y-149300000D01*
X149400000Y-149300000D02*
X149400000Y-140300000D01*
X139400000Y-149300000D02*
X139400000Y-140300000D01*
G04 #@! TO.C,J2*
X139400000Y-149300000D02*
X139400000Y-140300000D01*
X124400000Y-140300000D02*
X124400000Y-149300000D01*
X124400000Y-140300000D02*
X139400000Y-140300000D01*
X139400000Y-149300000D02*
X124400000Y-149300000D01*
G04 #@! TO.C,J5*
X124400000Y-140300000D02*
X124400000Y-149300000D01*
X114400000Y-140300000D02*
X114400000Y-149300000D01*
X124400000Y-140300000D02*
X114400000Y-140300000D01*
X114400000Y-149300000D02*
X124400000Y-149300000D01*
X121400000Y-146800000D02*
X121400000Y-149300000D01*
X117400000Y-146800000D02*
X121400000Y-146800000D01*
X117400000Y-149300000D02*
X117400000Y-146800000D01*
G04 #@! TO.C,J10*
X120832000Y-136112000D02*
X118332000Y-136112000D01*
X118332000Y-136112000D02*
X118332000Y-132112000D01*
X118332000Y-132112000D02*
X120832000Y-132112000D01*
X120832000Y-139112000D02*
X120832000Y-129112000D01*
X111832000Y-129112000D02*
X111832000Y-139112000D01*
X111832000Y-139112000D02*
X120832000Y-139112000D01*
X111832000Y-129112000D02*
X120832000Y-129112000D01*
G04 #@! TD*
D15*
G04 #@! TO.C,J1*
X198850000Y-94800000D02*
G75*
G03X198850000Y-94800000I-1950000J0D01*
G01*
X193850000Y-94800000D02*
G75*
G03X193850000Y-94800000I-1950000J0D01*
G01*
G04 #@! TD*
G04 #@! TO.C,J5*
X118850000Y-94800000D02*
G75*
G03X118850000Y-94800000I-1950000J0D01*
G01*
X123850000Y-94800000D02*
G75*
G03X123850000Y-94800000I-1950000J0D01*
G01*
G04 #@! TD*
G04 #@! TO.C,J5*
X173850000Y-94800000D02*
G75*
G03X173850000Y-94800000I-1950000J0D01*
G01*
X168850000Y-94800000D02*
G75*
G03X168850000Y-94800000I-1950000J0D01*
G01*
G04 #@! TD*
G04 #@! TO.C,J2*
X188850000Y-94800000D02*
G75*
G03X188850000Y-94800000I-1950000J0D01*
G01*
X183850000Y-94800000D02*
G75*
G03X183850000Y-94800000I-1950000J0D01*
G01*
X178850000Y-94800000D02*
G75*
G03X178850000Y-94800000I-1950000J0D01*
G01*
G04 #@! TD*
G04 #@! TO.C,J2*
X128850000Y-94800000D02*
G75*
G03X128850000Y-94800000I-1950000J0D01*
G01*
X133850000Y-94800000D02*
G75*
G03X133850000Y-94800000I-1950000J0D01*
G01*
X138850000Y-94800000D02*
G75*
G03X138850000Y-94800000I-1950000J0D01*
G01*
G04 #@! TD*
G04 #@! TO.C,J10*
X118282000Y-81612000D02*
G75*
G03X118282000Y-81612000I-1950000J0D01*
G01*
X118282000Y-86612000D02*
G75*
G03X118282000Y-86612000I-1950000J0D01*
G01*
G04 #@! TD*
G04 #@! TO.C,J10*
X168282000Y-86612000D02*
G75*
G03X168282000Y-86612000I-1950000J0D01*
G01*
X168282000Y-81612000D02*
G75*
G03X168282000Y-81612000I-1950000J0D01*
G01*
G04 #@! TD*
G04 #@! TO.C,J1*
X143850000Y-94800000D02*
G75*
G03X143850000Y-94800000I-1950000J0D01*
G01*
X148850000Y-94800000D02*
G75*
G03X148850000Y-94800000I-1950000J0D01*
G01*
G04 #@! TD*
G04 #@! TO.C,J5*
X168850000Y-144800000D02*
G75*
G03X168850000Y-144800000I-1950000J0D01*
G01*
X173850000Y-144800000D02*
G75*
G03X173850000Y-144800000I-1950000J0D01*
G01*
G04 #@! TD*
G04 #@! TO.C,J2*
X178850000Y-144800000D02*
G75*
G03X178850000Y-144800000I-1950000J0D01*
G01*
X183850000Y-144800000D02*
G75*
G03X183850000Y-144800000I-1950000J0D01*
G01*
X188850000Y-144800000D02*
G75*
G03X188850000Y-144800000I-1950000J0D01*
G01*
G04 #@! TD*
G04 #@! TO.C,J10*
X168282000Y-131612000D02*
G75*
G03X168282000Y-131612000I-1950000J0D01*
G01*
X168282000Y-136612000D02*
G75*
G03X168282000Y-136612000I-1950000J0D01*
G01*
G04 #@! TD*
G04 #@! TO.C,J1*
X193850000Y-144800000D02*
G75*
G03X193850000Y-144800000I-1950000J0D01*
G01*
X198850000Y-144800000D02*
G75*
G03X198850000Y-144800000I-1950000J0D01*
G01*
G04 #@! TD*
G04 #@! TO.C,J1*
X148850000Y-144800000D02*
G75*
G03X148850000Y-144800000I-1950000J0D01*
G01*
X143850000Y-144800000D02*
G75*
G03X143850000Y-144800000I-1950000J0D01*
G01*
G04 #@! TD*
G04 #@! TO.C,J2*
X138850000Y-144800000D02*
G75*
G03X138850000Y-144800000I-1950000J0D01*
G01*
X133850000Y-144800000D02*
G75*
G03X133850000Y-144800000I-1950000J0D01*
G01*
X128850000Y-144800000D02*
G75*
G03X128850000Y-144800000I-1950000J0D01*
G01*
G04 #@! TD*
G04 #@! TO.C,J5*
X123850000Y-144800000D02*
G75*
G03X123850000Y-144800000I-1950000J0D01*
G01*
X118850000Y-144800000D02*
G75*
G03X118850000Y-144800000I-1950000J0D01*
G01*
G04 #@! TD*
G04 #@! TO.C,J10*
X118282000Y-136612000D02*
G75*
G03X118282000Y-136612000I-1950000J0D01*
G01*
X118282000Y-131612000D02*
G75*
G03X118282000Y-131612000I-1950000J0D01*
G01*
G04 #@! TD*
G04 #@! TO.C,R6*
D11*
X123388380Y-76666666D02*
X122912190Y-77000000D01*
X123388380Y-77238095D02*
X122388380Y-77238095D01*
X122388380Y-76857142D01*
X122436000Y-76761904D01*
X122483619Y-76714285D01*
X122578857Y-76666666D01*
X122721714Y-76666666D01*
X122816952Y-76714285D01*
X122864571Y-76761904D01*
X122912190Y-76857142D01*
X122912190Y-77238095D01*
X122388380Y-75809523D02*
X122388380Y-76000000D01*
X122436000Y-76095238D01*
X122483619Y-76142857D01*
X122626476Y-76238095D01*
X122816952Y-76285714D01*
X123197904Y-76285714D01*
X123293142Y-76238095D01*
X123340761Y-76190476D01*
X123388380Y-76095238D01*
X123388380Y-75904761D01*
X123340761Y-75809523D01*
X123293142Y-75761904D01*
X123197904Y-75714285D01*
X122959809Y-75714285D01*
X122864571Y-75761904D01*
X122816952Y-75809523D01*
X122769333Y-75904761D01*
X122769333Y-76095238D01*
X122816952Y-76190476D01*
X122864571Y-76238095D01*
X122959809Y-76285714D01*
G04 #@! TO.C,D1*
X171181904Y-85580380D02*
X171181904Y-84580380D01*
X171420000Y-84580380D01*
X171562857Y-84628000D01*
X171658095Y-84723238D01*
X171705714Y-84818476D01*
X171753333Y-85008952D01*
X171753333Y-85151809D01*
X171705714Y-85342285D01*
X171658095Y-85437523D01*
X171562857Y-85532761D01*
X171420000Y-85580380D01*
X171181904Y-85580380D01*
X172705714Y-85580380D02*
X172134285Y-85580380D01*
X172420000Y-85580380D02*
X172420000Y-84580380D01*
X172324761Y-84723238D01*
X172229523Y-84818476D01*
X172134285Y-84866095D01*
G04 #@! TO.C,J4*
X105838666Y-54608380D02*
X105838666Y-55322666D01*
X105791047Y-55465523D01*
X105695809Y-55560761D01*
X105552952Y-55608380D01*
X105457714Y-55608380D01*
X106743428Y-54941714D02*
X106743428Y-55608380D01*
X106505333Y-54560761D02*
X106267238Y-55275047D01*
X106886285Y-55275047D01*
X155838666Y-54608380D02*
X155838666Y-55322666D01*
X155791047Y-55465523D01*
X155695809Y-55560761D01*
X155552952Y-55608380D01*
X155457714Y-55608380D01*
X156743428Y-54941714D02*
X156743428Y-55608380D01*
X156505333Y-54560761D02*
X156267238Y-55275047D01*
X156886285Y-55275047D01*
G04 #@! TO.C,K1*
D16*
X139743833Y-74002166D02*
X139743833Y-73113166D01*
X140251833Y-74002166D02*
X139870833Y-73494166D01*
X140251833Y-73113166D02*
X139743833Y-73621166D01*
X141098500Y-74002166D02*
X140590500Y-74002166D01*
X140844500Y-74002166D02*
X140844500Y-73113166D01*
X140759833Y-73240166D01*
X140675166Y-73324833D01*
X140590500Y-73367166D01*
G04 #@! TO.C,C1*
D11*
X155513142Y-61926666D02*
X155560761Y-61974285D01*
X155608380Y-62117142D01*
X155608380Y-62212380D01*
X155560761Y-62355238D01*
X155465523Y-62450476D01*
X155370285Y-62498095D01*
X155179809Y-62545714D01*
X155036952Y-62545714D01*
X154846476Y-62498095D01*
X154751238Y-62450476D01*
X154656000Y-62355238D01*
X154608380Y-62212380D01*
X154608380Y-62117142D01*
X154656000Y-61974285D01*
X154703619Y-61926666D01*
X155608380Y-60974285D02*
X155608380Y-61545714D01*
X155608380Y-61260000D02*
X154608380Y-61260000D01*
X154751238Y-61355238D01*
X154846476Y-61450476D01*
X154894095Y-61545714D01*
G04 #@! TO.C,R3*
X105497333Y-70340380D02*
X105164000Y-69864190D01*
X104925904Y-70340380D02*
X104925904Y-69340380D01*
X105306857Y-69340380D01*
X105402095Y-69388000D01*
X105449714Y-69435619D01*
X105497333Y-69530857D01*
X105497333Y-69673714D01*
X105449714Y-69768952D01*
X105402095Y-69816571D01*
X105306857Y-69864190D01*
X104925904Y-69864190D01*
X105830666Y-69340380D02*
X106449714Y-69340380D01*
X106116380Y-69721333D01*
X106259238Y-69721333D01*
X106354476Y-69768952D01*
X106402095Y-69816571D01*
X106449714Y-69911809D01*
X106449714Y-70149904D01*
X106402095Y-70245142D01*
X106354476Y-70292761D01*
X106259238Y-70340380D01*
X105973523Y-70340380D01*
X105878285Y-70292761D01*
X105830666Y-70245142D01*
G04 #@! TO.C,R7*
X163228380Y-60402666D02*
X162752190Y-60736000D01*
X163228380Y-60974095D02*
X162228380Y-60974095D01*
X162228380Y-60593142D01*
X162276000Y-60497904D01*
X162323619Y-60450285D01*
X162418857Y-60402666D01*
X162561714Y-60402666D01*
X162656952Y-60450285D01*
X162704571Y-60497904D01*
X162752190Y-60593142D01*
X162752190Y-60974095D01*
X162228380Y-60069333D02*
X162228380Y-59402666D01*
X163228380Y-59831238D01*
G04 #@! TO.C,K1*
D16*
X189743833Y-74002166D02*
X189743833Y-73113166D01*
X190251833Y-74002166D02*
X189870833Y-73494166D01*
X190251833Y-73113166D02*
X189743833Y-73621166D01*
X191098500Y-74002166D02*
X190590500Y-74002166D01*
X190844500Y-74002166D02*
X190844500Y-73113166D01*
X190759833Y-73240166D01*
X190675166Y-73324833D01*
X190590500Y-73367166D01*
G04 #@! TO.C,R6*
D11*
X173388380Y-76666666D02*
X172912190Y-77000000D01*
X173388380Y-77238095D02*
X172388380Y-77238095D01*
X172388380Y-76857142D01*
X172436000Y-76761904D01*
X172483619Y-76714285D01*
X172578857Y-76666666D01*
X172721714Y-76666666D01*
X172816952Y-76714285D01*
X172864571Y-76761904D01*
X172912190Y-76857142D01*
X172912190Y-77238095D01*
X172388380Y-75809523D02*
X172388380Y-76000000D01*
X172436000Y-76095238D01*
X172483619Y-76142857D01*
X172626476Y-76238095D01*
X172816952Y-76285714D01*
X173197904Y-76285714D01*
X173293142Y-76238095D01*
X173340761Y-76190476D01*
X173388380Y-76095238D01*
X173388380Y-75904761D01*
X173340761Y-75809523D01*
X173293142Y-75761904D01*
X173197904Y-75714285D01*
X172959809Y-75714285D01*
X172864571Y-75761904D01*
X172816952Y-75809523D01*
X172769333Y-75904761D01*
X172769333Y-76095238D01*
X172816952Y-76190476D01*
X172864571Y-76238095D01*
X172959809Y-76285714D01*
G04 #@! TO.C,J3*
X119046666Y-54608380D02*
X119046666Y-55322666D01*
X118999047Y-55465523D01*
X118903809Y-55560761D01*
X118760952Y-55608380D01*
X118665714Y-55608380D01*
X119427619Y-54608380D02*
X120046666Y-54608380D01*
X119713333Y-54989333D01*
X119856190Y-54989333D01*
X119951428Y-55036952D01*
X119999047Y-55084571D01*
X120046666Y-55179809D01*
X120046666Y-55417904D01*
X119999047Y-55513142D01*
X119951428Y-55560761D01*
X119856190Y-55608380D01*
X119570476Y-55608380D01*
X119475238Y-55560761D01*
X119427619Y-55513142D01*
G04 #@! TO.C,J8*
X158378666Y-77976380D02*
X158378666Y-78690666D01*
X158331047Y-78833523D01*
X158235809Y-78928761D01*
X158092952Y-78976380D01*
X157997714Y-78976380D01*
X158997714Y-78404952D02*
X158902476Y-78357333D01*
X158854857Y-78309714D01*
X158807238Y-78214476D01*
X158807238Y-78166857D01*
X158854857Y-78071619D01*
X158902476Y-78024000D01*
X158997714Y-77976380D01*
X159188190Y-77976380D01*
X159283428Y-78024000D01*
X159331047Y-78071619D01*
X159378666Y-78166857D01*
X159378666Y-78214476D01*
X159331047Y-78309714D01*
X159283428Y-78357333D01*
X159188190Y-78404952D01*
X158997714Y-78404952D01*
X158902476Y-78452571D01*
X158854857Y-78500190D01*
X158807238Y-78595428D01*
X158807238Y-78785904D01*
X158854857Y-78881142D01*
X158902476Y-78928761D01*
X158997714Y-78976380D01*
X159188190Y-78976380D01*
X159283428Y-78928761D01*
X159331047Y-78881142D01*
X159378666Y-78785904D01*
X159378666Y-78595428D01*
X159331047Y-78500190D01*
X159283428Y-78452571D01*
X159188190Y-78404952D01*
G04 #@! TO.C,PS1*
X135945714Y-55100380D02*
X135945714Y-54100380D01*
X136326666Y-54100380D01*
X136421904Y-54148000D01*
X136469523Y-54195619D01*
X136517142Y-54290857D01*
X136517142Y-54433714D01*
X136469523Y-54528952D01*
X136421904Y-54576571D01*
X136326666Y-54624190D01*
X135945714Y-54624190D01*
X136898095Y-55052761D02*
X137040952Y-55100380D01*
X137279047Y-55100380D01*
X137374285Y-55052761D01*
X137421904Y-55005142D01*
X137469523Y-54909904D01*
X137469523Y-54814666D01*
X137421904Y-54719428D01*
X137374285Y-54671809D01*
X137279047Y-54624190D01*
X137088571Y-54576571D01*
X136993333Y-54528952D01*
X136945714Y-54481333D01*
X136898095Y-54386095D01*
X136898095Y-54290857D01*
X136945714Y-54195619D01*
X136993333Y-54148000D01*
X137088571Y-54100380D01*
X137326666Y-54100380D01*
X137469523Y-54148000D01*
X138421904Y-55100380D02*
X137850476Y-55100380D01*
X138136190Y-55100380D02*
X138136190Y-54100380D01*
X138040952Y-54243238D01*
X137945714Y-54338476D01*
X137850476Y-54386095D01*
G04 #@! TO.C,Q1*
X129952761Y-85167619D02*
X129857523Y-85120000D01*
X129762285Y-85024761D01*
X129619428Y-84881904D01*
X129524190Y-84834285D01*
X129428952Y-84834285D01*
X129476571Y-85072380D02*
X129381333Y-85024761D01*
X129286095Y-84929523D01*
X129238476Y-84739047D01*
X129238476Y-84405714D01*
X129286095Y-84215238D01*
X129381333Y-84120000D01*
X129476571Y-84072380D01*
X129667047Y-84072380D01*
X129762285Y-84120000D01*
X129857523Y-84215238D01*
X129905142Y-84405714D01*
X129905142Y-84739047D01*
X129857523Y-84929523D01*
X129762285Y-85024761D01*
X129667047Y-85072380D01*
X129476571Y-85072380D01*
X130857523Y-85072380D02*
X130286095Y-85072380D01*
X130571809Y-85072380D02*
X130571809Y-84072380D01*
X130476571Y-84215238D01*
X130381333Y-84310476D01*
X130286095Y-84358095D01*
G04 #@! TO.C,R7*
X113228380Y-60402666D02*
X112752190Y-60736000D01*
X113228380Y-60974095D02*
X112228380Y-60974095D01*
X112228380Y-60593142D01*
X112276000Y-60497904D01*
X112323619Y-60450285D01*
X112418857Y-60402666D01*
X112561714Y-60402666D01*
X112656952Y-60450285D01*
X112704571Y-60497904D01*
X112752190Y-60593142D01*
X112752190Y-60974095D01*
X112228380Y-60069333D02*
X112228380Y-59402666D01*
X113228380Y-59831238D01*
G04 #@! TO.C,Q2*
X179952761Y-78055619D02*
X179857523Y-78008000D01*
X179762285Y-77912761D01*
X179619428Y-77769904D01*
X179524190Y-77722285D01*
X179428952Y-77722285D01*
X179476571Y-77960380D02*
X179381333Y-77912761D01*
X179286095Y-77817523D01*
X179238476Y-77627047D01*
X179238476Y-77293714D01*
X179286095Y-77103238D01*
X179381333Y-77008000D01*
X179476571Y-76960380D01*
X179667047Y-76960380D01*
X179762285Y-77008000D01*
X179857523Y-77103238D01*
X179905142Y-77293714D01*
X179905142Y-77627047D01*
X179857523Y-77817523D01*
X179762285Y-77912761D01*
X179667047Y-77960380D01*
X179476571Y-77960380D01*
X180286095Y-77055619D02*
X180333714Y-77008000D01*
X180428952Y-76960380D01*
X180667047Y-76960380D01*
X180762285Y-77008000D01*
X180809904Y-77055619D01*
X180857523Y-77150857D01*
X180857523Y-77246095D01*
X180809904Y-77388952D01*
X180238476Y-77960380D01*
X180857523Y-77960380D01*
G04 #@! TO.C,D1*
X121181904Y-85580380D02*
X121181904Y-84580380D01*
X121420000Y-84580380D01*
X121562857Y-84628000D01*
X121658095Y-84723238D01*
X121705714Y-84818476D01*
X121753333Y-85008952D01*
X121753333Y-85151809D01*
X121705714Y-85342285D01*
X121658095Y-85437523D01*
X121562857Y-85532761D01*
X121420000Y-85580380D01*
X121181904Y-85580380D01*
X122705714Y-85580380D02*
X122134285Y-85580380D01*
X122420000Y-85580380D02*
X122420000Y-84580380D01*
X122324761Y-84723238D01*
X122229523Y-84818476D01*
X122134285Y-84866095D01*
G04 #@! TO.C,R4*
X102449333Y-66276380D02*
X102116000Y-65800190D01*
X101877904Y-66276380D02*
X101877904Y-65276380D01*
X102258857Y-65276380D01*
X102354095Y-65324000D01*
X102401714Y-65371619D01*
X102449333Y-65466857D01*
X102449333Y-65609714D01*
X102401714Y-65704952D01*
X102354095Y-65752571D01*
X102258857Y-65800190D01*
X101877904Y-65800190D01*
X103306476Y-65609714D02*
X103306476Y-66276380D01*
X103068380Y-65228761D02*
X102830285Y-65943047D01*
X103449333Y-65943047D01*
G04 #@! TO.C,J9*
X102282666Y-76452380D02*
X102282666Y-77166666D01*
X102235047Y-77309523D01*
X102139809Y-77404761D01*
X101996952Y-77452380D01*
X101901714Y-77452380D01*
X102806476Y-77452380D02*
X102996952Y-77452380D01*
X103092190Y-77404761D01*
X103139809Y-77357142D01*
X103235047Y-77214285D01*
X103282666Y-77023809D01*
X103282666Y-76642857D01*
X103235047Y-76547619D01*
X103187428Y-76500000D01*
X103092190Y-76452380D01*
X102901714Y-76452380D01*
X102806476Y-76500000D01*
X102758857Y-76547619D01*
X102711238Y-76642857D01*
X102711238Y-76880952D01*
X102758857Y-76976190D01*
X102806476Y-77023809D01*
X102901714Y-77071428D01*
X103092190Y-77071428D01*
X103187428Y-77023809D01*
X103235047Y-76976190D01*
X103282666Y-76880952D01*
G04 #@! TO.C,J3*
X169046666Y-54608380D02*
X169046666Y-55322666D01*
X168999047Y-55465523D01*
X168903809Y-55560761D01*
X168760952Y-55608380D01*
X168665714Y-55608380D01*
X169427619Y-54608380D02*
X170046666Y-54608380D01*
X169713333Y-54989333D01*
X169856190Y-54989333D01*
X169951428Y-55036952D01*
X169999047Y-55084571D01*
X170046666Y-55179809D01*
X170046666Y-55417904D01*
X169999047Y-55513142D01*
X169951428Y-55560761D01*
X169856190Y-55608380D01*
X169570476Y-55608380D01*
X169475238Y-55560761D01*
X169427619Y-55513142D01*
G04 #@! TO.C,R8*
X155497333Y-60688380D02*
X155164000Y-60212190D01*
X154925904Y-60688380D02*
X154925904Y-59688380D01*
X155306857Y-59688380D01*
X155402095Y-59736000D01*
X155449714Y-59783619D01*
X155497333Y-59878857D01*
X155497333Y-60021714D01*
X155449714Y-60116952D01*
X155402095Y-60164571D01*
X155306857Y-60212190D01*
X154925904Y-60212190D01*
X156068761Y-60116952D02*
X155973523Y-60069333D01*
X155925904Y-60021714D01*
X155878285Y-59926476D01*
X155878285Y-59878857D01*
X155925904Y-59783619D01*
X155973523Y-59736000D01*
X156068761Y-59688380D01*
X156259238Y-59688380D01*
X156354476Y-59736000D01*
X156402095Y-59783619D01*
X156449714Y-59878857D01*
X156449714Y-59926476D01*
X156402095Y-60021714D01*
X156354476Y-60069333D01*
X156259238Y-60116952D01*
X156068761Y-60116952D01*
X155973523Y-60164571D01*
X155925904Y-60212190D01*
X155878285Y-60307428D01*
X155878285Y-60497904D01*
X155925904Y-60593142D01*
X155973523Y-60640761D01*
X156068761Y-60688380D01*
X156259238Y-60688380D01*
X156354476Y-60640761D01*
X156402095Y-60593142D01*
X156449714Y-60497904D01*
X156449714Y-60307428D01*
X156402095Y-60212190D01*
X156354476Y-60164571D01*
X156259238Y-60116952D01*
G04 #@! TO.C,K2*
D16*
X189843833Y-58302166D02*
X189843833Y-57413166D01*
X190351833Y-58302166D02*
X189970833Y-57794166D01*
X190351833Y-57413166D02*
X189843833Y-57921166D01*
X190690500Y-57497833D02*
X190732833Y-57455500D01*
X190817500Y-57413166D01*
X191029166Y-57413166D01*
X191113833Y-57455500D01*
X191156166Y-57497833D01*
X191198500Y-57582500D01*
X191198500Y-57667166D01*
X191156166Y-57794166D01*
X190648166Y-58302166D01*
X191198500Y-58302166D01*
G04 #@! TO.C,C1*
D11*
X105513142Y-61926666D02*
X105560761Y-61974285D01*
X105608380Y-62117142D01*
X105608380Y-62212380D01*
X105560761Y-62355238D01*
X105465523Y-62450476D01*
X105370285Y-62498095D01*
X105179809Y-62545714D01*
X105036952Y-62545714D01*
X104846476Y-62498095D01*
X104751238Y-62450476D01*
X104656000Y-62355238D01*
X104608380Y-62212380D01*
X104608380Y-62117142D01*
X104656000Y-61974285D01*
X104703619Y-61926666D01*
X105608380Y-60974285D02*
X105608380Y-61545714D01*
X105608380Y-61260000D02*
X104608380Y-61260000D01*
X104751238Y-61355238D01*
X104846476Y-61450476D01*
X104894095Y-61545714D01*
G04 #@! TO.C,REF\002A\002A*
X138539666Y-73737380D02*
X138206333Y-73261190D01*
X137968238Y-73737380D02*
X137968238Y-72737380D01*
X138349190Y-72737380D01*
X138444428Y-72785000D01*
X138492047Y-72832619D01*
X138539666Y-72927857D01*
X138539666Y-73070714D01*
X138492047Y-73165952D01*
X138444428Y-73213571D01*
X138349190Y-73261190D01*
X137968238Y-73261190D01*
X138968238Y-73213571D02*
X139301571Y-73213571D01*
X139444428Y-73737380D02*
X138968238Y-73737380D01*
X138968238Y-72737380D01*
X139444428Y-72737380D01*
X140206333Y-73213571D02*
X139873000Y-73213571D01*
X139873000Y-73737380D02*
X139873000Y-72737380D01*
X140349190Y-72737380D01*
X140873000Y-72737380D02*
X140873000Y-72975476D01*
X140634904Y-72880238D02*
X140873000Y-72975476D01*
X141111095Y-72880238D01*
X140730142Y-73165952D02*
X140873000Y-72975476D01*
X141015857Y-73165952D01*
X141634904Y-72737380D02*
X141634904Y-72975476D01*
X141396809Y-72880238D02*
X141634904Y-72975476D01*
X141873000Y-72880238D01*
X141492047Y-73165952D02*
X141634904Y-72975476D01*
X141777761Y-73165952D01*
G04 #@! TO.C,PS1*
X185945714Y-55100380D02*
X185945714Y-54100380D01*
X186326666Y-54100380D01*
X186421904Y-54148000D01*
X186469523Y-54195619D01*
X186517142Y-54290857D01*
X186517142Y-54433714D01*
X186469523Y-54528952D01*
X186421904Y-54576571D01*
X186326666Y-54624190D01*
X185945714Y-54624190D01*
X186898095Y-55052761D02*
X187040952Y-55100380D01*
X187279047Y-55100380D01*
X187374285Y-55052761D01*
X187421904Y-55005142D01*
X187469523Y-54909904D01*
X187469523Y-54814666D01*
X187421904Y-54719428D01*
X187374285Y-54671809D01*
X187279047Y-54624190D01*
X187088571Y-54576571D01*
X186993333Y-54528952D01*
X186945714Y-54481333D01*
X186898095Y-54386095D01*
X186898095Y-54290857D01*
X186945714Y-54195619D01*
X186993333Y-54148000D01*
X187088571Y-54100380D01*
X187326666Y-54100380D01*
X187469523Y-54148000D01*
X188421904Y-55100380D02*
X187850476Y-55100380D01*
X188136190Y-55100380D02*
X188136190Y-54100380D01*
X188040952Y-54243238D01*
X187945714Y-54338476D01*
X187850476Y-54386095D01*
G04 #@! TO.C,J9*
X152282666Y-76452380D02*
X152282666Y-77166666D01*
X152235047Y-77309523D01*
X152139809Y-77404761D01*
X151996952Y-77452380D01*
X151901714Y-77452380D01*
X152806476Y-77452380D02*
X152996952Y-77452380D01*
X153092190Y-77404761D01*
X153139809Y-77357142D01*
X153235047Y-77214285D01*
X153282666Y-77023809D01*
X153282666Y-76642857D01*
X153235047Y-76547619D01*
X153187428Y-76500000D01*
X153092190Y-76452380D01*
X152901714Y-76452380D01*
X152806476Y-76500000D01*
X152758857Y-76547619D01*
X152711238Y-76642857D01*
X152711238Y-76880952D01*
X152758857Y-76976190D01*
X152806476Y-77023809D01*
X152901714Y-77071428D01*
X153092190Y-77071428D01*
X153187428Y-77023809D01*
X153235047Y-76976190D01*
X153282666Y-76880952D01*
G04 #@! TO.C,R1*
X165768380Y-70054666D02*
X165292190Y-70388000D01*
X165768380Y-70626095D02*
X164768380Y-70626095D01*
X164768380Y-70245142D01*
X164816000Y-70149904D01*
X164863619Y-70102285D01*
X164958857Y-70054666D01*
X165101714Y-70054666D01*
X165196952Y-70102285D01*
X165244571Y-70149904D01*
X165292190Y-70245142D01*
X165292190Y-70626095D01*
X165768380Y-69102285D02*
X165768380Y-69673714D01*
X165768380Y-69388000D02*
X164768380Y-69388000D01*
X164911238Y-69483238D01*
X165006476Y-69578476D01*
X165054095Y-69673714D01*
G04 #@! TO.C,R8*
X105497333Y-60688380D02*
X105164000Y-60212190D01*
X104925904Y-60688380D02*
X104925904Y-59688380D01*
X105306857Y-59688380D01*
X105402095Y-59736000D01*
X105449714Y-59783619D01*
X105497333Y-59878857D01*
X105497333Y-60021714D01*
X105449714Y-60116952D01*
X105402095Y-60164571D01*
X105306857Y-60212190D01*
X104925904Y-60212190D01*
X106068761Y-60116952D02*
X105973523Y-60069333D01*
X105925904Y-60021714D01*
X105878285Y-59926476D01*
X105878285Y-59878857D01*
X105925904Y-59783619D01*
X105973523Y-59736000D01*
X106068761Y-59688380D01*
X106259238Y-59688380D01*
X106354476Y-59736000D01*
X106402095Y-59783619D01*
X106449714Y-59878857D01*
X106449714Y-59926476D01*
X106402095Y-60021714D01*
X106354476Y-60069333D01*
X106259238Y-60116952D01*
X106068761Y-60116952D01*
X105973523Y-60164571D01*
X105925904Y-60212190D01*
X105878285Y-60307428D01*
X105878285Y-60497904D01*
X105925904Y-60593142D01*
X105973523Y-60640761D01*
X106068761Y-60688380D01*
X106259238Y-60688380D01*
X106354476Y-60640761D01*
X106402095Y-60593142D01*
X106449714Y-60497904D01*
X106449714Y-60307428D01*
X106402095Y-60212190D01*
X106354476Y-60164571D01*
X106259238Y-60116952D01*
G04 #@! TO.C,U1*
X157950095Y-60196380D02*
X157950095Y-61005904D01*
X157997714Y-61101142D01*
X158045333Y-61148761D01*
X158140571Y-61196380D01*
X158331047Y-61196380D01*
X158426285Y-61148761D01*
X158473904Y-61101142D01*
X158521523Y-61005904D01*
X158521523Y-60196380D01*
X159521523Y-61196380D02*
X158950095Y-61196380D01*
X159235809Y-61196380D02*
X159235809Y-60196380D01*
X159140571Y-60339238D01*
X159045333Y-60434476D01*
X158950095Y-60482095D01*
G04 #@! TO.C,M1*
X178976380Y-60029523D02*
X177976380Y-60029523D01*
X178690666Y-59696190D01*
X177976380Y-59362857D01*
X178976380Y-59362857D01*
X178976380Y-58362857D02*
X178976380Y-58934285D01*
X178976380Y-58648571D02*
X177976380Y-58648571D01*
X178119238Y-58743809D01*
X178214476Y-58839047D01*
X178262095Y-58934285D01*
G04 #@! TO.C,K2*
D16*
X139843833Y-58302166D02*
X139843833Y-57413166D01*
X140351833Y-58302166D02*
X139970833Y-57794166D01*
X140351833Y-57413166D02*
X139843833Y-57921166D01*
X140690500Y-57497833D02*
X140732833Y-57455500D01*
X140817500Y-57413166D01*
X141029166Y-57413166D01*
X141113833Y-57455500D01*
X141156166Y-57497833D01*
X141198500Y-57582500D01*
X141198500Y-57667166D01*
X141156166Y-57794166D01*
X140648166Y-58302166D01*
X141198500Y-58302166D01*
G04 #@! TO.C,R5*
D11*
X162720380Y-70054666D02*
X162244190Y-70388000D01*
X162720380Y-70626095D02*
X161720380Y-70626095D01*
X161720380Y-70245142D01*
X161768000Y-70149904D01*
X161815619Y-70102285D01*
X161910857Y-70054666D01*
X162053714Y-70054666D01*
X162148952Y-70102285D01*
X162196571Y-70149904D01*
X162244190Y-70245142D01*
X162244190Y-70626095D01*
X161720380Y-69149904D02*
X161720380Y-69626095D01*
X162196571Y-69673714D01*
X162148952Y-69626095D01*
X162101333Y-69530857D01*
X162101333Y-69292761D01*
X162148952Y-69197523D01*
X162196571Y-69149904D01*
X162291809Y-69102285D01*
X162529904Y-69102285D01*
X162625142Y-69149904D01*
X162672761Y-69197523D01*
X162720380Y-69292761D01*
X162720380Y-69530857D01*
X162672761Y-69626095D01*
X162625142Y-69673714D01*
G04 #@! TO.C,R3*
X155497333Y-70340380D02*
X155164000Y-69864190D01*
X154925904Y-70340380D02*
X154925904Y-69340380D01*
X155306857Y-69340380D01*
X155402095Y-69388000D01*
X155449714Y-69435619D01*
X155497333Y-69530857D01*
X155497333Y-69673714D01*
X155449714Y-69768952D01*
X155402095Y-69816571D01*
X155306857Y-69864190D01*
X154925904Y-69864190D01*
X155830666Y-69340380D02*
X156449714Y-69340380D01*
X156116380Y-69721333D01*
X156259238Y-69721333D01*
X156354476Y-69768952D01*
X156402095Y-69816571D01*
X156449714Y-69911809D01*
X156449714Y-70149904D01*
X156402095Y-70245142D01*
X156354476Y-70292761D01*
X156259238Y-70340380D01*
X155973523Y-70340380D01*
X155878285Y-70292761D01*
X155830666Y-70245142D01*
G04 #@! TO.C,D2*
X171689904Y-78468380D02*
X171689904Y-77468380D01*
X171928000Y-77468380D01*
X172070857Y-77516000D01*
X172166095Y-77611238D01*
X172213714Y-77706476D01*
X172261333Y-77896952D01*
X172261333Y-78039809D01*
X172213714Y-78230285D01*
X172166095Y-78325523D01*
X172070857Y-78420761D01*
X171928000Y-78468380D01*
X171689904Y-78468380D01*
X172642285Y-77563619D02*
X172689904Y-77516000D01*
X172785142Y-77468380D01*
X173023238Y-77468380D01*
X173118476Y-77516000D01*
X173166095Y-77563619D01*
X173213714Y-77658857D01*
X173213714Y-77754095D01*
X173166095Y-77896952D01*
X172594666Y-78468380D01*
X173213714Y-78468380D01*
G04 #@! TO.C,REF\002A\002A*
X188539666Y-73737380D02*
X188206333Y-73261190D01*
X187968238Y-73737380D02*
X187968238Y-72737380D01*
X188349190Y-72737380D01*
X188444428Y-72785000D01*
X188492047Y-72832619D01*
X188539666Y-72927857D01*
X188539666Y-73070714D01*
X188492047Y-73165952D01*
X188444428Y-73213571D01*
X188349190Y-73261190D01*
X187968238Y-73261190D01*
X188968238Y-73213571D02*
X189301571Y-73213571D01*
X189444428Y-73737380D02*
X188968238Y-73737380D01*
X188968238Y-72737380D01*
X189444428Y-72737380D01*
X190206333Y-73213571D02*
X189873000Y-73213571D01*
X189873000Y-73737380D02*
X189873000Y-72737380D01*
X190349190Y-72737380D01*
X190873000Y-72737380D02*
X190873000Y-72975476D01*
X190634904Y-72880238D02*
X190873000Y-72975476D01*
X191111095Y-72880238D01*
X190730142Y-73165952D02*
X190873000Y-72975476D01*
X191015857Y-73165952D01*
X191634904Y-72737380D02*
X191634904Y-72975476D01*
X191396809Y-72880238D02*
X191634904Y-72975476D01*
X191873000Y-72880238D01*
X191492047Y-73165952D02*
X191634904Y-72975476D01*
X191777761Y-73165952D01*
G04 #@! TO.C,R4*
X152449333Y-66276380D02*
X152116000Y-65800190D01*
X151877904Y-66276380D02*
X151877904Y-65276380D01*
X152258857Y-65276380D01*
X152354095Y-65324000D01*
X152401714Y-65371619D01*
X152449333Y-65466857D01*
X152449333Y-65609714D01*
X152401714Y-65704952D01*
X152354095Y-65752571D01*
X152258857Y-65800190D01*
X151877904Y-65800190D01*
X153306476Y-65609714D02*
X153306476Y-66276380D01*
X153068380Y-65228761D02*
X152830285Y-65943047D01*
X153449333Y-65943047D01*
G04 #@! TO.C,Q2*
X129952761Y-78055619D02*
X129857523Y-78008000D01*
X129762285Y-77912761D01*
X129619428Y-77769904D01*
X129524190Y-77722285D01*
X129428952Y-77722285D01*
X129476571Y-77960380D02*
X129381333Y-77912761D01*
X129286095Y-77817523D01*
X129238476Y-77627047D01*
X129238476Y-77293714D01*
X129286095Y-77103238D01*
X129381333Y-77008000D01*
X129476571Y-76960380D01*
X129667047Y-76960380D01*
X129762285Y-77008000D01*
X129857523Y-77103238D01*
X129905142Y-77293714D01*
X129905142Y-77627047D01*
X129857523Y-77817523D01*
X129762285Y-77912761D01*
X129667047Y-77960380D01*
X129476571Y-77960380D01*
X130286095Y-77055619D02*
X130333714Y-77008000D01*
X130428952Y-76960380D01*
X130667047Y-76960380D01*
X130762285Y-77008000D01*
X130809904Y-77055619D01*
X130857523Y-77150857D01*
X130857523Y-77246095D01*
X130809904Y-77388952D01*
X130238476Y-77960380D01*
X130857523Y-77960380D01*
G04 #@! TO.C,J7*
X158378666Y-76452380D02*
X158378666Y-77166666D01*
X158331047Y-77309523D01*
X158235809Y-77404761D01*
X158092952Y-77452380D01*
X157997714Y-77452380D01*
X158759619Y-76452380D02*
X159426285Y-76452380D01*
X158997714Y-77452380D01*
G04 #@! TO.C,Q1*
X179952761Y-85167619D02*
X179857523Y-85120000D01*
X179762285Y-85024761D01*
X179619428Y-84881904D01*
X179524190Y-84834285D01*
X179428952Y-84834285D01*
X179476571Y-85072380D02*
X179381333Y-85024761D01*
X179286095Y-84929523D01*
X179238476Y-84739047D01*
X179238476Y-84405714D01*
X179286095Y-84215238D01*
X179381333Y-84120000D01*
X179476571Y-84072380D01*
X179667047Y-84072380D01*
X179762285Y-84120000D01*
X179857523Y-84215238D01*
X179905142Y-84405714D01*
X179905142Y-84739047D01*
X179857523Y-84929523D01*
X179762285Y-85024761D01*
X179667047Y-85072380D01*
X179476571Y-85072380D01*
X180857523Y-85072380D02*
X180286095Y-85072380D01*
X180571809Y-85072380D02*
X180571809Y-84072380D01*
X180476571Y-84215238D01*
X180381333Y-84310476D01*
X180286095Y-84358095D01*
G04 #@! TO.C,U1*
X107950095Y-60196380D02*
X107950095Y-61005904D01*
X107997714Y-61101142D01*
X108045333Y-61148761D01*
X108140571Y-61196380D01*
X108331047Y-61196380D01*
X108426285Y-61148761D01*
X108473904Y-61101142D01*
X108521523Y-61005904D01*
X108521523Y-60196380D01*
X109521523Y-61196380D02*
X108950095Y-61196380D01*
X109235809Y-61196380D02*
X109235809Y-60196380D01*
X109140571Y-60339238D01*
X109045333Y-60434476D01*
X108950095Y-60482095D01*
G04 #@! TO.C,J6*
X102282666Y-77976380D02*
X102282666Y-78690666D01*
X102235047Y-78833523D01*
X102139809Y-78928761D01*
X101996952Y-78976380D01*
X101901714Y-78976380D01*
X103187428Y-77976380D02*
X102996952Y-77976380D01*
X102901714Y-78024000D01*
X102854095Y-78071619D01*
X102758857Y-78214476D01*
X102711238Y-78404952D01*
X102711238Y-78785904D01*
X102758857Y-78881142D01*
X102806476Y-78928761D01*
X102901714Y-78976380D01*
X103092190Y-78976380D01*
X103187428Y-78928761D01*
X103235047Y-78881142D01*
X103282666Y-78785904D01*
X103282666Y-78547809D01*
X103235047Y-78452571D01*
X103187428Y-78404952D01*
X103092190Y-78357333D01*
X102901714Y-78357333D01*
X102806476Y-78404952D01*
X102758857Y-78452571D01*
X102711238Y-78547809D01*
G04 #@! TO.C,R1*
X115768380Y-70054666D02*
X115292190Y-70388000D01*
X115768380Y-70626095D02*
X114768380Y-70626095D01*
X114768380Y-70245142D01*
X114816000Y-70149904D01*
X114863619Y-70102285D01*
X114958857Y-70054666D01*
X115101714Y-70054666D01*
X115196952Y-70102285D01*
X115244571Y-70149904D01*
X115292190Y-70245142D01*
X115292190Y-70626095D01*
X115768380Y-69102285D02*
X115768380Y-69673714D01*
X115768380Y-69388000D02*
X114768380Y-69388000D01*
X114911238Y-69483238D01*
X115006476Y-69578476D01*
X115054095Y-69673714D01*
G04 #@! TO.C,R5*
X112720380Y-70054666D02*
X112244190Y-70388000D01*
X112720380Y-70626095D02*
X111720380Y-70626095D01*
X111720380Y-70245142D01*
X111768000Y-70149904D01*
X111815619Y-70102285D01*
X111910857Y-70054666D01*
X112053714Y-70054666D01*
X112148952Y-70102285D01*
X112196571Y-70149904D01*
X112244190Y-70245142D01*
X112244190Y-70626095D01*
X111720380Y-69149904D02*
X111720380Y-69626095D01*
X112196571Y-69673714D01*
X112148952Y-69626095D01*
X112101333Y-69530857D01*
X112101333Y-69292761D01*
X112148952Y-69197523D01*
X112196571Y-69149904D01*
X112291809Y-69102285D01*
X112529904Y-69102285D01*
X112625142Y-69149904D01*
X112672761Y-69197523D01*
X112720380Y-69292761D01*
X112720380Y-69530857D01*
X112672761Y-69626095D01*
X112625142Y-69673714D01*
G04 #@! TO.C,D2*
X121689904Y-78468380D02*
X121689904Y-77468380D01*
X121928000Y-77468380D01*
X122070857Y-77516000D01*
X122166095Y-77611238D01*
X122213714Y-77706476D01*
X122261333Y-77896952D01*
X122261333Y-78039809D01*
X122213714Y-78230285D01*
X122166095Y-78325523D01*
X122070857Y-78420761D01*
X121928000Y-78468380D01*
X121689904Y-78468380D01*
X122642285Y-77563619D02*
X122689904Y-77516000D01*
X122785142Y-77468380D01*
X123023238Y-77468380D01*
X123118476Y-77516000D01*
X123166095Y-77563619D01*
X123213714Y-77658857D01*
X123213714Y-77754095D01*
X123166095Y-77896952D01*
X122594666Y-78468380D01*
X123213714Y-78468380D01*
G04 #@! TO.C,R2*
X172880380Y-83262666D02*
X172404190Y-83596000D01*
X172880380Y-83834095D02*
X171880380Y-83834095D01*
X171880380Y-83453142D01*
X171928000Y-83357904D01*
X171975619Y-83310285D01*
X172070857Y-83262666D01*
X172213714Y-83262666D01*
X172308952Y-83310285D01*
X172356571Y-83357904D01*
X172404190Y-83453142D01*
X172404190Y-83834095D01*
X171975619Y-82881714D02*
X171928000Y-82834095D01*
X171880380Y-82738857D01*
X171880380Y-82500761D01*
X171928000Y-82405523D01*
X171975619Y-82357904D01*
X172070857Y-82310285D01*
X172166095Y-82310285D01*
X172308952Y-82357904D01*
X172880380Y-82929333D01*
X172880380Y-82310285D01*
G04 #@! TO.C,J6*
X152282666Y-77976380D02*
X152282666Y-78690666D01*
X152235047Y-78833523D01*
X152139809Y-78928761D01*
X151996952Y-78976380D01*
X151901714Y-78976380D01*
X153187428Y-77976380D02*
X152996952Y-77976380D01*
X152901714Y-78024000D01*
X152854095Y-78071619D01*
X152758857Y-78214476D01*
X152711238Y-78404952D01*
X152711238Y-78785904D01*
X152758857Y-78881142D01*
X152806476Y-78928761D01*
X152901714Y-78976380D01*
X153092190Y-78976380D01*
X153187428Y-78928761D01*
X153235047Y-78881142D01*
X153282666Y-78785904D01*
X153282666Y-78547809D01*
X153235047Y-78452571D01*
X153187428Y-78404952D01*
X153092190Y-78357333D01*
X152901714Y-78357333D01*
X152806476Y-78404952D01*
X152758857Y-78452571D01*
X152711238Y-78547809D01*
G04 #@! TO.C,R2*
X122880380Y-83262666D02*
X122404190Y-83596000D01*
X122880380Y-83834095D02*
X121880380Y-83834095D01*
X121880380Y-83453142D01*
X121928000Y-83357904D01*
X121975619Y-83310285D01*
X122070857Y-83262666D01*
X122213714Y-83262666D01*
X122308952Y-83310285D01*
X122356571Y-83357904D01*
X122404190Y-83453142D01*
X122404190Y-83834095D01*
X121975619Y-82881714D02*
X121928000Y-82834095D01*
X121880380Y-82738857D01*
X121880380Y-82500761D01*
X121928000Y-82405523D01*
X121975619Y-82357904D01*
X122070857Y-82310285D01*
X122166095Y-82310285D01*
X122308952Y-82357904D01*
X122880380Y-82929333D01*
X122880380Y-82310285D01*
G04 #@! TO.C,J8*
X108378666Y-77976380D02*
X108378666Y-78690666D01*
X108331047Y-78833523D01*
X108235809Y-78928761D01*
X108092952Y-78976380D01*
X107997714Y-78976380D01*
X108997714Y-78404952D02*
X108902476Y-78357333D01*
X108854857Y-78309714D01*
X108807238Y-78214476D01*
X108807238Y-78166857D01*
X108854857Y-78071619D01*
X108902476Y-78024000D01*
X108997714Y-77976380D01*
X109188190Y-77976380D01*
X109283428Y-78024000D01*
X109331047Y-78071619D01*
X109378666Y-78166857D01*
X109378666Y-78214476D01*
X109331047Y-78309714D01*
X109283428Y-78357333D01*
X109188190Y-78404952D01*
X108997714Y-78404952D01*
X108902476Y-78452571D01*
X108854857Y-78500190D01*
X108807238Y-78595428D01*
X108807238Y-78785904D01*
X108854857Y-78881142D01*
X108902476Y-78928761D01*
X108997714Y-78976380D01*
X109188190Y-78976380D01*
X109283428Y-78928761D01*
X109331047Y-78881142D01*
X109378666Y-78785904D01*
X109378666Y-78595428D01*
X109331047Y-78500190D01*
X109283428Y-78452571D01*
X109188190Y-78404952D01*
G04 #@! TO.C,M1*
X128976380Y-60029523D02*
X127976380Y-60029523D01*
X128690666Y-59696190D01*
X127976380Y-59362857D01*
X128976380Y-59362857D01*
X128976380Y-58362857D02*
X128976380Y-58934285D01*
X128976380Y-58648571D02*
X127976380Y-58648571D01*
X128119238Y-58743809D01*
X128214476Y-58839047D01*
X128262095Y-58934285D01*
G04 #@! TO.C,J7*
X108378666Y-76452380D02*
X108378666Y-77166666D01*
X108331047Y-77309523D01*
X108235809Y-77404761D01*
X108092952Y-77452380D01*
X107997714Y-77452380D01*
X108759619Y-76452380D02*
X109426285Y-76452380D01*
X108997714Y-77452380D01*
G04 #@! TO.C,R6*
X173388380Y-126666666D02*
X172912190Y-127000000D01*
X173388380Y-127238095D02*
X172388380Y-127238095D01*
X172388380Y-126857142D01*
X172436000Y-126761904D01*
X172483619Y-126714285D01*
X172578857Y-126666666D01*
X172721714Y-126666666D01*
X172816952Y-126714285D01*
X172864571Y-126761904D01*
X172912190Y-126857142D01*
X172912190Y-127238095D01*
X172388380Y-125809523D02*
X172388380Y-126000000D01*
X172436000Y-126095238D01*
X172483619Y-126142857D01*
X172626476Y-126238095D01*
X172816952Y-126285714D01*
X173197904Y-126285714D01*
X173293142Y-126238095D01*
X173340761Y-126190476D01*
X173388380Y-126095238D01*
X173388380Y-125904761D01*
X173340761Y-125809523D01*
X173293142Y-125761904D01*
X173197904Y-125714285D01*
X172959809Y-125714285D01*
X172864571Y-125761904D01*
X172816952Y-125809523D01*
X172769333Y-125904761D01*
X172769333Y-126095238D01*
X172816952Y-126190476D01*
X172864571Y-126238095D01*
X172959809Y-126285714D01*
G04 #@! TO.C,J4*
X155838666Y-104608380D02*
X155838666Y-105322666D01*
X155791047Y-105465523D01*
X155695809Y-105560761D01*
X155552952Y-105608380D01*
X155457714Y-105608380D01*
X156743428Y-104941714D02*
X156743428Y-105608380D01*
X156505333Y-104560761D02*
X156267238Y-105275047D01*
X156886285Y-105275047D01*
G04 #@! TO.C,K1*
D16*
X189743833Y-124002166D02*
X189743833Y-123113166D01*
X190251833Y-124002166D02*
X189870833Y-123494166D01*
X190251833Y-123113166D02*
X189743833Y-123621166D01*
X191098500Y-124002166D02*
X190590500Y-124002166D01*
X190844500Y-124002166D02*
X190844500Y-123113166D01*
X190759833Y-123240166D01*
X190675166Y-123324833D01*
X190590500Y-123367166D01*
G04 #@! TO.C,R3*
D11*
X155497333Y-120340380D02*
X155164000Y-119864190D01*
X154925904Y-120340380D02*
X154925904Y-119340380D01*
X155306857Y-119340380D01*
X155402095Y-119388000D01*
X155449714Y-119435619D01*
X155497333Y-119530857D01*
X155497333Y-119673714D01*
X155449714Y-119768952D01*
X155402095Y-119816571D01*
X155306857Y-119864190D01*
X154925904Y-119864190D01*
X155830666Y-119340380D02*
X156449714Y-119340380D01*
X156116380Y-119721333D01*
X156259238Y-119721333D01*
X156354476Y-119768952D01*
X156402095Y-119816571D01*
X156449714Y-119911809D01*
X156449714Y-120149904D01*
X156402095Y-120245142D01*
X156354476Y-120292761D01*
X156259238Y-120340380D01*
X155973523Y-120340380D01*
X155878285Y-120292761D01*
X155830666Y-120245142D01*
G04 #@! TO.C,J3*
X169046666Y-104608380D02*
X169046666Y-105322666D01*
X168999047Y-105465523D01*
X168903809Y-105560761D01*
X168760952Y-105608380D01*
X168665714Y-105608380D01*
X169427619Y-104608380D02*
X170046666Y-104608380D01*
X169713333Y-104989333D01*
X169856190Y-104989333D01*
X169951428Y-105036952D01*
X169999047Y-105084571D01*
X170046666Y-105179809D01*
X170046666Y-105417904D01*
X169999047Y-105513142D01*
X169951428Y-105560761D01*
X169856190Y-105608380D01*
X169570476Y-105608380D01*
X169475238Y-105560761D01*
X169427619Y-105513142D01*
G04 #@! TO.C,PS1*
X185945714Y-105100380D02*
X185945714Y-104100380D01*
X186326666Y-104100380D01*
X186421904Y-104148000D01*
X186469523Y-104195619D01*
X186517142Y-104290857D01*
X186517142Y-104433714D01*
X186469523Y-104528952D01*
X186421904Y-104576571D01*
X186326666Y-104624190D01*
X185945714Y-104624190D01*
X186898095Y-105052761D02*
X187040952Y-105100380D01*
X187279047Y-105100380D01*
X187374285Y-105052761D01*
X187421904Y-105005142D01*
X187469523Y-104909904D01*
X187469523Y-104814666D01*
X187421904Y-104719428D01*
X187374285Y-104671809D01*
X187279047Y-104624190D01*
X187088571Y-104576571D01*
X186993333Y-104528952D01*
X186945714Y-104481333D01*
X186898095Y-104386095D01*
X186898095Y-104290857D01*
X186945714Y-104195619D01*
X186993333Y-104148000D01*
X187088571Y-104100380D01*
X187326666Y-104100380D01*
X187469523Y-104148000D01*
X188421904Y-105100380D02*
X187850476Y-105100380D01*
X188136190Y-105100380D02*
X188136190Y-104100380D01*
X188040952Y-104243238D01*
X187945714Y-104338476D01*
X187850476Y-104386095D01*
G04 #@! TO.C,Q1*
X179952761Y-135167619D02*
X179857523Y-135120000D01*
X179762285Y-135024761D01*
X179619428Y-134881904D01*
X179524190Y-134834285D01*
X179428952Y-134834285D01*
X179476571Y-135072380D02*
X179381333Y-135024761D01*
X179286095Y-134929523D01*
X179238476Y-134739047D01*
X179238476Y-134405714D01*
X179286095Y-134215238D01*
X179381333Y-134120000D01*
X179476571Y-134072380D01*
X179667047Y-134072380D01*
X179762285Y-134120000D01*
X179857523Y-134215238D01*
X179905142Y-134405714D01*
X179905142Y-134739047D01*
X179857523Y-134929523D01*
X179762285Y-135024761D01*
X179667047Y-135072380D01*
X179476571Y-135072380D01*
X180857523Y-135072380D02*
X180286095Y-135072380D01*
X180571809Y-135072380D02*
X180571809Y-134072380D01*
X180476571Y-134215238D01*
X180381333Y-134310476D01*
X180286095Y-134358095D01*
G04 #@! TO.C,R7*
X163228380Y-110402666D02*
X162752190Y-110736000D01*
X163228380Y-110974095D02*
X162228380Y-110974095D01*
X162228380Y-110593142D01*
X162276000Y-110497904D01*
X162323619Y-110450285D01*
X162418857Y-110402666D01*
X162561714Y-110402666D01*
X162656952Y-110450285D01*
X162704571Y-110497904D01*
X162752190Y-110593142D01*
X162752190Y-110974095D01*
X162228380Y-110069333D02*
X162228380Y-109402666D01*
X163228380Y-109831238D01*
G04 #@! TO.C,D1*
X171181904Y-135580380D02*
X171181904Y-134580380D01*
X171420000Y-134580380D01*
X171562857Y-134628000D01*
X171658095Y-134723238D01*
X171705714Y-134818476D01*
X171753333Y-135008952D01*
X171753333Y-135151809D01*
X171705714Y-135342285D01*
X171658095Y-135437523D01*
X171562857Y-135532761D01*
X171420000Y-135580380D01*
X171181904Y-135580380D01*
X172705714Y-135580380D02*
X172134285Y-135580380D01*
X172420000Y-135580380D02*
X172420000Y-134580380D01*
X172324761Y-134723238D01*
X172229523Y-134818476D01*
X172134285Y-134866095D01*
G04 #@! TO.C,R4*
X152449333Y-116276380D02*
X152116000Y-115800190D01*
X151877904Y-116276380D02*
X151877904Y-115276380D01*
X152258857Y-115276380D01*
X152354095Y-115324000D01*
X152401714Y-115371619D01*
X152449333Y-115466857D01*
X152449333Y-115609714D01*
X152401714Y-115704952D01*
X152354095Y-115752571D01*
X152258857Y-115800190D01*
X151877904Y-115800190D01*
X153306476Y-115609714D02*
X153306476Y-116276380D01*
X153068380Y-115228761D02*
X152830285Y-115943047D01*
X153449333Y-115943047D01*
G04 #@! TO.C,J9*
X152282666Y-126452380D02*
X152282666Y-127166666D01*
X152235047Y-127309523D01*
X152139809Y-127404761D01*
X151996952Y-127452380D01*
X151901714Y-127452380D01*
X152806476Y-127452380D02*
X152996952Y-127452380D01*
X153092190Y-127404761D01*
X153139809Y-127357142D01*
X153235047Y-127214285D01*
X153282666Y-127023809D01*
X153282666Y-126642857D01*
X153235047Y-126547619D01*
X153187428Y-126500000D01*
X153092190Y-126452380D01*
X152901714Y-126452380D01*
X152806476Y-126500000D01*
X152758857Y-126547619D01*
X152711238Y-126642857D01*
X152711238Y-126880952D01*
X152758857Y-126976190D01*
X152806476Y-127023809D01*
X152901714Y-127071428D01*
X153092190Y-127071428D01*
X153187428Y-127023809D01*
X153235047Y-126976190D01*
X153282666Y-126880952D01*
G04 #@! TO.C,C1*
X155513142Y-111926666D02*
X155560761Y-111974285D01*
X155608380Y-112117142D01*
X155608380Y-112212380D01*
X155560761Y-112355238D01*
X155465523Y-112450476D01*
X155370285Y-112498095D01*
X155179809Y-112545714D01*
X155036952Y-112545714D01*
X154846476Y-112498095D01*
X154751238Y-112450476D01*
X154656000Y-112355238D01*
X154608380Y-112212380D01*
X154608380Y-112117142D01*
X154656000Y-111974285D01*
X154703619Y-111926666D01*
X155608380Y-110974285D02*
X155608380Y-111545714D01*
X155608380Y-111260000D02*
X154608380Y-111260000D01*
X154751238Y-111355238D01*
X154846476Y-111450476D01*
X154894095Y-111545714D01*
G04 #@! TO.C,REF\002A\002A*
X188539666Y-123737380D02*
X188206333Y-123261190D01*
X187968238Y-123737380D02*
X187968238Y-122737380D01*
X188349190Y-122737380D01*
X188444428Y-122785000D01*
X188492047Y-122832619D01*
X188539666Y-122927857D01*
X188539666Y-123070714D01*
X188492047Y-123165952D01*
X188444428Y-123213571D01*
X188349190Y-123261190D01*
X187968238Y-123261190D01*
X188968238Y-123213571D02*
X189301571Y-123213571D01*
X189444428Y-123737380D02*
X188968238Y-123737380D01*
X188968238Y-122737380D01*
X189444428Y-122737380D01*
X190206333Y-123213571D02*
X189873000Y-123213571D01*
X189873000Y-123737380D02*
X189873000Y-122737380D01*
X190349190Y-122737380D01*
X190873000Y-122737380D02*
X190873000Y-122975476D01*
X190634904Y-122880238D02*
X190873000Y-122975476D01*
X191111095Y-122880238D01*
X190730142Y-123165952D02*
X190873000Y-122975476D01*
X191015857Y-123165952D01*
X191634904Y-122737380D02*
X191634904Y-122975476D01*
X191396809Y-122880238D02*
X191634904Y-122975476D01*
X191873000Y-122880238D01*
X191492047Y-123165952D02*
X191634904Y-122975476D01*
X191777761Y-123165952D01*
G04 #@! TO.C,R8*
X155497333Y-110688380D02*
X155164000Y-110212190D01*
X154925904Y-110688380D02*
X154925904Y-109688380D01*
X155306857Y-109688380D01*
X155402095Y-109736000D01*
X155449714Y-109783619D01*
X155497333Y-109878857D01*
X155497333Y-110021714D01*
X155449714Y-110116952D01*
X155402095Y-110164571D01*
X155306857Y-110212190D01*
X154925904Y-110212190D01*
X156068761Y-110116952D02*
X155973523Y-110069333D01*
X155925904Y-110021714D01*
X155878285Y-109926476D01*
X155878285Y-109878857D01*
X155925904Y-109783619D01*
X155973523Y-109736000D01*
X156068761Y-109688380D01*
X156259238Y-109688380D01*
X156354476Y-109736000D01*
X156402095Y-109783619D01*
X156449714Y-109878857D01*
X156449714Y-109926476D01*
X156402095Y-110021714D01*
X156354476Y-110069333D01*
X156259238Y-110116952D01*
X156068761Y-110116952D01*
X155973523Y-110164571D01*
X155925904Y-110212190D01*
X155878285Y-110307428D01*
X155878285Y-110497904D01*
X155925904Y-110593142D01*
X155973523Y-110640761D01*
X156068761Y-110688380D01*
X156259238Y-110688380D01*
X156354476Y-110640761D01*
X156402095Y-110593142D01*
X156449714Y-110497904D01*
X156449714Y-110307428D01*
X156402095Y-110212190D01*
X156354476Y-110164571D01*
X156259238Y-110116952D01*
G04 #@! TO.C,K2*
D16*
X189843833Y-108302166D02*
X189843833Y-107413166D01*
X190351833Y-108302166D02*
X189970833Y-107794166D01*
X190351833Y-107413166D02*
X189843833Y-107921166D01*
X190690500Y-107497833D02*
X190732833Y-107455500D01*
X190817500Y-107413166D01*
X191029166Y-107413166D01*
X191113833Y-107455500D01*
X191156166Y-107497833D01*
X191198500Y-107582500D01*
X191198500Y-107667166D01*
X191156166Y-107794166D01*
X190648166Y-108302166D01*
X191198500Y-108302166D01*
G04 #@! TO.C,Q2*
D11*
X179952761Y-128055619D02*
X179857523Y-128008000D01*
X179762285Y-127912761D01*
X179619428Y-127769904D01*
X179524190Y-127722285D01*
X179428952Y-127722285D01*
X179476571Y-127960380D02*
X179381333Y-127912761D01*
X179286095Y-127817523D01*
X179238476Y-127627047D01*
X179238476Y-127293714D01*
X179286095Y-127103238D01*
X179381333Y-127008000D01*
X179476571Y-126960380D01*
X179667047Y-126960380D01*
X179762285Y-127008000D01*
X179857523Y-127103238D01*
X179905142Y-127293714D01*
X179905142Y-127627047D01*
X179857523Y-127817523D01*
X179762285Y-127912761D01*
X179667047Y-127960380D01*
X179476571Y-127960380D01*
X180286095Y-127055619D02*
X180333714Y-127008000D01*
X180428952Y-126960380D01*
X180667047Y-126960380D01*
X180762285Y-127008000D01*
X180809904Y-127055619D01*
X180857523Y-127150857D01*
X180857523Y-127246095D01*
X180809904Y-127388952D01*
X180238476Y-127960380D01*
X180857523Y-127960380D01*
G04 #@! TO.C,U1*
X157950095Y-110196380D02*
X157950095Y-111005904D01*
X157997714Y-111101142D01*
X158045333Y-111148761D01*
X158140571Y-111196380D01*
X158331047Y-111196380D01*
X158426285Y-111148761D01*
X158473904Y-111101142D01*
X158521523Y-111005904D01*
X158521523Y-110196380D01*
X159521523Y-111196380D02*
X158950095Y-111196380D01*
X159235809Y-111196380D02*
X159235809Y-110196380D01*
X159140571Y-110339238D01*
X159045333Y-110434476D01*
X158950095Y-110482095D01*
G04 #@! TO.C,J6*
X152282666Y-127976380D02*
X152282666Y-128690666D01*
X152235047Y-128833523D01*
X152139809Y-128928761D01*
X151996952Y-128976380D01*
X151901714Y-128976380D01*
X153187428Y-127976380D02*
X152996952Y-127976380D01*
X152901714Y-128024000D01*
X152854095Y-128071619D01*
X152758857Y-128214476D01*
X152711238Y-128404952D01*
X152711238Y-128785904D01*
X152758857Y-128881142D01*
X152806476Y-128928761D01*
X152901714Y-128976380D01*
X153092190Y-128976380D01*
X153187428Y-128928761D01*
X153235047Y-128881142D01*
X153282666Y-128785904D01*
X153282666Y-128547809D01*
X153235047Y-128452571D01*
X153187428Y-128404952D01*
X153092190Y-128357333D01*
X152901714Y-128357333D01*
X152806476Y-128404952D01*
X152758857Y-128452571D01*
X152711238Y-128547809D01*
G04 #@! TO.C,R1*
X165768380Y-120054666D02*
X165292190Y-120388000D01*
X165768380Y-120626095D02*
X164768380Y-120626095D01*
X164768380Y-120245142D01*
X164816000Y-120149904D01*
X164863619Y-120102285D01*
X164958857Y-120054666D01*
X165101714Y-120054666D01*
X165196952Y-120102285D01*
X165244571Y-120149904D01*
X165292190Y-120245142D01*
X165292190Y-120626095D01*
X165768380Y-119102285D02*
X165768380Y-119673714D01*
X165768380Y-119388000D02*
X164768380Y-119388000D01*
X164911238Y-119483238D01*
X165006476Y-119578476D01*
X165054095Y-119673714D01*
G04 #@! TO.C,R5*
X162720380Y-120054666D02*
X162244190Y-120388000D01*
X162720380Y-120626095D02*
X161720380Y-120626095D01*
X161720380Y-120245142D01*
X161768000Y-120149904D01*
X161815619Y-120102285D01*
X161910857Y-120054666D01*
X162053714Y-120054666D01*
X162148952Y-120102285D01*
X162196571Y-120149904D01*
X162244190Y-120245142D01*
X162244190Y-120626095D01*
X161720380Y-119149904D02*
X161720380Y-119626095D01*
X162196571Y-119673714D01*
X162148952Y-119626095D01*
X162101333Y-119530857D01*
X162101333Y-119292761D01*
X162148952Y-119197523D01*
X162196571Y-119149904D01*
X162291809Y-119102285D01*
X162529904Y-119102285D01*
X162625142Y-119149904D01*
X162672761Y-119197523D01*
X162720380Y-119292761D01*
X162720380Y-119530857D01*
X162672761Y-119626095D01*
X162625142Y-119673714D01*
G04 #@! TO.C,D2*
X171689904Y-128468380D02*
X171689904Y-127468380D01*
X171928000Y-127468380D01*
X172070857Y-127516000D01*
X172166095Y-127611238D01*
X172213714Y-127706476D01*
X172261333Y-127896952D01*
X172261333Y-128039809D01*
X172213714Y-128230285D01*
X172166095Y-128325523D01*
X172070857Y-128420761D01*
X171928000Y-128468380D01*
X171689904Y-128468380D01*
X172642285Y-127563619D02*
X172689904Y-127516000D01*
X172785142Y-127468380D01*
X173023238Y-127468380D01*
X173118476Y-127516000D01*
X173166095Y-127563619D01*
X173213714Y-127658857D01*
X173213714Y-127754095D01*
X173166095Y-127896952D01*
X172594666Y-128468380D01*
X173213714Y-128468380D01*
G04 #@! TO.C,R2*
X172880380Y-133262666D02*
X172404190Y-133596000D01*
X172880380Y-133834095D02*
X171880380Y-133834095D01*
X171880380Y-133453142D01*
X171928000Y-133357904D01*
X171975619Y-133310285D01*
X172070857Y-133262666D01*
X172213714Y-133262666D01*
X172308952Y-133310285D01*
X172356571Y-133357904D01*
X172404190Y-133453142D01*
X172404190Y-133834095D01*
X171975619Y-132881714D02*
X171928000Y-132834095D01*
X171880380Y-132738857D01*
X171880380Y-132500761D01*
X171928000Y-132405523D01*
X171975619Y-132357904D01*
X172070857Y-132310285D01*
X172166095Y-132310285D01*
X172308952Y-132357904D01*
X172880380Y-132929333D01*
X172880380Y-132310285D01*
G04 #@! TO.C,J8*
X158378666Y-127976380D02*
X158378666Y-128690666D01*
X158331047Y-128833523D01*
X158235809Y-128928761D01*
X158092952Y-128976380D01*
X157997714Y-128976380D01*
X158997714Y-128404952D02*
X158902476Y-128357333D01*
X158854857Y-128309714D01*
X158807238Y-128214476D01*
X158807238Y-128166857D01*
X158854857Y-128071619D01*
X158902476Y-128024000D01*
X158997714Y-127976380D01*
X159188190Y-127976380D01*
X159283428Y-128024000D01*
X159331047Y-128071619D01*
X159378666Y-128166857D01*
X159378666Y-128214476D01*
X159331047Y-128309714D01*
X159283428Y-128357333D01*
X159188190Y-128404952D01*
X158997714Y-128404952D01*
X158902476Y-128452571D01*
X158854857Y-128500190D01*
X158807238Y-128595428D01*
X158807238Y-128785904D01*
X158854857Y-128881142D01*
X158902476Y-128928761D01*
X158997714Y-128976380D01*
X159188190Y-128976380D01*
X159283428Y-128928761D01*
X159331047Y-128881142D01*
X159378666Y-128785904D01*
X159378666Y-128595428D01*
X159331047Y-128500190D01*
X159283428Y-128452571D01*
X159188190Y-128404952D01*
G04 #@! TO.C,M1*
X178976380Y-110029523D02*
X177976380Y-110029523D01*
X178690666Y-109696190D01*
X177976380Y-109362857D01*
X178976380Y-109362857D01*
X178976380Y-108362857D02*
X178976380Y-108934285D01*
X178976380Y-108648571D02*
X177976380Y-108648571D01*
X178119238Y-108743809D01*
X178214476Y-108839047D01*
X178262095Y-108934285D01*
G04 #@! TO.C,J7*
X158378666Y-126452380D02*
X158378666Y-127166666D01*
X158331047Y-127309523D01*
X158235809Y-127404761D01*
X158092952Y-127452380D01*
X157997714Y-127452380D01*
X158759619Y-126452380D02*
X159426285Y-126452380D01*
X158997714Y-127452380D01*
G04 #@! TO.C,K1*
D16*
X139743833Y-124002166D02*
X139743833Y-123113166D01*
X140251833Y-124002166D02*
X139870833Y-123494166D01*
X140251833Y-123113166D02*
X139743833Y-123621166D01*
X141098500Y-124002166D02*
X140590500Y-124002166D01*
X140844500Y-124002166D02*
X140844500Y-123113166D01*
X140759833Y-123240166D01*
X140675166Y-123324833D01*
X140590500Y-123367166D01*
G04 #@! TO.C,K2*
X139843833Y-108302166D02*
X139843833Y-107413166D01*
X140351833Y-108302166D02*
X139970833Y-107794166D01*
X140351833Y-107413166D02*
X139843833Y-107921166D01*
X140690500Y-107497833D02*
X140732833Y-107455500D01*
X140817500Y-107413166D01*
X141029166Y-107413166D01*
X141113833Y-107455500D01*
X141156166Y-107497833D01*
X141198500Y-107582500D01*
X141198500Y-107667166D01*
X141156166Y-107794166D01*
X140648166Y-108302166D01*
X141198500Y-108302166D01*
G04 #@! TO.C,PS1*
D11*
X135945714Y-105100380D02*
X135945714Y-104100380D01*
X136326666Y-104100380D01*
X136421904Y-104148000D01*
X136469523Y-104195619D01*
X136517142Y-104290857D01*
X136517142Y-104433714D01*
X136469523Y-104528952D01*
X136421904Y-104576571D01*
X136326666Y-104624190D01*
X135945714Y-104624190D01*
X136898095Y-105052761D02*
X137040952Y-105100380D01*
X137279047Y-105100380D01*
X137374285Y-105052761D01*
X137421904Y-105005142D01*
X137469523Y-104909904D01*
X137469523Y-104814666D01*
X137421904Y-104719428D01*
X137374285Y-104671809D01*
X137279047Y-104624190D01*
X137088571Y-104576571D01*
X136993333Y-104528952D01*
X136945714Y-104481333D01*
X136898095Y-104386095D01*
X136898095Y-104290857D01*
X136945714Y-104195619D01*
X136993333Y-104148000D01*
X137088571Y-104100380D01*
X137326666Y-104100380D01*
X137469523Y-104148000D01*
X138421904Y-105100380D02*
X137850476Y-105100380D01*
X138136190Y-105100380D02*
X138136190Y-104100380D01*
X138040952Y-104243238D01*
X137945714Y-104338476D01*
X137850476Y-104386095D01*
G04 #@! TO.C,J3*
X119046666Y-104608380D02*
X119046666Y-105322666D01*
X118999047Y-105465523D01*
X118903809Y-105560761D01*
X118760952Y-105608380D01*
X118665714Y-105608380D01*
X119427619Y-104608380D02*
X120046666Y-104608380D01*
X119713333Y-104989333D01*
X119856190Y-104989333D01*
X119951428Y-105036952D01*
X119999047Y-105084571D01*
X120046666Y-105179809D01*
X120046666Y-105417904D01*
X119999047Y-105513142D01*
X119951428Y-105560761D01*
X119856190Y-105608380D01*
X119570476Y-105608380D01*
X119475238Y-105560761D01*
X119427619Y-105513142D01*
G04 #@! TO.C,M1*
X128976380Y-110029523D02*
X127976380Y-110029523D01*
X128690666Y-109696190D01*
X127976380Y-109362857D01*
X128976380Y-109362857D01*
X128976380Y-108362857D02*
X128976380Y-108934285D01*
X128976380Y-108648571D02*
X127976380Y-108648571D01*
X128119238Y-108743809D01*
X128214476Y-108839047D01*
X128262095Y-108934285D01*
G04 #@! TO.C,J4*
X105838666Y-104608380D02*
X105838666Y-105322666D01*
X105791047Y-105465523D01*
X105695809Y-105560761D01*
X105552952Y-105608380D01*
X105457714Y-105608380D01*
X106743428Y-104941714D02*
X106743428Y-105608380D01*
X106505333Y-104560761D02*
X106267238Y-105275047D01*
X106886285Y-105275047D01*
G04 #@! TO.C,C1*
X105513142Y-111926666D02*
X105560761Y-111974285D01*
X105608380Y-112117142D01*
X105608380Y-112212380D01*
X105560761Y-112355238D01*
X105465523Y-112450476D01*
X105370285Y-112498095D01*
X105179809Y-112545714D01*
X105036952Y-112545714D01*
X104846476Y-112498095D01*
X104751238Y-112450476D01*
X104656000Y-112355238D01*
X104608380Y-112212380D01*
X104608380Y-112117142D01*
X104656000Y-111974285D01*
X104703619Y-111926666D01*
X105608380Y-110974285D02*
X105608380Y-111545714D01*
X105608380Y-111260000D02*
X104608380Y-111260000D01*
X104751238Y-111355238D01*
X104846476Y-111450476D01*
X104894095Y-111545714D01*
G04 #@! TO.C,D1*
X121181904Y-135580380D02*
X121181904Y-134580380D01*
X121420000Y-134580380D01*
X121562857Y-134628000D01*
X121658095Y-134723238D01*
X121705714Y-134818476D01*
X121753333Y-135008952D01*
X121753333Y-135151809D01*
X121705714Y-135342285D01*
X121658095Y-135437523D01*
X121562857Y-135532761D01*
X121420000Y-135580380D01*
X121181904Y-135580380D01*
X122705714Y-135580380D02*
X122134285Y-135580380D01*
X122420000Y-135580380D02*
X122420000Y-134580380D01*
X122324761Y-134723238D01*
X122229523Y-134818476D01*
X122134285Y-134866095D01*
G04 #@! TO.C,D2*
X121689904Y-128468380D02*
X121689904Y-127468380D01*
X121928000Y-127468380D01*
X122070857Y-127516000D01*
X122166095Y-127611238D01*
X122213714Y-127706476D01*
X122261333Y-127896952D01*
X122261333Y-128039809D01*
X122213714Y-128230285D01*
X122166095Y-128325523D01*
X122070857Y-128420761D01*
X121928000Y-128468380D01*
X121689904Y-128468380D01*
X122642285Y-127563619D02*
X122689904Y-127516000D01*
X122785142Y-127468380D01*
X123023238Y-127468380D01*
X123118476Y-127516000D01*
X123166095Y-127563619D01*
X123213714Y-127658857D01*
X123213714Y-127754095D01*
X123166095Y-127896952D01*
X122594666Y-128468380D01*
X123213714Y-128468380D01*
G04 #@! TO.C,J6*
X102282666Y-127976380D02*
X102282666Y-128690666D01*
X102235047Y-128833523D01*
X102139809Y-128928761D01*
X101996952Y-128976380D01*
X101901714Y-128976380D01*
X103187428Y-127976380D02*
X102996952Y-127976380D01*
X102901714Y-128024000D01*
X102854095Y-128071619D01*
X102758857Y-128214476D01*
X102711238Y-128404952D01*
X102711238Y-128785904D01*
X102758857Y-128881142D01*
X102806476Y-128928761D01*
X102901714Y-128976380D01*
X103092190Y-128976380D01*
X103187428Y-128928761D01*
X103235047Y-128881142D01*
X103282666Y-128785904D01*
X103282666Y-128547809D01*
X103235047Y-128452571D01*
X103187428Y-128404952D01*
X103092190Y-128357333D01*
X102901714Y-128357333D01*
X102806476Y-128404952D01*
X102758857Y-128452571D01*
X102711238Y-128547809D01*
G04 #@! TO.C,J7*
X108378666Y-126452380D02*
X108378666Y-127166666D01*
X108331047Y-127309523D01*
X108235809Y-127404761D01*
X108092952Y-127452380D01*
X107997714Y-127452380D01*
X108759619Y-126452380D02*
X109426285Y-126452380D01*
X108997714Y-127452380D01*
G04 #@! TO.C,J8*
X108378666Y-127976380D02*
X108378666Y-128690666D01*
X108331047Y-128833523D01*
X108235809Y-128928761D01*
X108092952Y-128976380D01*
X107997714Y-128976380D01*
X108997714Y-128404952D02*
X108902476Y-128357333D01*
X108854857Y-128309714D01*
X108807238Y-128214476D01*
X108807238Y-128166857D01*
X108854857Y-128071619D01*
X108902476Y-128024000D01*
X108997714Y-127976380D01*
X109188190Y-127976380D01*
X109283428Y-128024000D01*
X109331047Y-128071619D01*
X109378666Y-128166857D01*
X109378666Y-128214476D01*
X109331047Y-128309714D01*
X109283428Y-128357333D01*
X109188190Y-128404952D01*
X108997714Y-128404952D01*
X108902476Y-128452571D01*
X108854857Y-128500190D01*
X108807238Y-128595428D01*
X108807238Y-128785904D01*
X108854857Y-128881142D01*
X108902476Y-128928761D01*
X108997714Y-128976380D01*
X109188190Y-128976380D01*
X109283428Y-128928761D01*
X109331047Y-128881142D01*
X109378666Y-128785904D01*
X109378666Y-128595428D01*
X109331047Y-128500190D01*
X109283428Y-128452571D01*
X109188190Y-128404952D01*
G04 #@! TO.C,J9*
X102282666Y-126452380D02*
X102282666Y-127166666D01*
X102235047Y-127309523D01*
X102139809Y-127404761D01*
X101996952Y-127452380D01*
X101901714Y-127452380D01*
X102806476Y-127452380D02*
X102996952Y-127452380D01*
X103092190Y-127404761D01*
X103139809Y-127357142D01*
X103235047Y-127214285D01*
X103282666Y-127023809D01*
X103282666Y-126642857D01*
X103235047Y-126547619D01*
X103187428Y-126500000D01*
X103092190Y-126452380D01*
X102901714Y-126452380D01*
X102806476Y-126500000D01*
X102758857Y-126547619D01*
X102711238Y-126642857D01*
X102711238Y-126880952D01*
X102758857Y-126976190D01*
X102806476Y-127023809D01*
X102901714Y-127071428D01*
X103092190Y-127071428D01*
X103187428Y-127023809D01*
X103235047Y-126976190D01*
X103282666Y-126880952D01*
G04 #@! TO.C,Q1*
X129952761Y-135167619D02*
X129857523Y-135120000D01*
X129762285Y-135024761D01*
X129619428Y-134881904D01*
X129524190Y-134834285D01*
X129428952Y-134834285D01*
X129476571Y-135072380D02*
X129381333Y-135024761D01*
X129286095Y-134929523D01*
X129238476Y-134739047D01*
X129238476Y-134405714D01*
X129286095Y-134215238D01*
X129381333Y-134120000D01*
X129476571Y-134072380D01*
X129667047Y-134072380D01*
X129762285Y-134120000D01*
X129857523Y-134215238D01*
X129905142Y-134405714D01*
X129905142Y-134739047D01*
X129857523Y-134929523D01*
X129762285Y-135024761D01*
X129667047Y-135072380D01*
X129476571Y-135072380D01*
X130857523Y-135072380D02*
X130286095Y-135072380D01*
X130571809Y-135072380D02*
X130571809Y-134072380D01*
X130476571Y-134215238D01*
X130381333Y-134310476D01*
X130286095Y-134358095D01*
G04 #@! TO.C,Q2*
X129952761Y-128055619D02*
X129857523Y-128008000D01*
X129762285Y-127912761D01*
X129619428Y-127769904D01*
X129524190Y-127722285D01*
X129428952Y-127722285D01*
X129476571Y-127960380D02*
X129381333Y-127912761D01*
X129286095Y-127817523D01*
X129238476Y-127627047D01*
X129238476Y-127293714D01*
X129286095Y-127103238D01*
X129381333Y-127008000D01*
X129476571Y-126960380D01*
X129667047Y-126960380D01*
X129762285Y-127008000D01*
X129857523Y-127103238D01*
X129905142Y-127293714D01*
X129905142Y-127627047D01*
X129857523Y-127817523D01*
X129762285Y-127912761D01*
X129667047Y-127960380D01*
X129476571Y-127960380D01*
X130286095Y-127055619D02*
X130333714Y-127008000D01*
X130428952Y-126960380D01*
X130667047Y-126960380D01*
X130762285Y-127008000D01*
X130809904Y-127055619D01*
X130857523Y-127150857D01*
X130857523Y-127246095D01*
X130809904Y-127388952D01*
X130238476Y-127960380D01*
X130857523Y-127960380D01*
G04 #@! TO.C,R1*
X115768380Y-120054666D02*
X115292190Y-120388000D01*
X115768380Y-120626095D02*
X114768380Y-120626095D01*
X114768380Y-120245142D01*
X114816000Y-120149904D01*
X114863619Y-120102285D01*
X114958857Y-120054666D01*
X115101714Y-120054666D01*
X115196952Y-120102285D01*
X115244571Y-120149904D01*
X115292190Y-120245142D01*
X115292190Y-120626095D01*
X115768380Y-119102285D02*
X115768380Y-119673714D01*
X115768380Y-119388000D02*
X114768380Y-119388000D01*
X114911238Y-119483238D01*
X115006476Y-119578476D01*
X115054095Y-119673714D01*
G04 #@! TO.C,R2*
X122880380Y-133262666D02*
X122404190Y-133596000D01*
X122880380Y-133834095D02*
X121880380Y-133834095D01*
X121880380Y-133453142D01*
X121928000Y-133357904D01*
X121975619Y-133310285D01*
X122070857Y-133262666D01*
X122213714Y-133262666D01*
X122308952Y-133310285D01*
X122356571Y-133357904D01*
X122404190Y-133453142D01*
X122404190Y-133834095D01*
X121975619Y-132881714D02*
X121928000Y-132834095D01*
X121880380Y-132738857D01*
X121880380Y-132500761D01*
X121928000Y-132405523D01*
X121975619Y-132357904D01*
X122070857Y-132310285D01*
X122166095Y-132310285D01*
X122308952Y-132357904D01*
X122880380Y-132929333D01*
X122880380Y-132310285D01*
G04 #@! TO.C,R3*
X105497333Y-120340380D02*
X105164000Y-119864190D01*
X104925904Y-120340380D02*
X104925904Y-119340380D01*
X105306857Y-119340380D01*
X105402095Y-119388000D01*
X105449714Y-119435619D01*
X105497333Y-119530857D01*
X105497333Y-119673714D01*
X105449714Y-119768952D01*
X105402095Y-119816571D01*
X105306857Y-119864190D01*
X104925904Y-119864190D01*
X105830666Y-119340380D02*
X106449714Y-119340380D01*
X106116380Y-119721333D01*
X106259238Y-119721333D01*
X106354476Y-119768952D01*
X106402095Y-119816571D01*
X106449714Y-119911809D01*
X106449714Y-120149904D01*
X106402095Y-120245142D01*
X106354476Y-120292761D01*
X106259238Y-120340380D01*
X105973523Y-120340380D01*
X105878285Y-120292761D01*
X105830666Y-120245142D01*
G04 #@! TO.C,R4*
X102449333Y-116276380D02*
X102116000Y-115800190D01*
X101877904Y-116276380D02*
X101877904Y-115276380D01*
X102258857Y-115276380D01*
X102354095Y-115324000D01*
X102401714Y-115371619D01*
X102449333Y-115466857D01*
X102449333Y-115609714D01*
X102401714Y-115704952D01*
X102354095Y-115752571D01*
X102258857Y-115800190D01*
X101877904Y-115800190D01*
X103306476Y-115609714D02*
X103306476Y-116276380D01*
X103068380Y-115228761D02*
X102830285Y-115943047D01*
X103449333Y-115943047D01*
G04 #@! TO.C,R5*
X112720380Y-120054666D02*
X112244190Y-120388000D01*
X112720380Y-120626095D02*
X111720380Y-120626095D01*
X111720380Y-120245142D01*
X111768000Y-120149904D01*
X111815619Y-120102285D01*
X111910857Y-120054666D01*
X112053714Y-120054666D01*
X112148952Y-120102285D01*
X112196571Y-120149904D01*
X112244190Y-120245142D01*
X112244190Y-120626095D01*
X111720380Y-119149904D02*
X111720380Y-119626095D01*
X112196571Y-119673714D01*
X112148952Y-119626095D01*
X112101333Y-119530857D01*
X112101333Y-119292761D01*
X112148952Y-119197523D01*
X112196571Y-119149904D01*
X112291809Y-119102285D01*
X112529904Y-119102285D01*
X112625142Y-119149904D01*
X112672761Y-119197523D01*
X112720380Y-119292761D01*
X112720380Y-119530857D01*
X112672761Y-119626095D01*
X112625142Y-119673714D01*
G04 #@! TO.C,R6*
X123388380Y-126666666D02*
X122912190Y-127000000D01*
X123388380Y-127238095D02*
X122388380Y-127238095D01*
X122388380Y-126857142D01*
X122436000Y-126761904D01*
X122483619Y-126714285D01*
X122578857Y-126666666D01*
X122721714Y-126666666D01*
X122816952Y-126714285D01*
X122864571Y-126761904D01*
X122912190Y-126857142D01*
X122912190Y-127238095D01*
X122388380Y-125809523D02*
X122388380Y-126000000D01*
X122436000Y-126095238D01*
X122483619Y-126142857D01*
X122626476Y-126238095D01*
X122816952Y-126285714D01*
X123197904Y-126285714D01*
X123293142Y-126238095D01*
X123340761Y-126190476D01*
X123388380Y-126095238D01*
X123388380Y-125904761D01*
X123340761Y-125809523D01*
X123293142Y-125761904D01*
X123197904Y-125714285D01*
X122959809Y-125714285D01*
X122864571Y-125761904D01*
X122816952Y-125809523D01*
X122769333Y-125904761D01*
X122769333Y-126095238D01*
X122816952Y-126190476D01*
X122864571Y-126238095D01*
X122959809Y-126285714D01*
G04 #@! TO.C,R7*
X113228380Y-110402666D02*
X112752190Y-110736000D01*
X113228380Y-110974095D02*
X112228380Y-110974095D01*
X112228380Y-110593142D01*
X112276000Y-110497904D01*
X112323619Y-110450285D01*
X112418857Y-110402666D01*
X112561714Y-110402666D01*
X112656952Y-110450285D01*
X112704571Y-110497904D01*
X112752190Y-110593142D01*
X112752190Y-110974095D01*
X112228380Y-110069333D02*
X112228380Y-109402666D01*
X113228380Y-109831238D01*
G04 #@! TO.C,R8*
X105497333Y-110688380D02*
X105164000Y-110212190D01*
X104925904Y-110688380D02*
X104925904Y-109688380D01*
X105306857Y-109688380D01*
X105402095Y-109736000D01*
X105449714Y-109783619D01*
X105497333Y-109878857D01*
X105497333Y-110021714D01*
X105449714Y-110116952D01*
X105402095Y-110164571D01*
X105306857Y-110212190D01*
X104925904Y-110212190D01*
X106068761Y-110116952D02*
X105973523Y-110069333D01*
X105925904Y-110021714D01*
X105878285Y-109926476D01*
X105878285Y-109878857D01*
X105925904Y-109783619D01*
X105973523Y-109736000D01*
X106068761Y-109688380D01*
X106259238Y-109688380D01*
X106354476Y-109736000D01*
X106402095Y-109783619D01*
X106449714Y-109878857D01*
X106449714Y-109926476D01*
X106402095Y-110021714D01*
X106354476Y-110069333D01*
X106259238Y-110116952D01*
X106068761Y-110116952D01*
X105973523Y-110164571D01*
X105925904Y-110212190D01*
X105878285Y-110307428D01*
X105878285Y-110497904D01*
X105925904Y-110593142D01*
X105973523Y-110640761D01*
X106068761Y-110688380D01*
X106259238Y-110688380D01*
X106354476Y-110640761D01*
X106402095Y-110593142D01*
X106449714Y-110497904D01*
X106449714Y-110307428D01*
X106402095Y-110212190D01*
X106354476Y-110164571D01*
X106259238Y-110116952D01*
G04 #@! TO.C,U1*
X107950095Y-110196380D02*
X107950095Y-111005904D01*
X107997714Y-111101142D01*
X108045333Y-111148761D01*
X108140571Y-111196380D01*
X108331047Y-111196380D01*
X108426285Y-111148761D01*
X108473904Y-111101142D01*
X108521523Y-111005904D01*
X108521523Y-110196380D01*
X109521523Y-111196380D02*
X108950095Y-111196380D01*
X109235809Y-111196380D02*
X109235809Y-110196380D01*
X109140571Y-110339238D01*
X109045333Y-110434476D01*
X108950095Y-110482095D01*
G04 #@! TO.C,REF\002A\002A*
X138539666Y-123737380D02*
X138206333Y-123261190D01*
X137968238Y-123737380D02*
X137968238Y-122737380D01*
X138349190Y-122737380D01*
X138444428Y-122785000D01*
X138492047Y-122832619D01*
X138539666Y-122927857D01*
X138539666Y-123070714D01*
X138492047Y-123165952D01*
X138444428Y-123213571D01*
X138349190Y-123261190D01*
X137968238Y-123261190D01*
X138968238Y-123213571D02*
X139301571Y-123213571D01*
X139444428Y-123737380D02*
X138968238Y-123737380D01*
X138968238Y-122737380D01*
X139444428Y-122737380D01*
X140206333Y-123213571D02*
X139873000Y-123213571D01*
X139873000Y-123737380D02*
X139873000Y-122737380D01*
X140349190Y-122737380D01*
X140873000Y-122737380D02*
X140873000Y-122975476D01*
X140634904Y-122880238D02*
X140873000Y-122975476D01*
X141111095Y-122880238D01*
X140730142Y-123165952D02*
X140873000Y-122975476D01*
X141015857Y-123165952D01*
X141634904Y-122737380D02*
X141634904Y-122975476D01*
X141396809Y-122880238D02*
X141634904Y-122975476D01*
X141873000Y-122880238D01*
X141492047Y-123165952D02*
X141634904Y-122975476D01*
X141777761Y-123165952D01*
G04 #@! TD*
M02*
