G04 #@! TF.GenerationSoftware,KiCad,Pcbnew,5.0.2-bee76a0~70~ubuntu16.04.1*
G04 #@! TF.CreationDate,2019-11-28T15:24:24+01:00*
G04 #@! TF.ProjectId,Shutter_RF_2x2,53687574-7465-4725-9f52-465f3278322e,rev?*
G04 #@! TF.SameCoordinates,Original*
G04 #@! TF.FileFunction,Copper,L1,Top*
G04 #@! TF.FilePolarity,Positive*
%FSLAX46Y46*%
G04 Gerber Fmt 4.6, Leading zero omitted, Abs format (unit mm)*
G04 Created by KiCad (PCBNEW 5.0.2-bee76a0~70~ubuntu16.04.1) date Thu 28 Nov 2019 03:24:24 PM CET*
%MOMM*%
%LPD*%
G01*
G04 APERTURE LIST*
G04 #@! TA.AperFunction,ComponentPad*
%ADD10C,4.000000*%
G04 #@! TD*
G04 #@! TA.AperFunction,SMDPad,CuDef*
%ADD11R,1.300000X0.700000*%
G04 #@! TD*
G04 #@! TA.AperFunction,SMDPad,CuDef*
%ADD12R,2.500000X1.800000*%
G04 #@! TD*
G04 #@! TA.AperFunction,ComponentPad*
%ADD13C,1.900000*%
G04 #@! TD*
G04 #@! TA.AperFunction,ComponentPad*
%ADD14C,2.098040*%
G04 #@! TD*
G04 #@! TA.AperFunction,SMDPad,CuDef*
%ADD15R,1.250000X1.000000*%
G04 #@! TD*
G04 #@! TA.AperFunction,SMDPad,CuDef*
%ADD16R,0.700000X1.300000*%
G04 #@! TD*
G04 #@! TA.AperFunction,ComponentPad*
%ADD17O,1.700000X1.200000*%
G04 #@! TD*
G04 #@! TA.AperFunction,ComponentPad*
%ADD18R,1.700000X1.200000*%
G04 #@! TD*
G04 #@! TA.AperFunction,SMDPad,CuDef*
%ADD19R,0.900000X0.800000*%
G04 #@! TD*
G04 #@! TA.AperFunction,SMDPad,CuDef*
%ADD20R,0.600000X1.550000*%
G04 #@! TD*
G04 #@! TA.AperFunction,ComponentPad*
%ADD21C,2.000000*%
G04 #@! TD*
G04 #@! TA.AperFunction,ViaPad*
%ADD22C,0.800000*%
G04 #@! TD*
G04 #@! TA.AperFunction,Conductor*
%ADD23C,0.250000*%
G04 #@! TD*
G04 #@! TA.AperFunction,Conductor*
%ADD24C,0.750000*%
G04 #@! TD*
G04 APERTURE END LIST*
D10*
G04 #@! TO.P,J1,1*
G04 #@! TO.N,/L*
X196900000Y-94800000D03*
G04 #@! TO.P,J1,2*
G04 #@! TO.N,/N*
X191900000Y-94800000D03*
G04 #@! TD*
D11*
G04 #@! TO.P,R6,2*
G04 #@! TO.N,/CH2*
X124476000Y-77450000D03*
G04 #@! TO.P,R6,1*
G04 #@! TO.N,Net-(Q2-Pad1)*
X124476000Y-75550000D03*
G04 #@! TD*
D12*
G04 #@! TO.P,D1,1*
G04 #@! TO.N,Net-(D1-Pad1)*
X177576000Y-87700000D03*
G04 #@! TO.P,D1,2*
G04 #@! TO.N,GND*
X173576000Y-87700000D03*
G04 #@! TD*
D13*
G04 #@! TO.P,J4,1*
G04 #@! TO.N,+3V3*
X110300000Y-52627000D03*
G04 #@! TO.P,J4,2*
G04 #@! TO.N,/RF_TX*
X107760000Y-52627000D03*
G04 #@! TO.P,J4,3*
G04 #@! TO.N,GND*
X105220000Y-52627000D03*
G04 #@! TD*
G04 #@! TO.P,J4,3*
G04 #@! TO.N,GND*
X155220000Y-52627000D03*
G04 #@! TO.P,J4,2*
G04 #@! TO.N,/RF_TX*
X157760000Y-52627000D03*
G04 #@! TO.P,J4,1*
G04 #@! TO.N,+3V3*
X160300000Y-52627000D03*
G04 #@! TD*
D14*
G04 #@! TO.P,K1,3*
G04 #@! TO.N,/L*
X132202480Y-79500000D03*
G04 #@! TO.P,K1,2*
G04 #@! TO.N,+5V*
X134201460Y-85499480D03*
G04 #@! TO.P,K1,1*
G04 #@! TO.N,Net-(D1-Pad1)*
X134201460Y-73500520D03*
G04 #@! TO.P,K1,4*
G04 #@! TO.N,Net-(K1-Pad4)*
X146398540Y-85499480D03*
G04 #@! TO.P,K1,5*
G04 #@! TO.N,/L_CH1*
X146398540Y-73500520D03*
G04 #@! TD*
D15*
G04 #@! TO.P,C1,1*
G04 #@! TO.N,+5V*
X154902000Y-63808000D03*
G04 #@! TO.P,C1,2*
G04 #@! TO.N,GND*
X154902000Y-65808000D03*
G04 #@! TD*
D16*
G04 #@! TO.P,R3,2*
G04 #@! TO.N,/SCL*
X102050000Y-69600000D03*
G04 #@! TO.P,R3,1*
G04 #@! TO.N,+3V3*
X103950000Y-69600000D03*
G04 #@! TD*
D11*
G04 #@! TO.P,R7,1*
G04 #@! TO.N,/RX*
X162500000Y-63850000D03*
G04 #@! TO.P,R7,2*
G04 #@! TO.N,GND*
X162500000Y-61950000D03*
G04 #@! TD*
D14*
G04 #@! TO.P,K1,5*
G04 #@! TO.N,/L_CH1*
X196398540Y-73500520D03*
G04 #@! TO.P,K1,4*
G04 #@! TO.N,Net-(K1-Pad4)*
X196398540Y-85499480D03*
G04 #@! TO.P,K1,1*
G04 #@! TO.N,Net-(D1-Pad1)*
X184201460Y-73500520D03*
G04 #@! TO.P,K1,2*
G04 #@! TO.N,+5V*
X184201460Y-85499480D03*
G04 #@! TO.P,K1,3*
G04 #@! TO.N,/L*
X182202480Y-79500000D03*
G04 #@! TD*
D11*
G04 #@! TO.P,R6,1*
G04 #@! TO.N,Net-(Q2-Pad1)*
X174476000Y-75550000D03*
G04 #@! TO.P,R6,2*
G04 #@! TO.N,/CH2*
X174476000Y-77450000D03*
G04 #@! TD*
D13*
G04 #@! TO.P,J3,1*
G04 #@! TO.N,+3V3*
X123176000Y-52868000D03*
G04 #@! TO.P,J3,2*
G04 #@! TO.N,/RF_RX*
X120636000Y-52868000D03*
G04 #@! TO.P,J3,3*
G04 #@! TO.N,GND*
X118096000Y-52868000D03*
G04 #@! TD*
D17*
G04 #@! TO.P,J8,3*
G04 #@! TO.N,GND*
X158500000Y-92200000D03*
G04 #@! TO.P,J8,2*
G04 #@! TO.N,/Pos*
X158500000Y-94200000D03*
D18*
G04 #@! TO.P,J8,1*
G04 #@! TO.N,+3V3*
X158500000Y-96200000D03*
G04 #@! TD*
D13*
G04 #@! TO.P,PS1,7*
G04 #@! TO.N,+5V*
X129950000Y-51900000D03*
G04 #@! TO.P,PS1,5*
G04 #@! TO.N,/L*
X147500000Y-51900000D03*
G04 #@! TO.P,PS1,9*
G04 #@! TO.N,GND*
X127410000Y-51900000D03*
G04 #@! TO.P,PS1,1*
G04 #@! TO.N,/N*
X142400000Y-51900000D03*
G04 #@! TD*
D19*
G04 #@! TO.P,Q1,1*
G04 #@! TO.N,Net-(Q1-Pad1)*
X126276000Y-82850000D03*
G04 #@! TO.P,Q1,2*
G04 #@! TO.N,GND*
X126276000Y-84750000D03*
G04 #@! TO.P,Q1,3*
G04 #@! TO.N,Net-(D1-Pad1)*
X128276000Y-83800000D03*
G04 #@! TD*
D10*
G04 #@! TO.P,J5,1*
G04 #@! TO.N,/Ext_SW*
X116900000Y-94800000D03*
G04 #@! TO.P,J5,2*
G04 #@! TO.N,GND*
X121900000Y-94800000D03*
G04 #@! TD*
D11*
G04 #@! TO.P,R7,2*
G04 #@! TO.N,GND*
X112500000Y-61950000D03*
G04 #@! TO.P,R7,1*
G04 #@! TO.N,/RX*
X112500000Y-63850000D03*
G04 #@! TD*
D19*
G04 #@! TO.P,Q2,1*
G04 #@! TO.N,Net-(Q2-Pad1)*
X176276000Y-75450000D03*
G04 #@! TO.P,Q2,2*
G04 #@! TO.N,GND*
X176276000Y-77350000D03*
G04 #@! TO.P,Q2,3*
G04 #@! TO.N,Net-(D2-Pad1)*
X178276000Y-76400000D03*
G04 #@! TD*
D12*
G04 #@! TO.P,D1,2*
G04 #@! TO.N,GND*
X123576000Y-87700000D03*
G04 #@! TO.P,D1,1*
G04 #@! TO.N,Net-(D1-Pad1)*
X127576000Y-87700000D03*
G04 #@! TD*
D16*
G04 #@! TO.P,R4,1*
G04 #@! TO.N,+3V3*
X103950000Y-67600000D03*
G04 #@! TO.P,R4,2*
G04 #@! TO.N,/SDA*
X102050000Y-67600000D03*
G04 #@! TD*
D17*
G04 #@! TO.P,J9,3*
G04 #@! TO.N,GND*
X102500000Y-81800000D03*
G04 #@! TO.P,J9,2*
G04 #@! TO.N,/Temp*
X102500000Y-83800000D03*
D18*
G04 #@! TO.P,J9,1*
G04 #@! TO.N,+5V*
X102500000Y-85800000D03*
G04 #@! TD*
D13*
G04 #@! TO.P,J3,3*
G04 #@! TO.N,GND*
X168096000Y-52868000D03*
G04 #@! TO.P,J3,2*
G04 #@! TO.N,/RF_RX*
X170636000Y-52868000D03*
G04 #@! TO.P,J3,1*
G04 #@! TO.N,+3V3*
X173176000Y-52868000D03*
G04 #@! TD*
D16*
G04 #@! TO.P,R8,2*
G04 #@! TO.N,/Temp*
X152050000Y-60800000D03*
G04 #@! TO.P,R8,1*
G04 #@! TO.N,+3V3*
X153950000Y-60800000D03*
G04 #@! TD*
D14*
G04 #@! TO.P,K2,5*
G04 #@! TO.N,/L_CH2*
X196398540Y-57700520D03*
G04 #@! TO.P,K2,4*
G04 #@! TO.N,Net-(K2-Pad4)*
X196398540Y-69699480D03*
G04 #@! TO.P,K2,1*
G04 #@! TO.N,Net-(D2-Pad1)*
X184201460Y-57700520D03*
G04 #@! TO.P,K2,2*
G04 #@! TO.N,+5V*
X184201460Y-69699480D03*
G04 #@! TO.P,K2,3*
G04 #@! TO.N,/L*
X182202480Y-63700000D03*
G04 #@! TD*
D15*
G04 #@! TO.P,C1,2*
G04 #@! TO.N,GND*
X104902000Y-65808000D03*
G04 #@! TO.P,C1,1*
G04 #@! TO.N,+5V*
X104902000Y-63808000D03*
G04 #@! TD*
D13*
G04 #@! TO.P,PS1,1*
G04 #@! TO.N,/N*
X192400000Y-51900000D03*
G04 #@! TO.P,PS1,9*
G04 #@! TO.N,GND*
X177410000Y-51900000D03*
G04 #@! TO.P,PS1,5*
G04 #@! TO.N,/L*
X197500000Y-51900000D03*
G04 #@! TO.P,PS1,7*
G04 #@! TO.N,+5V*
X179950000Y-51900000D03*
G04 #@! TD*
D18*
G04 #@! TO.P,J9,1*
G04 #@! TO.N,+5V*
X152500000Y-85800000D03*
D17*
G04 #@! TO.P,J9,2*
G04 #@! TO.N,/Temp*
X152500000Y-83800000D03*
G04 #@! TO.P,J9,3*
G04 #@! TO.N,GND*
X152500000Y-81800000D03*
G04 #@! TD*
D11*
G04 #@! TO.P,R1,2*
G04 #@! TO.N,/Ext_SW*
X165189000Y-68044000D03*
G04 #@! TO.P,R1,1*
G04 #@! TO.N,+3V3*
X165189000Y-66144000D03*
G04 #@! TD*
D16*
G04 #@! TO.P,R8,1*
G04 #@! TO.N,+3V3*
X103950000Y-60800000D03*
G04 #@! TO.P,R8,2*
G04 #@! TO.N,/Temp*
X102050000Y-60800000D03*
G04 #@! TD*
D10*
G04 #@! TO.P,J5,2*
G04 #@! TO.N,GND*
X171900000Y-94800000D03*
G04 #@! TO.P,J5,1*
G04 #@! TO.N,/Ext_SW*
X166900000Y-94800000D03*
G04 #@! TD*
D20*
G04 #@! TO.P,U1,1*
G04 #@! TO.N,Net-(R5-Pad1)*
X156795000Y-67800000D03*
G04 #@! TO.P,U1,2*
G04 #@! TO.N,/DE*
X158065000Y-67800000D03*
G04 #@! TO.P,U1,3*
X159335000Y-67800000D03*
G04 #@! TO.P,U1,4*
G04 #@! TO.N,/TX*
X160605000Y-67800000D03*
G04 #@! TO.P,U1,5*
G04 #@! TO.N,GND*
X160605000Y-62400000D03*
G04 #@! TO.P,U1,6*
G04 #@! TO.N,/A*
X159335000Y-62400000D03*
G04 #@! TO.P,U1,7*
G04 #@! TO.N,/B*
X158065000Y-62400000D03*
G04 #@! TO.P,U1,8*
G04 #@! TO.N,+5V*
X156795000Y-62400000D03*
G04 #@! TD*
D10*
G04 #@! TO.P,J2,1*
G04 #@! TO.N,/N*
X186900000Y-94800000D03*
G04 #@! TO.P,J2,2*
G04 #@! TO.N,/L_CH1*
X181900000Y-94800000D03*
G04 #@! TO.P,J2,3*
G04 #@! TO.N,/L_CH2*
X176900000Y-94800000D03*
G04 #@! TD*
D21*
G04 #@! TO.P,M1,20*
G04 #@! TO.N,/SDA*
X152009750Y-72598118D03*
G04 #@! TO.P,M1,1*
G04 #@! TO.N,/Temp*
X152009750Y-57598118D03*
G04 #@! TO.P,M1,19*
G04 #@! TO.N,/SCL*
X154549750Y-72598118D03*
G04 #@! TO.P,M1,2*
G04 #@! TO.N,+3V3*
X154549750Y-57598118D03*
G04 #@! TO.P,M1,18*
X157089750Y-72598118D03*
G04 #@! TO.P,M1,3*
G04 #@! TO.N,+5V*
X157089750Y-57598118D03*
G04 #@! TO.P,M1,17*
G04 #@! TO.N,Net-(M1-Pad17)*
X159629750Y-72598118D03*
G04 #@! TO.P,M1,4*
G04 #@! TO.N,GND*
X159629750Y-57598118D03*
G04 #@! TO.P,M1,16*
G04 #@! TO.N,/DE*
X162169750Y-72598118D03*
G04 #@! TO.P,M1,5*
G04 #@! TO.N,/RF_TX*
X162169750Y-57598118D03*
G04 #@! TO.P,M1,15*
G04 #@! TO.N,Net-(M1-Pad15)*
X164709750Y-72598118D03*
G04 #@! TO.P,M1,6*
G04 #@! TO.N,/RF_RX*
X164709750Y-57598118D03*
G04 #@! TO.P,M1,14*
G04 #@! TO.N,/Pos*
X167249750Y-72598118D03*
G04 #@! TO.P,M1,7*
G04 #@! TO.N,Net-(M1-Pad7)*
X167249750Y-57598118D03*
G04 #@! TO.P,M1,13*
G04 #@! TO.N,/Ext_SW*
X169789750Y-72598118D03*
G04 #@! TO.P,M1,8*
G04 #@! TO.N,/RX*
X169789750Y-57598118D03*
G04 #@! TO.P,M1,12*
G04 #@! TO.N,/CH1*
X172329750Y-72598118D03*
G04 #@! TO.P,M1,9*
G04 #@! TO.N,/TX*
X172329750Y-57598118D03*
G04 #@! TO.P,M1,11*
G04 #@! TO.N,/CH2*
X174869750Y-72598118D03*
G04 #@! TO.P,M1,10*
G04 #@! TO.N,Net-(M1-Pad10)*
X174869750Y-57598118D03*
G04 #@! TD*
D14*
G04 #@! TO.P,K2,3*
G04 #@! TO.N,/L*
X132202480Y-63700000D03*
G04 #@! TO.P,K2,2*
G04 #@! TO.N,+5V*
X134201460Y-69699480D03*
G04 #@! TO.P,K2,1*
G04 #@! TO.N,Net-(D2-Pad1)*
X134201460Y-57700520D03*
G04 #@! TO.P,K2,4*
G04 #@! TO.N,Net-(K2-Pad4)*
X146398540Y-69699480D03*
G04 #@! TO.P,K2,5*
G04 #@! TO.N,/L_CH2*
X146398540Y-57700520D03*
G04 #@! TD*
D11*
G04 #@! TO.P,R5,1*
G04 #@! TO.N,Net-(R5-Pad1)*
X162500000Y-67950000D03*
G04 #@! TO.P,R5,2*
G04 #@! TO.N,/RX*
X162500000Y-66050000D03*
G04 #@! TD*
D16*
G04 #@! TO.P,R3,1*
G04 #@! TO.N,+3V3*
X153950000Y-69600000D03*
G04 #@! TO.P,R3,2*
G04 #@! TO.N,/SCL*
X152050000Y-69600000D03*
G04 #@! TD*
D12*
G04 #@! TO.P,D2,2*
G04 #@! TO.N,GND*
X173476000Y-80100000D03*
G04 #@! TO.P,D2,1*
G04 #@! TO.N,Net-(D2-Pad1)*
X177476000Y-80100000D03*
G04 #@! TD*
D16*
G04 #@! TO.P,R4,2*
G04 #@! TO.N,/SDA*
X152050000Y-67600000D03*
G04 #@! TO.P,R4,1*
G04 #@! TO.N,+3V3*
X153950000Y-67600000D03*
G04 #@! TD*
D19*
G04 #@! TO.P,Q2,3*
G04 #@! TO.N,Net-(D2-Pad1)*
X128276000Y-76400000D03*
G04 #@! TO.P,Q2,2*
G04 #@! TO.N,GND*
X126276000Y-77350000D03*
G04 #@! TO.P,Q2,1*
G04 #@! TO.N,Net-(Q2-Pad1)*
X126276000Y-75450000D03*
G04 #@! TD*
D18*
G04 #@! TO.P,J7,1*
G04 #@! TO.N,/A*
X158500000Y-85800000D03*
D17*
G04 #@! TO.P,J7,2*
G04 #@! TO.N,/B*
X158500000Y-83800000D03*
G04 #@! TO.P,J7,3*
G04 #@! TO.N,GND*
X158500000Y-81800000D03*
G04 #@! TD*
D19*
G04 #@! TO.P,Q1,3*
G04 #@! TO.N,Net-(D1-Pad1)*
X178276000Y-83800000D03*
G04 #@! TO.P,Q1,2*
G04 #@! TO.N,GND*
X176276000Y-84750000D03*
G04 #@! TO.P,Q1,1*
G04 #@! TO.N,Net-(Q1-Pad1)*
X176276000Y-82850000D03*
G04 #@! TD*
D20*
G04 #@! TO.P,U1,8*
G04 #@! TO.N,+5V*
X106795000Y-62400000D03*
G04 #@! TO.P,U1,7*
G04 #@! TO.N,/B*
X108065000Y-62400000D03*
G04 #@! TO.P,U1,6*
G04 #@! TO.N,/A*
X109335000Y-62400000D03*
G04 #@! TO.P,U1,5*
G04 #@! TO.N,GND*
X110605000Y-62400000D03*
G04 #@! TO.P,U1,4*
G04 #@! TO.N,/TX*
X110605000Y-67800000D03*
G04 #@! TO.P,U1,3*
G04 #@! TO.N,/DE*
X109335000Y-67800000D03*
G04 #@! TO.P,U1,2*
X108065000Y-67800000D03*
G04 #@! TO.P,U1,1*
G04 #@! TO.N,Net-(R5-Pad1)*
X106795000Y-67800000D03*
G04 #@! TD*
D17*
G04 #@! TO.P,J6,4*
G04 #@! TO.N,GND*
X102500000Y-91000000D03*
G04 #@! TO.P,J6,3*
G04 #@! TO.N,/SCL*
X102500000Y-93000000D03*
G04 #@! TO.P,J6,2*
G04 #@! TO.N,/SDA*
X102500000Y-95000000D03*
D18*
G04 #@! TO.P,J6,1*
G04 #@! TO.N,+3V3*
X102500000Y-97000000D03*
G04 #@! TD*
D11*
G04 #@! TO.P,R1,1*
G04 #@! TO.N,+3V3*
X115189000Y-66144000D03*
G04 #@! TO.P,R1,2*
G04 #@! TO.N,/Ext_SW*
X115189000Y-68044000D03*
G04 #@! TD*
G04 #@! TO.P,R5,2*
G04 #@! TO.N,/RX*
X112500000Y-66050000D03*
G04 #@! TO.P,R5,1*
G04 #@! TO.N,Net-(R5-Pad1)*
X112500000Y-67950000D03*
G04 #@! TD*
D12*
G04 #@! TO.P,D2,1*
G04 #@! TO.N,Net-(D2-Pad1)*
X127476000Y-80100000D03*
G04 #@! TO.P,D2,2*
G04 #@! TO.N,GND*
X123476000Y-80100000D03*
G04 #@! TD*
D11*
G04 #@! TO.P,R2,2*
G04 #@! TO.N,/CH1*
X174276000Y-82850000D03*
G04 #@! TO.P,R2,1*
G04 #@! TO.N,Net-(Q1-Pad1)*
X174276000Y-84750000D03*
G04 #@! TD*
D18*
G04 #@! TO.P,J6,1*
G04 #@! TO.N,+3V3*
X152500000Y-97000000D03*
D17*
G04 #@! TO.P,J6,2*
G04 #@! TO.N,/SDA*
X152500000Y-95000000D03*
G04 #@! TO.P,J6,3*
G04 #@! TO.N,/SCL*
X152500000Y-93000000D03*
G04 #@! TO.P,J6,4*
G04 #@! TO.N,GND*
X152500000Y-91000000D03*
G04 #@! TD*
D10*
G04 #@! TO.P,J2,3*
G04 #@! TO.N,/L_CH2*
X126900000Y-94800000D03*
G04 #@! TO.P,J2,2*
G04 #@! TO.N,/L_CH1*
X131900000Y-94800000D03*
G04 #@! TO.P,J2,1*
G04 #@! TO.N,/N*
X136900000Y-94800000D03*
G04 #@! TD*
G04 #@! TO.P,J10,2*
G04 #@! TO.N,GND*
X116332000Y-81612000D03*
G04 #@! TO.P,J10,1*
G04 #@! TO.N,+5V*
X116332000Y-86612000D03*
G04 #@! TD*
G04 #@! TO.P,J10,1*
G04 #@! TO.N,+5V*
X166332000Y-86612000D03*
G04 #@! TO.P,J10,2*
G04 #@! TO.N,GND*
X166332000Y-81612000D03*
G04 #@! TD*
D11*
G04 #@! TO.P,R2,1*
G04 #@! TO.N,Net-(Q1-Pad1)*
X124276000Y-84750000D03*
G04 #@! TO.P,R2,2*
G04 #@! TO.N,/CH1*
X124276000Y-82850000D03*
G04 #@! TD*
D10*
G04 #@! TO.P,J1,2*
G04 #@! TO.N,/N*
X141900000Y-94800000D03*
G04 #@! TO.P,J1,1*
G04 #@! TO.N,/L*
X146900000Y-94800000D03*
G04 #@! TD*
D18*
G04 #@! TO.P,J8,1*
G04 #@! TO.N,+3V3*
X108500000Y-96200000D03*
D17*
G04 #@! TO.P,J8,2*
G04 #@! TO.N,/Pos*
X108500000Y-94200000D03*
G04 #@! TO.P,J8,3*
G04 #@! TO.N,GND*
X108500000Y-92200000D03*
G04 #@! TD*
D21*
G04 #@! TO.P,M1,10*
G04 #@! TO.N,Net-(M1-Pad10)*
X124869750Y-57598118D03*
G04 #@! TO.P,M1,11*
G04 #@! TO.N,/CH2*
X124869750Y-72598118D03*
G04 #@! TO.P,M1,9*
G04 #@! TO.N,/TX*
X122329750Y-57598118D03*
G04 #@! TO.P,M1,12*
G04 #@! TO.N,/CH1*
X122329750Y-72598118D03*
G04 #@! TO.P,M1,8*
G04 #@! TO.N,/RX*
X119789750Y-57598118D03*
G04 #@! TO.P,M1,13*
G04 #@! TO.N,/Ext_SW*
X119789750Y-72598118D03*
G04 #@! TO.P,M1,7*
G04 #@! TO.N,Net-(M1-Pad7)*
X117249750Y-57598118D03*
G04 #@! TO.P,M1,14*
G04 #@! TO.N,/Pos*
X117249750Y-72598118D03*
G04 #@! TO.P,M1,6*
G04 #@! TO.N,/RF_RX*
X114709750Y-57598118D03*
G04 #@! TO.P,M1,15*
G04 #@! TO.N,Net-(M1-Pad15)*
X114709750Y-72598118D03*
G04 #@! TO.P,M1,5*
G04 #@! TO.N,/RF_TX*
X112169750Y-57598118D03*
G04 #@! TO.P,M1,16*
G04 #@! TO.N,/DE*
X112169750Y-72598118D03*
G04 #@! TO.P,M1,4*
G04 #@! TO.N,GND*
X109629750Y-57598118D03*
G04 #@! TO.P,M1,17*
G04 #@! TO.N,Net-(M1-Pad17)*
X109629750Y-72598118D03*
G04 #@! TO.P,M1,3*
G04 #@! TO.N,+5V*
X107089750Y-57598118D03*
G04 #@! TO.P,M1,18*
G04 #@! TO.N,+3V3*
X107089750Y-72598118D03*
G04 #@! TO.P,M1,2*
X104549750Y-57598118D03*
G04 #@! TO.P,M1,19*
G04 #@! TO.N,/SCL*
X104549750Y-72598118D03*
G04 #@! TO.P,M1,1*
G04 #@! TO.N,/Temp*
X102009750Y-57598118D03*
G04 #@! TO.P,M1,20*
G04 #@! TO.N,/SDA*
X102009750Y-72598118D03*
G04 #@! TD*
D17*
G04 #@! TO.P,J7,3*
G04 #@! TO.N,GND*
X108500000Y-81800000D03*
G04 #@! TO.P,J7,2*
G04 #@! TO.N,/B*
X108500000Y-83800000D03*
D18*
G04 #@! TO.P,J7,1*
G04 #@! TO.N,/A*
X108500000Y-85800000D03*
G04 #@! TD*
D11*
G04 #@! TO.P,R6,2*
G04 #@! TO.N,/CH2*
X174476000Y-127450000D03*
G04 #@! TO.P,R6,1*
G04 #@! TO.N,Net-(Q2-Pad1)*
X174476000Y-125550000D03*
G04 #@! TD*
D13*
G04 #@! TO.P,J4,1*
G04 #@! TO.N,+3V3*
X160300000Y-102627000D03*
G04 #@! TO.P,J4,2*
G04 #@! TO.N,/RF_TX*
X157760000Y-102627000D03*
G04 #@! TO.P,J4,3*
G04 #@! TO.N,GND*
X155220000Y-102627000D03*
G04 #@! TD*
D14*
G04 #@! TO.P,K1,3*
G04 #@! TO.N,/L*
X182202480Y-129500000D03*
G04 #@! TO.P,K1,2*
G04 #@! TO.N,+5V*
X184201460Y-135499480D03*
G04 #@! TO.P,K1,1*
G04 #@! TO.N,Net-(D1-Pad1)*
X184201460Y-123500520D03*
G04 #@! TO.P,K1,4*
G04 #@! TO.N,Net-(K1-Pad4)*
X196398540Y-135499480D03*
G04 #@! TO.P,K1,5*
G04 #@! TO.N,/L_CH1*
X196398540Y-123500520D03*
G04 #@! TD*
D16*
G04 #@! TO.P,R3,2*
G04 #@! TO.N,/SCL*
X152050000Y-119600000D03*
G04 #@! TO.P,R3,1*
G04 #@! TO.N,+3V3*
X153950000Y-119600000D03*
G04 #@! TD*
D13*
G04 #@! TO.P,J3,1*
G04 #@! TO.N,+3V3*
X173176000Y-102868000D03*
G04 #@! TO.P,J3,2*
G04 #@! TO.N,/RF_RX*
X170636000Y-102868000D03*
G04 #@! TO.P,J3,3*
G04 #@! TO.N,GND*
X168096000Y-102868000D03*
G04 #@! TD*
G04 #@! TO.P,PS1,7*
G04 #@! TO.N,+5V*
X179950000Y-101900000D03*
G04 #@! TO.P,PS1,5*
G04 #@! TO.N,/L*
X197500000Y-101900000D03*
G04 #@! TO.P,PS1,9*
G04 #@! TO.N,GND*
X177410000Y-101900000D03*
G04 #@! TO.P,PS1,1*
G04 #@! TO.N,/N*
X192400000Y-101900000D03*
G04 #@! TD*
D19*
G04 #@! TO.P,Q1,1*
G04 #@! TO.N,Net-(Q1-Pad1)*
X176276000Y-132850000D03*
G04 #@! TO.P,Q1,2*
G04 #@! TO.N,GND*
X176276000Y-134750000D03*
G04 #@! TO.P,Q1,3*
G04 #@! TO.N,Net-(D1-Pad1)*
X178276000Y-133800000D03*
G04 #@! TD*
D10*
G04 #@! TO.P,J5,1*
G04 #@! TO.N,/Ext_SW*
X166900000Y-144800000D03*
G04 #@! TO.P,J5,2*
G04 #@! TO.N,GND*
X171900000Y-144800000D03*
G04 #@! TD*
D11*
G04 #@! TO.P,R7,2*
G04 #@! TO.N,GND*
X162500000Y-111950000D03*
G04 #@! TO.P,R7,1*
G04 #@! TO.N,/RX*
X162500000Y-113850000D03*
G04 #@! TD*
D12*
G04 #@! TO.P,D1,2*
G04 #@! TO.N,GND*
X173576000Y-137700000D03*
G04 #@! TO.P,D1,1*
G04 #@! TO.N,Net-(D1-Pad1)*
X177576000Y-137700000D03*
G04 #@! TD*
D16*
G04 #@! TO.P,R4,1*
G04 #@! TO.N,+3V3*
X153950000Y-117600000D03*
G04 #@! TO.P,R4,2*
G04 #@! TO.N,/SDA*
X152050000Y-117600000D03*
G04 #@! TD*
D17*
G04 #@! TO.P,J9,3*
G04 #@! TO.N,GND*
X152500000Y-131800000D03*
G04 #@! TO.P,J9,2*
G04 #@! TO.N,/Temp*
X152500000Y-133800000D03*
D18*
G04 #@! TO.P,J9,1*
G04 #@! TO.N,+5V*
X152500000Y-135800000D03*
G04 #@! TD*
D15*
G04 #@! TO.P,C1,2*
G04 #@! TO.N,GND*
X154902000Y-115808000D03*
G04 #@! TO.P,C1,1*
G04 #@! TO.N,+5V*
X154902000Y-113808000D03*
G04 #@! TD*
D16*
G04 #@! TO.P,R8,1*
G04 #@! TO.N,+3V3*
X153950000Y-110800000D03*
G04 #@! TO.P,R8,2*
G04 #@! TO.N,/Temp*
X152050000Y-110800000D03*
G04 #@! TD*
D14*
G04 #@! TO.P,K2,3*
G04 #@! TO.N,/L*
X182202480Y-113700000D03*
G04 #@! TO.P,K2,2*
G04 #@! TO.N,+5V*
X184201460Y-119699480D03*
G04 #@! TO.P,K2,1*
G04 #@! TO.N,Net-(D2-Pad1)*
X184201460Y-107700520D03*
G04 #@! TO.P,K2,4*
G04 #@! TO.N,Net-(K2-Pad4)*
X196398540Y-119699480D03*
G04 #@! TO.P,K2,5*
G04 #@! TO.N,/L_CH2*
X196398540Y-107700520D03*
G04 #@! TD*
D19*
G04 #@! TO.P,Q2,3*
G04 #@! TO.N,Net-(D2-Pad1)*
X178276000Y-126400000D03*
G04 #@! TO.P,Q2,2*
G04 #@! TO.N,GND*
X176276000Y-127350000D03*
G04 #@! TO.P,Q2,1*
G04 #@! TO.N,Net-(Q2-Pad1)*
X176276000Y-125450000D03*
G04 #@! TD*
D20*
G04 #@! TO.P,U1,8*
G04 #@! TO.N,+5V*
X156795000Y-112400000D03*
G04 #@! TO.P,U1,7*
G04 #@! TO.N,/B*
X158065000Y-112400000D03*
G04 #@! TO.P,U1,6*
G04 #@! TO.N,/A*
X159335000Y-112400000D03*
G04 #@! TO.P,U1,5*
G04 #@! TO.N,GND*
X160605000Y-112400000D03*
G04 #@! TO.P,U1,4*
G04 #@! TO.N,/TX*
X160605000Y-117800000D03*
G04 #@! TO.P,U1,3*
G04 #@! TO.N,/DE*
X159335000Y-117800000D03*
G04 #@! TO.P,U1,2*
X158065000Y-117800000D03*
G04 #@! TO.P,U1,1*
G04 #@! TO.N,Net-(R5-Pad1)*
X156795000Y-117800000D03*
G04 #@! TD*
D17*
G04 #@! TO.P,J6,4*
G04 #@! TO.N,GND*
X152500000Y-141000000D03*
G04 #@! TO.P,J6,3*
G04 #@! TO.N,/SCL*
X152500000Y-143000000D03*
G04 #@! TO.P,J6,2*
G04 #@! TO.N,/SDA*
X152500000Y-145000000D03*
D18*
G04 #@! TO.P,J6,1*
G04 #@! TO.N,+3V3*
X152500000Y-147000000D03*
G04 #@! TD*
D11*
G04 #@! TO.P,R1,1*
G04 #@! TO.N,+3V3*
X165189000Y-116144000D03*
G04 #@! TO.P,R1,2*
G04 #@! TO.N,/Ext_SW*
X165189000Y-118044000D03*
G04 #@! TD*
G04 #@! TO.P,R5,2*
G04 #@! TO.N,/RX*
X162500000Y-116050000D03*
G04 #@! TO.P,R5,1*
G04 #@! TO.N,Net-(R5-Pad1)*
X162500000Y-117950000D03*
G04 #@! TD*
D12*
G04 #@! TO.P,D2,1*
G04 #@! TO.N,Net-(D2-Pad1)*
X177476000Y-130100000D03*
G04 #@! TO.P,D2,2*
G04 #@! TO.N,GND*
X173476000Y-130100000D03*
G04 #@! TD*
D10*
G04 #@! TO.P,J2,3*
G04 #@! TO.N,/L_CH2*
X176900000Y-144800000D03*
G04 #@! TO.P,J2,2*
G04 #@! TO.N,/L_CH1*
X181900000Y-144800000D03*
G04 #@! TO.P,J2,1*
G04 #@! TO.N,/N*
X186900000Y-144800000D03*
G04 #@! TD*
G04 #@! TO.P,J10,2*
G04 #@! TO.N,GND*
X166332000Y-131612000D03*
G04 #@! TO.P,J10,1*
G04 #@! TO.N,+5V*
X166332000Y-136612000D03*
G04 #@! TD*
D11*
G04 #@! TO.P,R2,1*
G04 #@! TO.N,Net-(Q1-Pad1)*
X174276000Y-134750000D03*
G04 #@! TO.P,R2,2*
G04 #@! TO.N,/CH1*
X174276000Y-132850000D03*
G04 #@! TD*
D10*
G04 #@! TO.P,J1,2*
G04 #@! TO.N,/N*
X191900000Y-144800000D03*
G04 #@! TO.P,J1,1*
G04 #@! TO.N,/L*
X196900000Y-144800000D03*
G04 #@! TD*
D18*
G04 #@! TO.P,J8,1*
G04 #@! TO.N,+3V3*
X158500000Y-146200000D03*
D17*
G04 #@! TO.P,J8,2*
G04 #@! TO.N,/Pos*
X158500000Y-144200000D03*
G04 #@! TO.P,J8,3*
G04 #@! TO.N,GND*
X158500000Y-142200000D03*
G04 #@! TD*
D21*
G04 #@! TO.P,M1,10*
G04 #@! TO.N,Net-(M1-Pad10)*
X174869750Y-107598118D03*
G04 #@! TO.P,M1,11*
G04 #@! TO.N,/CH2*
X174869750Y-122598118D03*
G04 #@! TO.P,M1,9*
G04 #@! TO.N,/TX*
X172329750Y-107598118D03*
G04 #@! TO.P,M1,12*
G04 #@! TO.N,/CH1*
X172329750Y-122598118D03*
G04 #@! TO.P,M1,8*
G04 #@! TO.N,/RX*
X169789750Y-107598118D03*
G04 #@! TO.P,M1,13*
G04 #@! TO.N,/Ext_SW*
X169789750Y-122598118D03*
G04 #@! TO.P,M1,7*
G04 #@! TO.N,Net-(M1-Pad7)*
X167249750Y-107598118D03*
G04 #@! TO.P,M1,14*
G04 #@! TO.N,/Pos*
X167249750Y-122598118D03*
G04 #@! TO.P,M1,6*
G04 #@! TO.N,/RF_RX*
X164709750Y-107598118D03*
G04 #@! TO.P,M1,15*
G04 #@! TO.N,Net-(M1-Pad15)*
X164709750Y-122598118D03*
G04 #@! TO.P,M1,5*
G04 #@! TO.N,/RF_TX*
X162169750Y-107598118D03*
G04 #@! TO.P,M1,16*
G04 #@! TO.N,/DE*
X162169750Y-122598118D03*
G04 #@! TO.P,M1,4*
G04 #@! TO.N,GND*
X159629750Y-107598118D03*
G04 #@! TO.P,M1,17*
G04 #@! TO.N,Net-(M1-Pad17)*
X159629750Y-122598118D03*
G04 #@! TO.P,M1,3*
G04 #@! TO.N,+5V*
X157089750Y-107598118D03*
G04 #@! TO.P,M1,18*
G04 #@! TO.N,+3V3*
X157089750Y-122598118D03*
G04 #@! TO.P,M1,2*
X154549750Y-107598118D03*
G04 #@! TO.P,M1,19*
G04 #@! TO.N,/SCL*
X154549750Y-122598118D03*
G04 #@! TO.P,M1,1*
G04 #@! TO.N,/Temp*
X152009750Y-107598118D03*
G04 #@! TO.P,M1,20*
G04 #@! TO.N,/SDA*
X152009750Y-122598118D03*
G04 #@! TD*
D17*
G04 #@! TO.P,J7,3*
G04 #@! TO.N,GND*
X158500000Y-131800000D03*
G04 #@! TO.P,J7,2*
G04 #@! TO.N,/B*
X158500000Y-133800000D03*
D18*
G04 #@! TO.P,J7,1*
G04 #@! TO.N,/A*
X158500000Y-135800000D03*
G04 #@! TD*
D14*
G04 #@! TO.P,K1,5*
G04 #@! TO.N,/L_CH1*
X146398540Y-123500520D03*
G04 #@! TO.P,K1,4*
G04 #@! TO.N,Net-(K1-Pad4)*
X146398540Y-135499480D03*
G04 #@! TO.P,K1,1*
G04 #@! TO.N,Net-(D1-Pad1)*
X134201460Y-123500520D03*
G04 #@! TO.P,K1,2*
G04 #@! TO.N,+5V*
X134201460Y-135499480D03*
G04 #@! TO.P,K1,3*
G04 #@! TO.N,/L*
X132202480Y-129500000D03*
G04 #@! TD*
G04 #@! TO.P,K2,5*
G04 #@! TO.N,/L_CH2*
X146398540Y-107700520D03*
G04 #@! TO.P,K2,4*
G04 #@! TO.N,Net-(K2-Pad4)*
X146398540Y-119699480D03*
G04 #@! TO.P,K2,1*
G04 #@! TO.N,Net-(D2-Pad1)*
X134201460Y-107700520D03*
G04 #@! TO.P,K2,2*
G04 #@! TO.N,+5V*
X134201460Y-119699480D03*
G04 #@! TO.P,K2,3*
G04 #@! TO.N,/L*
X132202480Y-113700000D03*
G04 #@! TD*
D13*
G04 #@! TO.P,PS1,1*
G04 #@! TO.N,/N*
X142400000Y-101900000D03*
G04 #@! TO.P,PS1,9*
G04 #@! TO.N,GND*
X127410000Y-101900000D03*
G04 #@! TO.P,PS1,5*
G04 #@! TO.N,/L*
X147500000Y-101900000D03*
G04 #@! TO.P,PS1,7*
G04 #@! TO.N,+5V*
X129950000Y-101900000D03*
G04 #@! TD*
G04 #@! TO.P,J3,3*
G04 #@! TO.N,GND*
X118096000Y-102868000D03*
G04 #@! TO.P,J3,2*
G04 #@! TO.N,/RF_RX*
X120636000Y-102868000D03*
G04 #@! TO.P,J3,1*
G04 #@! TO.N,+3V3*
X123176000Y-102868000D03*
G04 #@! TD*
D21*
G04 #@! TO.P,M1,20*
G04 #@! TO.N,/SDA*
X102009750Y-122598118D03*
G04 #@! TO.P,M1,1*
G04 #@! TO.N,/Temp*
X102009750Y-107598118D03*
G04 #@! TO.P,M1,19*
G04 #@! TO.N,/SCL*
X104549750Y-122598118D03*
G04 #@! TO.P,M1,2*
G04 #@! TO.N,+3V3*
X104549750Y-107598118D03*
G04 #@! TO.P,M1,18*
X107089750Y-122598118D03*
G04 #@! TO.P,M1,3*
G04 #@! TO.N,+5V*
X107089750Y-107598118D03*
G04 #@! TO.P,M1,17*
G04 #@! TO.N,Net-(M1-Pad17)*
X109629750Y-122598118D03*
G04 #@! TO.P,M1,4*
G04 #@! TO.N,GND*
X109629750Y-107598118D03*
G04 #@! TO.P,M1,16*
G04 #@! TO.N,/DE*
X112169750Y-122598118D03*
G04 #@! TO.P,M1,5*
G04 #@! TO.N,/RF_TX*
X112169750Y-107598118D03*
G04 #@! TO.P,M1,15*
G04 #@! TO.N,Net-(M1-Pad15)*
X114709750Y-122598118D03*
G04 #@! TO.P,M1,6*
G04 #@! TO.N,/RF_RX*
X114709750Y-107598118D03*
G04 #@! TO.P,M1,14*
G04 #@! TO.N,/Pos*
X117249750Y-122598118D03*
G04 #@! TO.P,M1,7*
G04 #@! TO.N,Net-(M1-Pad7)*
X117249750Y-107598118D03*
G04 #@! TO.P,M1,13*
G04 #@! TO.N,/Ext_SW*
X119789750Y-122598118D03*
G04 #@! TO.P,M1,8*
G04 #@! TO.N,/RX*
X119789750Y-107598118D03*
G04 #@! TO.P,M1,12*
G04 #@! TO.N,/CH1*
X122329750Y-122598118D03*
G04 #@! TO.P,M1,9*
G04 #@! TO.N,/TX*
X122329750Y-107598118D03*
G04 #@! TO.P,M1,11*
G04 #@! TO.N,/CH2*
X124869750Y-122598118D03*
G04 #@! TO.P,M1,10*
G04 #@! TO.N,Net-(M1-Pad10)*
X124869750Y-107598118D03*
G04 #@! TD*
D13*
G04 #@! TO.P,J4,3*
G04 #@! TO.N,GND*
X105220000Y-102627000D03*
G04 #@! TO.P,J4,2*
G04 #@! TO.N,/RF_TX*
X107760000Y-102627000D03*
G04 #@! TO.P,J4,1*
G04 #@! TO.N,+3V3*
X110300000Y-102627000D03*
G04 #@! TD*
D15*
G04 #@! TO.P,C1,1*
G04 #@! TO.N,+5V*
X104902000Y-113808000D03*
G04 #@! TO.P,C1,2*
G04 #@! TO.N,GND*
X104902000Y-115808000D03*
G04 #@! TD*
D12*
G04 #@! TO.P,D1,1*
G04 #@! TO.N,Net-(D1-Pad1)*
X127576000Y-137700000D03*
G04 #@! TO.P,D1,2*
G04 #@! TO.N,GND*
X123576000Y-137700000D03*
G04 #@! TD*
G04 #@! TO.P,D2,2*
G04 #@! TO.N,GND*
X123476000Y-130100000D03*
G04 #@! TO.P,D2,1*
G04 #@! TO.N,Net-(D2-Pad1)*
X127476000Y-130100000D03*
G04 #@! TD*
D18*
G04 #@! TO.P,J6,1*
G04 #@! TO.N,+3V3*
X102500000Y-147000000D03*
D17*
G04 #@! TO.P,J6,2*
G04 #@! TO.N,/SDA*
X102500000Y-145000000D03*
G04 #@! TO.P,J6,3*
G04 #@! TO.N,/SCL*
X102500000Y-143000000D03*
G04 #@! TO.P,J6,4*
G04 #@! TO.N,GND*
X102500000Y-141000000D03*
G04 #@! TD*
D18*
G04 #@! TO.P,J7,1*
G04 #@! TO.N,/A*
X108500000Y-135800000D03*
D17*
G04 #@! TO.P,J7,2*
G04 #@! TO.N,/B*
X108500000Y-133800000D03*
G04 #@! TO.P,J7,3*
G04 #@! TO.N,GND*
X108500000Y-131800000D03*
G04 #@! TD*
G04 #@! TO.P,J8,3*
G04 #@! TO.N,GND*
X108500000Y-142200000D03*
G04 #@! TO.P,J8,2*
G04 #@! TO.N,/Pos*
X108500000Y-144200000D03*
D18*
G04 #@! TO.P,J8,1*
G04 #@! TO.N,+3V3*
X108500000Y-146200000D03*
G04 #@! TD*
G04 #@! TO.P,J9,1*
G04 #@! TO.N,+5V*
X102500000Y-135800000D03*
D17*
G04 #@! TO.P,J9,2*
G04 #@! TO.N,/Temp*
X102500000Y-133800000D03*
G04 #@! TO.P,J9,3*
G04 #@! TO.N,GND*
X102500000Y-131800000D03*
G04 #@! TD*
D19*
G04 #@! TO.P,Q1,3*
G04 #@! TO.N,Net-(D1-Pad1)*
X128276000Y-133800000D03*
G04 #@! TO.P,Q1,2*
G04 #@! TO.N,GND*
X126276000Y-134750000D03*
G04 #@! TO.P,Q1,1*
G04 #@! TO.N,Net-(Q1-Pad1)*
X126276000Y-132850000D03*
G04 #@! TD*
G04 #@! TO.P,Q2,1*
G04 #@! TO.N,Net-(Q2-Pad1)*
X126276000Y-125450000D03*
G04 #@! TO.P,Q2,2*
G04 #@! TO.N,GND*
X126276000Y-127350000D03*
G04 #@! TO.P,Q2,3*
G04 #@! TO.N,Net-(D2-Pad1)*
X128276000Y-126400000D03*
G04 #@! TD*
D11*
G04 #@! TO.P,R1,2*
G04 #@! TO.N,/Ext_SW*
X115189000Y-118044000D03*
G04 #@! TO.P,R1,1*
G04 #@! TO.N,+3V3*
X115189000Y-116144000D03*
G04 #@! TD*
G04 #@! TO.P,R2,2*
G04 #@! TO.N,/CH1*
X124276000Y-132850000D03*
G04 #@! TO.P,R2,1*
G04 #@! TO.N,Net-(Q1-Pad1)*
X124276000Y-134750000D03*
G04 #@! TD*
D16*
G04 #@! TO.P,R3,1*
G04 #@! TO.N,+3V3*
X103950000Y-119600000D03*
G04 #@! TO.P,R3,2*
G04 #@! TO.N,/SCL*
X102050000Y-119600000D03*
G04 #@! TD*
G04 #@! TO.P,R4,2*
G04 #@! TO.N,/SDA*
X102050000Y-117600000D03*
G04 #@! TO.P,R4,1*
G04 #@! TO.N,+3V3*
X103950000Y-117600000D03*
G04 #@! TD*
D11*
G04 #@! TO.P,R5,1*
G04 #@! TO.N,Net-(R5-Pad1)*
X112500000Y-117950000D03*
G04 #@! TO.P,R5,2*
G04 #@! TO.N,/RX*
X112500000Y-116050000D03*
G04 #@! TD*
G04 #@! TO.P,R6,1*
G04 #@! TO.N,Net-(Q2-Pad1)*
X124476000Y-125550000D03*
G04 #@! TO.P,R6,2*
G04 #@! TO.N,/CH2*
X124476000Y-127450000D03*
G04 #@! TD*
G04 #@! TO.P,R7,1*
G04 #@! TO.N,/RX*
X112500000Y-113850000D03*
G04 #@! TO.P,R7,2*
G04 #@! TO.N,GND*
X112500000Y-111950000D03*
G04 #@! TD*
D16*
G04 #@! TO.P,R8,2*
G04 #@! TO.N,/Temp*
X102050000Y-110800000D03*
G04 #@! TO.P,R8,1*
G04 #@! TO.N,+3V3*
X103950000Y-110800000D03*
G04 #@! TD*
D20*
G04 #@! TO.P,U1,1*
G04 #@! TO.N,Net-(R5-Pad1)*
X106795000Y-117800000D03*
G04 #@! TO.P,U1,2*
G04 #@! TO.N,/DE*
X108065000Y-117800000D03*
G04 #@! TO.P,U1,3*
X109335000Y-117800000D03*
G04 #@! TO.P,U1,4*
G04 #@! TO.N,/TX*
X110605000Y-117800000D03*
G04 #@! TO.P,U1,5*
G04 #@! TO.N,GND*
X110605000Y-112400000D03*
G04 #@! TO.P,U1,6*
G04 #@! TO.N,/A*
X109335000Y-112400000D03*
G04 #@! TO.P,U1,7*
G04 #@! TO.N,/B*
X108065000Y-112400000D03*
G04 #@! TO.P,U1,8*
G04 #@! TO.N,+5V*
X106795000Y-112400000D03*
G04 #@! TD*
D10*
G04 #@! TO.P,J1,1*
G04 #@! TO.N,/L*
X146900000Y-144800000D03*
G04 #@! TO.P,J1,2*
G04 #@! TO.N,/N*
X141900000Y-144800000D03*
G04 #@! TD*
G04 #@! TO.P,J2,1*
G04 #@! TO.N,/N*
X136900000Y-144800000D03*
G04 #@! TO.P,J2,2*
G04 #@! TO.N,/L_CH1*
X131900000Y-144800000D03*
G04 #@! TO.P,J2,3*
G04 #@! TO.N,/L_CH2*
X126900000Y-144800000D03*
G04 #@! TD*
G04 #@! TO.P,J5,2*
G04 #@! TO.N,GND*
X121900000Y-144800000D03*
G04 #@! TO.P,J5,1*
G04 #@! TO.N,/Ext_SW*
X116900000Y-144800000D03*
G04 #@! TD*
G04 #@! TO.P,J10,1*
G04 #@! TO.N,+5V*
X116332000Y-136612000D03*
G04 #@! TO.P,J10,2*
G04 #@! TO.N,GND*
X116332000Y-131612000D03*
G04 #@! TD*
D22*
G04 #@! TO.N,+5V*
X124968000Y-101219000D03*
X102489000Y-102870000D03*
X109220000Y-138811000D03*
X159220000Y-138811000D03*
X174968000Y-101219000D03*
X152489000Y-102870000D03*
X109220000Y-88811000D03*
X124968000Y-51219000D03*
X152489000Y-52870000D03*
X102489000Y-52870000D03*
X159220000Y-88811000D03*
X174968000Y-51219000D03*
G04 #@! TO.N,GND*
X105283000Y-117729000D03*
X155283000Y-117729000D03*
X105283000Y-67729000D03*
X155283000Y-67729000D03*
G04 #@! TO.N,/A*
X120015000Y-127889000D03*
X109347000Y-114427000D03*
X118237000Y-114808000D03*
X128524000Y-122936000D03*
X178524000Y-122936000D03*
X159347000Y-114427000D03*
X168237000Y-114808000D03*
X170015000Y-127889000D03*
X128524000Y-72936000D03*
X159347000Y-64427000D03*
X178524000Y-72936000D03*
X109347000Y-64427000D03*
X168237000Y-64808000D03*
X118237000Y-64808000D03*
X170015000Y-77889000D03*
X120015000Y-77889000D03*
G04 #@! TO.N,/B*
X120015000Y-126111000D03*
X127508000Y-123063000D03*
X116967000Y-115697000D03*
X108077000Y-115443000D03*
X177508000Y-123063000D03*
X170015000Y-126111000D03*
X166967000Y-115697000D03*
X158077000Y-115443000D03*
X127508000Y-73063000D03*
X120015000Y-76111000D03*
X116967000Y-65697000D03*
X158077000Y-65443000D03*
X177508000Y-73063000D03*
X170015000Y-76111000D03*
X108077000Y-65443000D03*
X166967000Y-65697000D03*
G04 #@! TO.N,/Temp*
X101727000Y-112395000D03*
X151727000Y-112395000D03*
X101727000Y-62395000D03*
X151727000Y-62395000D03*
G04 #@! TD*
D23*
G04 #@! TO.N,+5V*
X106795000Y-107892868D02*
X107089750Y-107598118D01*
X106795000Y-112400000D02*
X106795000Y-107892868D01*
X105387000Y-113808000D02*
X106795000Y-112400000D01*
X104902000Y-113808000D02*
X105387000Y-113808000D01*
X129950000Y-101900000D02*
X127964000Y-103886000D01*
X127964000Y-103886000D02*
X125857000Y-103886000D01*
X125857000Y-103886000D02*
X124968000Y-102997000D01*
X124968000Y-102997000D02*
X124968000Y-101219000D01*
X102489000Y-102870000D02*
X102489000Y-103505000D01*
X102489000Y-103505000D02*
X104394000Y-105410000D01*
X104394000Y-105410000D02*
X106426000Y-105410000D01*
X107089750Y-106073750D02*
X107089750Y-107598118D01*
X106426000Y-105410000D02*
X107089750Y-106073750D01*
X110617000Y-138811000D02*
X112816000Y-136612000D01*
X112816000Y-136612000D02*
X116332000Y-136612000D01*
X109220000Y-138811000D02*
X110617000Y-138811000D01*
X134201460Y-137578540D02*
X134201460Y-135499480D01*
X116332000Y-136612000D02*
X118832000Y-136612000D01*
X121412000Y-139192000D02*
X132588000Y-139192000D01*
X118832000Y-136612000D02*
X121412000Y-139192000D01*
X132588000Y-139192000D02*
X134201460Y-137578540D01*
X154394000Y-105410000D02*
X156426000Y-105410000D01*
X157089750Y-106073750D02*
X157089750Y-107598118D01*
X182588000Y-139192000D02*
X184201460Y-137578540D01*
X177964000Y-103886000D02*
X175857000Y-103886000D01*
X156795000Y-107892868D02*
X157089750Y-107598118D01*
X154902000Y-113808000D02*
X155387000Y-113808000D01*
X175857000Y-103886000D02*
X174968000Y-102997000D01*
X160617000Y-138811000D02*
X162816000Y-136612000D01*
X162816000Y-136612000D02*
X166332000Y-136612000D01*
X184201460Y-137578540D02*
X184201460Y-135499480D01*
X166332000Y-136612000D02*
X168832000Y-136612000D01*
X171412000Y-139192000D02*
X182588000Y-139192000D01*
X174968000Y-102997000D02*
X174968000Y-101219000D01*
X159220000Y-138811000D02*
X160617000Y-138811000D01*
X156426000Y-105410000D02*
X157089750Y-106073750D01*
X168832000Y-136612000D02*
X171412000Y-139192000D01*
X179950000Y-101900000D02*
X177964000Y-103886000D01*
X155387000Y-113808000D02*
X156795000Y-112400000D01*
X156795000Y-112400000D02*
X156795000Y-107892868D01*
X152489000Y-102870000D02*
X152489000Y-103505000D01*
X152489000Y-103505000D02*
X154394000Y-105410000D01*
X104394000Y-55410000D02*
X106426000Y-55410000D01*
X107089750Y-56073750D02*
X107089750Y-57598118D01*
X174968000Y-52997000D02*
X174968000Y-51219000D01*
X132588000Y-89192000D02*
X134201460Y-87578540D01*
X127964000Y-53886000D02*
X125857000Y-53886000D01*
X154394000Y-55410000D02*
X156426000Y-55410000D01*
X162816000Y-86612000D02*
X166332000Y-86612000D01*
X106795000Y-57892868D02*
X107089750Y-57598118D01*
X104902000Y-63808000D02*
X105387000Y-63808000D01*
X125857000Y-53886000D02*
X124968000Y-52997000D01*
X182588000Y-89192000D02*
X184201460Y-87578540D01*
X110617000Y-88811000D02*
X112816000Y-86612000D01*
X112816000Y-86612000D02*
X116332000Y-86612000D01*
X134201460Y-87578540D02*
X134201460Y-85499480D01*
X116332000Y-86612000D02*
X118832000Y-86612000D01*
X121412000Y-89192000D02*
X132588000Y-89192000D01*
X156795000Y-57892868D02*
X157089750Y-57598118D01*
X124968000Y-52997000D02*
X124968000Y-51219000D01*
X154902000Y-63808000D02*
X155387000Y-63808000D01*
X159220000Y-88811000D02*
X160617000Y-88811000D01*
X109220000Y-88811000D02*
X110617000Y-88811000D01*
X156795000Y-62400000D02*
X156795000Y-57892868D01*
X184201460Y-87578540D02*
X184201460Y-85499480D01*
X177964000Y-53886000D02*
X175857000Y-53886000D01*
X106426000Y-55410000D02*
X107089750Y-56073750D01*
X152489000Y-52870000D02*
X152489000Y-53505000D01*
X166332000Y-86612000D02*
X168832000Y-86612000D01*
X118832000Y-86612000D02*
X121412000Y-89192000D01*
X129950000Y-51900000D02*
X127964000Y-53886000D01*
X179950000Y-51900000D02*
X177964000Y-53886000D01*
X105387000Y-63808000D02*
X106795000Y-62400000D01*
X156426000Y-55410000D02*
X157089750Y-56073750D01*
X175857000Y-53886000D02*
X174968000Y-52997000D01*
X106795000Y-62400000D02*
X106795000Y-57892868D01*
X157089750Y-56073750D02*
X157089750Y-57598118D01*
X155387000Y-63808000D02*
X156795000Y-62400000D01*
X168832000Y-86612000D02*
X171412000Y-89192000D01*
X160617000Y-88811000D02*
X162816000Y-86612000D01*
X171412000Y-89192000D02*
X182588000Y-89192000D01*
X102489000Y-52870000D02*
X102489000Y-53505000D01*
X102489000Y-53505000D02*
X104394000Y-55410000D01*
X152489000Y-53505000D02*
X154394000Y-55410000D01*
G04 #@! TO.N,GND*
X123576000Y-136550000D02*
X123576000Y-137700000D01*
X126276000Y-134750000D02*
X126276000Y-135598000D01*
X125603000Y-136271000D02*
X123855000Y-136271000D01*
X126276000Y-135598000D02*
X125603000Y-136271000D01*
X123855000Y-136271000D02*
X123576000Y-136550000D01*
X126326000Y-134750000D02*
X127254000Y-133822000D01*
X126276000Y-134750000D02*
X126326000Y-134750000D01*
X127254000Y-133822000D02*
X127254000Y-132207000D01*
X127254000Y-132207000D02*
X126873000Y-131826000D01*
X126873000Y-131826000D02*
X123825000Y-131826000D01*
X123476000Y-131477000D02*
X123476000Y-130100000D01*
X123825000Y-131826000D02*
X123476000Y-131477000D01*
X126276000Y-128000000D02*
X125752000Y-128524000D01*
X126276000Y-127350000D02*
X126276000Y-128000000D01*
X125752000Y-128524000D02*
X123698000Y-128524000D01*
X123476000Y-128746000D02*
X123476000Y-130100000D01*
X123698000Y-128524000D02*
X123476000Y-128746000D01*
X111055000Y-111950000D02*
X110605000Y-112400000D01*
X112500000Y-111950000D02*
X111055000Y-111950000D01*
X110605000Y-109987581D02*
X110605000Y-111375000D01*
X110605000Y-111375000D02*
X110605000Y-112400000D01*
X109629750Y-109012331D02*
X110605000Y-109987581D01*
X109629750Y-107598118D02*
X109629750Y-109012331D01*
X104902000Y-116558000D02*
X105283000Y-116939000D01*
X104902000Y-115808000D02*
X104902000Y-116558000D01*
X105283000Y-116939000D02*
X105283000Y-117729000D01*
X121444000Y-137700000D02*
X123576000Y-137700000D01*
X116332000Y-131612000D02*
X119160427Y-131612000D01*
X120396000Y-136652000D02*
X121444000Y-137700000D01*
X119160427Y-131612000D02*
X120396000Y-132847573D01*
X120396000Y-132847573D02*
X120396000Y-136652000D01*
X155283000Y-116939000D02*
X155283000Y-117729000D01*
X160605000Y-111375000D02*
X160605000Y-112400000D01*
X159629750Y-109012331D02*
X160605000Y-109987581D01*
X159629750Y-107598118D02*
X159629750Y-109012331D01*
X154902000Y-116558000D02*
X155283000Y-116939000D01*
X176276000Y-134750000D02*
X176276000Y-135598000D01*
X176276000Y-128000000D02*
X175752000Y-128524000D01*
X176276000Y-127350000D02*
X176276000Y-128000000D01*
X175752000Y-128524000D02*
X173698000Y-128524000D01*
X154902000Y-115808000D02*
X154902000Y-116558000D01*
X175603000Y-136271000D02*
X173855000Y-136271000D01*
X176276000Y-135598000D02*
X175603000Y-136271000D01*
X173576000Y-136550000D02*
X173576000Y-137700000D01*
X173476000Y-128746000D02*
X173476000Y-130100000D01*
X173698000Y-128524000D02*
X173476000Y-128746000D01*
X177254000Y-133822000D02*
X177254000Y-132207000D01*
X177254000Y-132207000D02*
X176873000Y-131826000D01*
X176873000Y-131826000D02*
X173825000Y-131826000D01*
X173476000Y-131477000D02*
X173476000Y-130100000D01*
X173855000Y-136271000D02*
X173576000Y-136550000D01*
X176326000Y-134750000D02*
X177254000Y-133822000D01*
X176276000Y-134750000D02*
X176326000Y-134750000D01*
X166332000Y-131612000D02*
X169160427Y-131612000D01*
X170396000Y-136652000D02*
X171444000Y-137700000D01*
X169160427Y-131612000D02*
X170396000Y-132847573D01*
X161055000Y-111950000D02*
X160605000Y-112400000D01*
X162500000Y-111950000D02*
X161055000Y-111950000D01*
X170396000Y-132847573D02*
X170396000Y-136652000D01*
X173825000Y-131826000D02*
X173476000Y-131477000D01*
X171444000Y-137700000D02*
X173576000Y-137700000D01*
X160605000Y-109987581D02*
X160605000Y-111375000D01*
X173576000Y-86550000D02*
X173576000Y-87700000D01*
X105283000Y-66939000D02*
X105283000Y-67729000D01*
X176276000Y-84750000D02*
X176326000Y-84750000D01*
X170396000Y-82847573D02*
X170396000Y-86652000D01*
X110605000Y-61375000D02*
X110605000Y-62400000D01*
X109629750Y-59012331D02*
X110605000Y-59987581D01*
X175603000Y-86271000D02*
X173855000Y-86271000D01*
X161055000Y-61950000D02*
X160605000Y-62400000D01*
X109629750Y-57598118D02*
X109629750Y-59012331D01*
X104902000Y-66558000D02*
X105283000Y-66939000D01*
X176326000Y-84750000D02*
X177254000Y-83822000D01*
X126276000Y-84750000D02*
X126276000Y-85598000D01*
X126276000Y-78000000D02*
X125752000Y-78524000D01*
X162500000Y-61950000D02*
X161055000Y-61950000D01*
X126276000Y-77350000D02*
X126276000Y-78000000D01*
X125752000Y-78524000D02*
X123698000Y-78524000D01*
X176873000Y-81826000D02*
X173825000Y-81826000D01*
X104902000Y-65808000D02*
X104902000Y-66558000D01*
X176276000Y-84750000D02*
X176276000Y-85598000D01*
X159629750Y-59012331D02*
X160605000Y-59987581D01*
X169160427Y-81612000D02*
X170396000Y-82847573D01*
X160605000Y-61375000D02*
X160605000Y-62400000D01*
X125603000Y-86271000D02*
X123855000Y-86271000D01*
X126276000Y-85598000D02*
X125603000Y-86271000D01*
X173855000Y-86271000D02*
X173576000Y-86550000D01*
X166332000Y-81612000D02*
X169160427Y-81612000D01*
X155283000Y-66939000D02*
X155283000Y-67729000D01*
X177254000Y-83822000D02*
X177254000Y-82207000D01*
X123576000Y-86550000D02*
X123576000Y-87700000D01*
X160605000Y-59987581D02*
X160605000Y-61375000D01*
X176276000Y-77350000D02*
X176276000Y-78000000D01*
X123476000Y-78746000D02*
X123476000Y-80100000D01*
X123698000Y-78524000D02*
X123476000Y-78746000D01*
X127254000Y-83822000D02*
X127254000Y-82207000D01*
X127254000Y-82207000D02*
X126873000Y-81826000D01*
X170396000Y-86652000D02*
X171444000Y-87700000D01*
X126873000Y-81826000D02*
X123825000Y-81826000D01*
X123476000Y-81477000D02*
X123476000Y-80100000D01*
X176276000Y-78000000D02*
X175752000Y-78524000D01*
X173476000Y-78746000D02*
X173476000Y-80100000D01*
X123855000Y-86271000D02*
X123576000Y-86550000D01*
X126326000Y-84750000D02*
X127254000Y-83822000D01*
X173476000Y-81477000D02*
X173476000Y-80100000D01*
X126276000Y-84750000D02*
X126326000Y-84750000D01*
X116332000Y-81612000D02*
X119160427Y-81612000D01*
X120396000Y-86652000D02*
X121444000Y-87700000D01*
X119160427Y-81612000D02*
X120396000Y-82847573D01*
X111055000Y-61950000D02*
X110605000Y-62400000D01*
X112500000Y-61950000D02*
X111055000Y-61950000D01*
X171444000Y-87700000D02*
X173576000Y-87700000D01*
X120396000Y-82847573D02*
X120396000Y-86652000D01*
X159629750Y-57598118D02*
X159629750Y-59012331D01*
X123825000Y-81826000D02*
X123476000Y-81477000D01*
X175752000Y-78524000D02*
X173698000Y-78524000D01*
X154902000Y-65808000D02*
X154902000Y-66558000D01*
X173698000Y-78524000D02*
X173476000Y-78746000D01*
X154902000Y-66558000D02*
X155283000Y-66939000D01*
X121444000Y-87700000D02*
X123576000Y-87700000D01*
X110605000Y-59987581D02*
X110605000Y-61375000D01*
X176276000Y-85598000D02*
X175603000Y-86271000D01*
X173825000Y-81826000D02*
X173476000Y-81477000D01*
X177254000Y-82207000D02*
X176873000Y-81826000D01*
G04 #@! TO.N,Net-(D1-Pad1)*
X127576000Y-137700000D02*
X127576000Y-136253800D01*
X128276000Y-135553800D02*
X128276000Y-133800000D01*
X127576000Y-136253800D02*
X128276000Y-135553800D01*
X131007480Y-123500520D02*
X134201460Y-123500520D01*
X130048000Y-124460000D02*
X131007480Y-123500520D01*
X130048000Y-125984000D02*
X130048000Y-124460000D01*
X128276000Y-133800000D02*
X129090000Y-133800000D01*
X129090000Y-133800000D02*
X129540000Y-133350000D01*
X129540000Y-133350000D02*
X129540000Y-126492000D01*
X129540000Y-126492000D02*
X130048000Y-125984000D01*
X177576000Y-136253800D02*
X178276000Y-135553800D01*
X178276000Y-133800000D02*
X179090000Y-133800000D01*
X181007480Y-123500520D02*
X184201460Y-123500520D01*
X179540000Y-126492000D02*
X180048000Y-125984000D01*
X178276000Y-135553800D02*
X178276000Y-133800000D01*
X180048000Y-124460000D02*
X181007480Y-123500520D01*
X180048000Y-125984000D02*
X180048000Y-124460000D01*
X177576000Y-137700000D02*
X177576000Y-136253800D01*
X179090000Y-133800000D02*
X179540000Y-133350000D01*
X179540000Y-133350000D02*
X179540000Y-126492000D01*
X178276000Y-83800000D02*
X179090000Y-83800000D01*
X127576000Y-86253800D02*
X128276000Y-85553800D01*
X179090000Y-83800000D02*
X179540000Y-83350000D01*
X178276000Y-85553800D02*
X178276000Y-83800000D01*
X180048000Y-75984000D02*
X180048000Y-74460000D01*
X181007480Y-73500520D02*
X184201460Y-73500520D01*
X128276000Y-83800000D02*
X129090000Y-83800000D01*
X131007480Y-73500520D02*
X134201460Y-73500520D01*
X129540000Y-76492000D02*
X130048000Y-75984000D01*
X128276000Y-85553800D02*
X128276000Y-83800000D01*
X177576000Y-87700000D02*
X177576000Y-86253800D01*
X130048000Y-74460000D02*
X131007480Y-73500520D01*
X130048000Y-75984000D02*
X130048000Y-74460000D01*
X127576000Y-87700000D02*
X127576000Y-86253800D01*
X129090000Y-83800000D02*
X129540000Y-83350000D01*
X129540000Y-83350000D02*
X129540000Y-76492000D01*
X179540000Y-76492000D02*
X180048000Y-75984000D01*
X180048000Y-74460000D02*
X181007480Y-73500520D01*
X177576000Y-86253800D02*
X178276000Y-85553800D01*
X179540000Y-83350000D02*
X179540000Y-76492000D01*
G04 #@! TO.N,Net-(D2-Pad1)*
X128276000Y-126400000D02*
X128276000Y-127756000D01*
X127476000Y-128556000D02*
X127476000Y-130100000D01*
X128276000Y-127756000D02*
X127476000Y-128556000D01*
X131049480Y-107700520D02*
X134201460Y-107700520D01*
X129540000Y-109210000D02*
X131049480Y-107700520D01*
X128276000Y-126400000D02*
X128976000Y-126400000D01*
X128976000Y-126400000D02*
X129540000Y-125836000D01*
X129540000Y-125836000D02*
X129540000Y-109210000D01*
X178976000Y-126400000D02*
X179540000Y-125836000D01*
X179540000Y-125836000D02*
X179540000Y-109210000D01*
X177476000Y-128556000D02*
X177476000Y-130100000D01*
X178276000Y-127756000D02*
X177476000Y-128556000D01*
X178276000Y-126400000D02*
X178276000Y-127756000D01*
X181049480Y-107700520D02*
X184201460Y-107700520D01*
X179540000Y-109210000D02*
X181049480Y-107700520D01*
X178276000Y-126400000D02*
X178976000Y-126400000D01*
X179540000Y-75836000D02*
X179540000Y-59210000D01*
X128976000Y-76400000D02*
X129540000Y-75836000D01*
X129540000Y-75836000D02*
X129540000Y-59210000D01*
X127476000Y-78556000D02*
X127476000Y-80100000D01*
X128276000Y-77756000D02*
X127476000Y-78556000D01*
X179540000Y-59210000D02*
X181049480Y-57700520D01*
X178276000Y-76400000D02*
X178976000Y-76400000D01*
X177476000Y-78556000D02*
X177476000Y-80100000D01*
X178276000Y-76400000D02*
X178276000Y-77756000D01*
X178976000Y-76400000D02*
X179540000Y-75836000D01*
X128276000Y-76400000D02*
X128276000Y-77756000D01*
X131049480Y-57700520D02*
X134201460Y-57700520D01*
X181049480Y-57700520D02*
X184201460Y-57700520D01*
X178276000Y-77756000D02*
X177476000Y-78556000D01*
X129540000Y-59210000D02*
X131049480Y-57700520D01*
X128276000Y-76400000D02*
X128976000Y-76400000D01*
D24*
G04 #@! TO.N,/N*
X141900000Y-144800000D02*
X136900000Y-144800000D01*
X191900000Y-144800000D02*
X186900000Y-144800000D01*
X191900000Y-94800000D02*
X186900000Y-94800000D01*
X141900000Y-94800000D02*
X136900000Y-94800000D01*
G04 #@! TO.N,/L*
X141224000Y-108176000D02*
X147500000Y-101900000D01*
X146900000Y-141971573D02*
X141224000Y-136295573D01*
X146900000Y-144800000D02*
X146900000Y-141971573D01*
X139284000Y-113700000D02*
X141224000Y-111760000D01*
X141224000Y-111760000D02*
X141224000Y-108176000D01*
X132202480Y-113700000D02*
X139284000Y-113700000D01*
X141224000Y-136295573D02*
X141224000Y-128524000D01*
X137708000Y-129500000D02*
X141224000Y-125984000D01*
X132202480Y-129500000D02*
X137708000Y-129500000D01*
X141224000Y-125984000D02*
X141224000Y-111760000D01*
X141224000Y-128524000D02*
X141224000Y-125984000D01*
X189284000Y-113700000D02*
X191224000Y-111760000D01*
X196900000Y-144800000D02*
X196900000Y-141971573D01*
X191224000Y-136295573D02*
X191224000Y-128524000D01*
X182202480Y-113700000D02*
X189284000Y-113700000D01*
X182202480Y-129500000D02*
X187708000Y-129500000D01*
X191224000Y-125984000D02*
X191224000Y-111760000D01*
X187708000Y-129500000D02*
X191224000Y-125984000D01*
X191224000Y-108176000D02*
X197500000Y-101900000D01*
X196900000Y-141971573D02*
X191224000Y-136295573D01*
X191224000Y-111760000D02*
X191224000Y-108176000D01*
X191224000Y-128524000D02*
X191224000Y-125984000D01*
X196900000Y-94800000D02*
X196900000Y-91971573D01*
X182202480Y-79500000D02*
X187708000Y-79500000D01*
X139284000Y-63700000D02*
X141224000Y-61760000D01*
X146900000Y-94800000D02*
X146900000Y-91971573D01*
X141224000Y-86295573D02*
X141224000Y-78524000D01*
X191224000Y-78524000D02*
X191224000Y-75984000D01*
X132202480Y-63700000D02*
X139284000Y-63700000D01*
X132202480Y-79500000D02*
X137708000Y-79500000D01*
X141224000Y-75984000D02*
X141224000Y-61760000D01*
X191224000Y-86295573D02*
X191224000Y-78524000D01*
X137708000Y-79500000D02*
X141224000Y-75984000D01*
X187708000Y-79500000D02*
X191224000Y-75984000D01*
X141224000Y-58176000D02*
X147500000Y-51900000D01*
X146900000Y-91971573D02*
X141224000Y-86295573D01*
X182202480Y-63700000D02*
X189284000Y-63700000D01*
X191224000Y-58176000D02*
X197500000Y-51900000D01*
X191224000Y-61760000D02*
X191224000Y-58176000D01*
X141224000Y-61760000D02*
X141224000Y-58176000D01*
X141224000Y-78524000D02*
X141224000Y-75984000D01*
X189284000Y-63700000D02*
X191224000Y-61760000D01*
X191224000Y-75984000D02*
X191224000Y-61760000D01*
X196900000Y-91971573D02*
X191224000Y-86295573D01*
D23*
G04 #@! TO.N,/RF_RX*
X114709750Y-106183905D02*
X115189000Y-105704655D01*
X114709750Y-107598118D02*
X114709750Y-106183905D01*
X115189000Y-105704655D02*
X119720345Y-105704655D01*
X120636000Y-104789000D02*
X120636000Y-102868000D01*
X119720345Y-105704655D02*
X120636000Y-104789000D01*
X164709750Y-106183905D02*
X165189000Y-105704655D01*
X164709750Y-107598118D02*
X164709750Y-106183905D01*
X169720345Y-105704655D02*
X170636000Y-104789000D01*
X165189000Y-105704655D02*
X169720345Y-105704655D01*
X170636000Y-104789000D02*
X170636000Y-102868000D01*
X164709750Y-57598118D02*
X164709750Y-56183905D01*
X114709750Y-56183905D02*
X115189000Y-55704655D01*
X114709750Y-57598118D02*
X114709750Y-56183905D01*
X170636000Y-54789000D02*
X170636000Y-52868000D01*
X119720345Y-55704655D02*
X120636000Y-54789000D01*
X169720345Y-55704655D02*
X170636000Y-54789000D01*
X165189000Y-55704655D02*
X169720345Y-55704655D01*
X115189000Y-55704655D02*
X119720345Y-55704655D01*
X120636000Y-54789000D02*
X120636000Y-52868000D01*
X164709750Y-56183905D02*
X165189000Y-55704655D01*
G04 #@! TO.N,+3V3*
X103950000Y-117600000D02*
X103950000Y-119600000D01*
X103950000Y-108197868D02*
X104549750Y-107598118D01*
X103950000Y-110800000D02*
X103950000Y-108197868D01*
X110300000Y-101283498D02*
X110744000Y-100839498D01*
X110300000Y-102627000D02*
X110300000Y-101283498D01*
X122175498Y-100839498D02*
X122176996Y-100838000D01*
X122176996Y-100838000D02*
X122682000Y-100838000D01*
X123176000Y-101332000D02*
X123176000Y-102868000D01*
X122682000Y-100838000D02*
X123176000Y-101332000D01*
X110744000Y-100839498D02*
X110871000Y-100839498D01*
X110871000Y-100839498D02*
X122175498Y-100839498D01*
X103950000Y-116515000D02*
X103950000Y-117600000D01*
X103950000Y-110800000D02*
X103950000Y-111700000D01*
X102747000Y-112903000D02*
X102747000Y-115312000D01*
X102747000Y-115312000D02*
X103950000Y-116515000D01*
X103950000Y-111700000D02*
X102747000Y-112903000D01*
X103549751Y-106598119D02*
X103549751Y-105962751D01*
X104549750Y-107598118D02*
X103549751Y-106598119D01*
X103549751Y-105962751D02*
X101092000Y-103505000D01*
X101092000Y-103505000D02*
X101092000Y-101473000D01*
X101725502Y-100839498D02*
X103505000Y-100839498D01*
X103505000Y-100839498D02*
X103376502Y-100839498D01*
X101092000Y-101473000D02*
X101725502Y-100839498D01*
X110871000Y-100839498D02*
X103505000Y-100839498D01*
X103950000Y-119600000D02*
X106265000Y-119600000D01*
X107089750Y-120424750D02*
X107089750Y-122598118D01*
X106265000Y-119600000D02*
X107089750Y-120424750D01*
X123176000Y-104211502D02*
X124501498Y-105537000D01*
X123176000Y-102868000D02*
X123176000Y-104211502D01*
X124501498Y-105537000D02*
X125984000Y-105537000D01*
X125984000Y-105537000D02*
X126873000Y-106426000D01*
X126873000Y-106426000D02*
X126873000Y-109093000D01*
X126873000Y-109093000D02*
X125476000Y-110490000D01*
X125476000Y-110490000D02*
X120777000Y-110490000D01*
X120777000Y-110490000D02*
X116967000Y-114300000D01*
X116967000Y-114300000D02*
X115824000Y-114300000D01*
X115189000Y-114935000D02*
X115189000Y-116144000D01*
X115824000Y-114300000D02*
X115189000Y-114935000D01*
X107089750Y-122598118D02*
X107089750Y-128114250D01*
X107089750Y-128114250D02*
X105283000Y-129921000D01*
X107400000Y-146200000D02*
X108500000Y-146200000D01*
X105283000Y-144083000D02*
X107400000Y-146200000D01*
X105283000Y-129921000D02*
X105283000Y-144083000D01*
X103600000Y-147000000D02*
X104301000Y-147701000D01*
X102500000Y-147000000D02*
X103600000Y-147000000D01*
X104301000Y-147701000D02*
X107950000Y-147701000D01*
X108500000Y-147151000D02*
X108500000Y-146200000D01*
X107950000Y-147701000D02*
X108500000Y-147151000D01*
X153950000Y-110800000D02*
X153950000Y-111700000D01*
X157089750Y-128114250D02*
X155283000Y-129921000D01*
X157400000Y-146200000D02*
X158500000Y-146200000D01*
X152500000Y-147000000D02*
X153600000Y-147000000D01*
X154301000Y-147701000D02*
X157950000Y-147701000D01*
X152747000Y-112903000D02*
X152747000Y-115312000D01*
X152747000Y-115312000D02*
X153950000Y-116515000D01*
X173176000Y-104211502D02*
X174501498Y-105537000D01*
X173176000Y-102868000D02*
X173176000Y-104211502D01*
X176873000Y-109093000D02*
X175476000Y-110490000D01*
X165824000Y-114300000D02*
X165189000Y-114935000D01*
X157089750Y-122598118D02*
X157089750Y-128114250D01*
X153600000Y-147000000D02*
X154301000Y-147701000D01*
X154549750Y-107598118D02*
X153549751Y-106598119D01*
X153549751Y-105962751D02*
X151092000Y-103505000D01*
X172682000Y-100838000D02*
X173176000Y-101332000D01*
X160744000Y-100839498D02*
X160871000Y-100839498D01*
X158500000Y-147151000D02*
X158500000Y-146200000D01*
X157950000Y-147701000D02*
X158500000Y-147151000D01*
X153950000Y-108197868D02*
X154549750Y-107598118D01*
X153950000Y-110800000D02*
X153950000Y-108197868D01*
X151092000Y-103505000D02*
X151092000Y-101473000D01*
X151725502Y-100839498D02*
X153505000Y-100839498D01*
X153950000Y-111700000D02*
X152747000Y-112903000D01*
X153549751Y-106598119D02*
X153549751Y-105962751D01*
X153950000Y-117600000D02*
X153950000Y-119600000D01*
X175984000Y-105537000D02*
X176873000Y-106426000D01*
X176873000Y-106426000D02*
X176873000Y-109093000D01*
X175476000Y-110490000D02*
X170777000Y-110490000D01*
X170777000Y-110490000D02*
X166967000Y-114300000D01*
X174501498Y-105537000D02*
X175984000Y-105537000D01*
X160871000Y-100839498D02*
X153505000Y-100839498D01*
X153950000Y-119600000D02*
X156265000Y-119600000D01*
X160871000Y-100839498D02*
X172175498Y-100839498D01*
X153950000Y-116515000D02*
X153950000Y-117600000D01*
X160300000Y-101283498D02*
X160744000Y-100839498D01*
X153505000Y-100839498D02*
X153376502Y-100839498D01*
X151092000Y-101473000D02*
X151725502Y-100839498D01*
X172176996Y-100838000D02*
X172682000Y-100838000D01*
X173176000Y-101332000D02*
X173176000Y-102868000D01*
X155283000Y-144083000D02*
X157400000Y-146200000D01*
X155283000Y-129921000D02*
X155283000Y-144083000D01*
X160300000Y-102627000D02*
X160300000Y-101283498D01*
X172175498Y-100839498D02*
X172176996Y-100838000D01*
X157089750Y-120424750D02*
X157089750Y-122598118D01*
X156265000Y-119600000D02*
X157089750Y-120424750D01*
X166967000Y-114300000D02*
X165824000Y-114300000D01*
X165189000Y-114935000D02*
X165189000Y-116144000D01*
X103950000Y-60800000D02*
X103950000Y-61700000D01*
X172176996Y-50838000D02*
X172682000Y-50838000D01*
X107089750Y-78114250D02*
X105283000Y-79921000D01*
X107400000Y-96200000D02*
X108500000Y-96200000D01*
X173176000Y-54211502D02*
X174501498Y-55537000D01*
X160871000Y-50839498D02*
X172175498Y-50839498D01*
X157089750Y-72598118D02*
X157089750Y-78114250D01*
X158500000Y-97151000D02*
X158500000Y-96200000D01*
X102500000Y-97000000D02*
X103600000Y-97000000D01*
X104301000Y-97701000D02*
X107950000Y-97701000D01*
X173176000Y-52868000D02*
X173176000Y-54211502D01*
X102747000Y-62903000D02*
X102747000Y-65312000D01*
X102747000Y-65312000D02*
X103950000Y-66515000D01*
X153549751Y-56598119D02*
X153549751Y-55962751D01*
X123176000Y-54211502D02*
X124501498Y-55537000D01*
X123176000Y-52868000D02*
X123176000Y-54211502D01*
X126873000Y-59093000D02*
X125476000Y-60490000D01*
X153950000Y-69600000D02*
X156265000Y-69600000D01*
X151092000Y-51473000D02*
X151725502Y-50839498D01*
X115824000Y-64300000D02*
X115189000Y-64935000D01*
X107089750Y-72598118D02*
X107089750Y-78114250D01*
X103600000Y-97000000D02*
X104301000Y-97701000D01*
X153950000Y-67600000D02*
X153950000Y-69600000D01*
X104549750Y-57598118D02*
X103549751Y-56598119D01*
X103549751Y-55962751D02*
X101092000Y-53505000D01*
X122682000Y-50838000D02*
X123176000Y-51332000D01*
X110744000Y-50839498D02*
X110871000Y-50839498D01*
X108500000Y-97151000D02*
X108500000Y-96200000D01*
X107950000Y-97701000D02*
X108500000Y-97151000D01*
X165824000Y-64300000D02*
X165189000Y-64935000D01*
X103950000Y-58197868D02*
X104549750Y-57598118D01*
X103950000Y-60800000D02*
X103950000Y-58197868D01*
X153950000Y-66515000D02*
X153950000Y-67600000D01*
X154549750Y-57598118D02*
X153549751Y-56598119D01*
X155283000Y-79921000D02*
X155283000Y-94083000D01*
X176873000Y-59093000D02*
X175476000Y-60490000D01*
X101092000Y-53505000D02*
X101092000Y-51473000D01*
X101725502Y-50839498D02*
X103505000Y-50839498D01*
X153600000Y-97000000D02*
X154301000Y-97701000D01*
X103950000Y-61700000D02*
X102747000Y-62903000D01*
X103549751Y-56598119D02*
X103549751Y-55962751D01*
X160300000Y-52627000D02*
X160300000Y-51283498D01*
X160871000Y-50839498D02*
X153505000Y-50839498D01*
X175476000Y-60490000D02*
X170777000Y-60490000D01*
X152500000Y-97000000D02*
X153600000Y-97000000D01*
X173176000Y-51332000D02*
X173176000Y-52868000D01*
X103950000Y-67600000D02*
X103950000Y-69600000D01*
X160300000Y-51283498D02*
X160744000Y-50839498D01*
X153505000Y-50839498D02*
X153376502Y-50839498D01*
X160744000Y-50839498D02*
X160871000Y-50839498D01*
X174501498Y-55537000D02*
X175984000Y-55537000D01*
X170777000Y-60490000D02*
X166967000Y-64300000D01*
X172175498Y-50839498D02*
X172176996Y-50838000D01*
X151725502Y-50839498D02*
X153505000Y-50839498D01*
X175984000Y-55537000D02*
X176873000Y-56426000D01*
X125984000Y-55537000D02*
X126873000Y-56426000D01*
X126873000Y-56426000D02*
X126873000Y-59093000D01*
X153950000Y-58197868D02*
X154549750Y-57598118D01*
X125476000Y-60490000D02*
X120777000Y-60490000D01*
X120777000Y-60490000D02*
X116967000Y-64300000D01*
X124501498Y-55537000D02*
X125984000Y-55537000D01*
X156265000Y-69600000D02*
X157089750Y-70424750D01*
X110871000Y-50839498D02*
X103505000Y-50839498D01*
X103950000Y-69600000D02*
X106265000Y-69600000D01*
X152747000Y-62903000D02*
X152747000Y-65312000D01*
X153549751Y-55962751D02*
X151092000Y-53505000D01*
X154301000Y-97701000D02*
X157950000Y-97701000D01*
X110871000Y-50839498D02*
X122175498Y-50839498D01*
X103950000Y-66515000D02*
X103950000Y-67600000D01*
X110300000Y-51283498D02*
X110744000Y-50839498D01*
X103505000Y-50839498D02*
X103376502Y-50839498D01*
X101092000Y-51473000D02*
X101725502Y-50839498D01*
X172682000Y-50838000D02*
X173176000Y-51332000D01*
X157089750Y-70424750D02*
X157089750Y-72598118D01*
X155283000Y-94083000D02*
X157400000Y-96200000D01*
X153950000Y-61700000D02*
X152747000Y-62903000D01*
X157089750Y-78114250D02*
X155283000Y-79921000D01*
X152747000Y-65312000D02*
X153950000Y-66515000D01*
X122176996Y-50838000D02*
X122682000Y-50838000D01*
X123176000Y-51332000D02*
X123176000Y-52868000D01*
X105283000Y-94083000D02*
X107400000Y-96200000D01*
X105283000Y-79921000D02*
X105283000Y-94083000D01*
X157400000Y-96200000D02*
X158500000Y-96200000D01*
X110300000Y-52627000D02*
X110300000Y-51283498D01*
X122175498Y-50839498D02*
X122176996Y-50838000D01*
X107089750Y-70424750D02*
X107089750Y-72598118D01*
X106265000Y-69600000D02*
X107089750Y-70424750D01*
X116967000Y-64300000D02*
X115824000Y-64300000D01*
X115189000Y-64935000D02*
X115189000Y-66144000D01*
X153950000Y-60800000D02*
X153950000Y-58197868D01*
X153950000Y-60800000D02*
X153950000Y-61700000D01*
X157950000Y-97701000D02*
X158500000Y-97151000D01*
X176873000Y-56426000D02*
X176873000Y-59093000D01*
X151092000Y-53505000D02*
X151092000Y-51473000D01*
X166967000Y-64300000D02*
X165824000Y-64300000D01*
X165189000Y-64935000D02*
X165189000Y-66144000D01*
G04 #@! TO.N,/RF_TX*
X112169750Y-107598118D02*
X109727632Y-105156000D01*
X109727632Y-105156000D02*
X108458000Y-105156000D01*
X107760000Y-104458000D02*
X107760000Y-102627000D01*
X108458000Y-105156000D02*
X107760000Y-104458000D01*
X162169750Y-107598118D02*
X159727632Y-105156000D01*
X159727632Y-105156000D02*
X158458000Y-105156000D01*
X157760000Y-104458000D02*
X157760000Y-102627000D01*
X158458000Y-105156000D02*
X157760000Y-104458000D01*
X162169750Y-57598118D02*
X159727632Y-55156000D01*
X159727632Y-55156000D02*
X158458000Y-55156000D01*
X112169750Y-57598118D02*
X109727632Y-55156000D01*
X109727632Y-55156000D02*
X108458000Y-55156000D01*
X107760000Y-54458000D02*
X107760000Y-52627000D01*
X108458000Y-55156000D02*
X107760000Y-54458000D01*
X158458000Y-55156000D02*
X157760000Y-54458000D01*
X157760000Y-54458000D02*
X157760000Y-52627000D01*
G04 #@! TO.N,/Ext_SW*
X115189000Y-118644000D02*
X116433000Y-119888000D01*
X115189000Y-118044000D02*
X115189000Y-118644000D01*
X116433000Y-119888000D02*
X119253000Y-119888000D01*
X119789750Y-120424750D02*
X119789750Y-122598118D01*
X119253000Y-119888000D02*
X119789750Y-120424750D01*
X116900000Y-141538000D02*
X116900000Y-144800000D01*
X119088081Y-125259919D02*
X116840000Y-127508000D01*
X119088081Y-124714000D02*
X119088081Y-125259919D01*
X119789750Y-124012331D02*
X119088081Y-124714000D01*
X109728000Y-127508000D02*
X106553000Y-130683000D01*
X116840000Y-127508000D02*
X109728000Y-127508000D01*
X106553000Y-130683000D02*
X106553000Y-138684000D01*
X106553000Y-138684000D02*
X108712000Y-140843000D01*
X116205000Y-140843000D02*
X116900000Y-141538000D01*
X119789750Y-122598118D02*
X119789750Y-124012331D01*
X108712000Y-140843000D02*
X116205000Y-140843000D01*
X169253000Y-119888000D02*
X169789750Y-120424750D01*
X166900000Y-141538000D02*
X166900000Y-144800000D01*
X169088081Y-125259919D02*
X166840000Y-127508000D01*
X158712000Y-140843000D02*
X166205000Y-140843000D01*
X165189000Y-118644000D02*
X166433000Y-119888000D01*
X165189000Y-118044000D02*
X165189000Y-118644000D01*
X166433000Y-119888000D02*
X169253000Y-119888000D01*
X169789750Y-120424750D02*
X169789750Y-122598118D01*
X166205000Y-140843000D02*
X166900000Y-141538000D01*
X169789750Y-122598118D02*
X169789750Y-124012331D01*
X169789750Y-124012331D02*
X169088081Y-124714000D01*
X156553000Y-130683000D02*
X156553000Y-138684000D01*
X156553000Y-138684000D02*
X158712000Y-140843000D01*
X169088081Y-124714000D02*
X169088081Y-125259919D01*
X159728000Y-127508000D02*
X156553000Y-130683000D01*
X166840000Y-127508000D02*
X159728000Y-127508000D01*
X119253000Y-69888000D02*
X119789750Y-70424750D01*
X116900000Y-91538000D02*
X116900000Y-94800000D01*
X119088081Y-75259919D02*
X116840000Y-77508000D01*
X156553000Y-80683000D02*
X156553000Y-88684000D01*
X169088081Y-74714000D02*
X169088081Y-75259919D01*
X108712000Y-90843000D02*
X116205000Y-90843000D01*
X115189000Y-68644000D02*
X116433000Y-69888000D01*
X115189000Y-68044000D02*
X115189000Y-68644000D01*
X116433000Y-69888000D02*
X119253000Y-69888000D01*
X119789750Y-70424750D02*
X119789750Y-72598118D01*
X158712000Y-90843000D02*
X166205000Y-90843000D01*
X169253000Y-69888000D02*
X169789750Y-70424750D01*
X166433000Y-69888000D02*
X169253000Y-69888000D01*
X166900000Y-91538000D02*
X166900000Y-94800000D01*
X169088081Y-75259919D02*
X166840000Y-77508000D01*
X159728000Y-77508000D02*
X156553000Y-80683000D01*
X165189000Y-68644000D02*
X166433000Y-69888000D01*
X116205000Y-90843000D02*
X116900000Y-91538000D01*
X119789750Y-72598118D02*
X119789750Y-74012331D01*
X119789750Y-74012331D02*
X119088081Y-74714000D01*
X106553000Y-80683000D02*
X106553000Y-88684000D01*
X169789750Y-70424750D02*
X169789750Y-72598118D01*
X106553000Y-88684000D02*
X108712000Y-90843000D01*
X119088081Y-74714000D02*
X119088081Y-75259919D01*
X109728000Y-77508000D02*
X106553000Y-80683000D01*
X165189000Y-68044000D02*
X165189000Y-68644000D01*
X116840000Y-77508000D02*
X109728000Y-77508000D01*
X169789750Y-72598118D02*
X169789750Y-74012331D01*
X166840000Y-77508000D02*
X159728000Y-77508000D01*
X169789750Y-74012331D02*
X169088081Y-74714000D01*
X156553000Y-88684000D02*
X158712000Y-90843000D01*
X166205000Y-90843000D02*
X166900000Y-91538000D01*
G04 #@! TO.N,/SCL*
X102050000Y-119600000D02*
X102050000Y-119900000D01*
X103181000Y-121031000D02*
X104396845Y-121031000D01*
X104549750Y-121183905D02*
X104549750Y-122598118D01*
X102050000Y-119900000D02*
X103181000Y-121031000D01*
X104396845Y-121031000D02*
X104549750Y-121183905D01*
X104142000Y-143000000D02*
X102500000Y-143000000D01*
X104549750Y-142592250D02*
X104142000Y-143000000D01*
X104549750Y-122598118D02*
X104549750Y-142592250D01*
X152050000Y-119900000D02*
X153181000Y-121031000D01*
X154396845Y-121031000D02*
X154549750Y-121183905D01*
X154549750Y-142592250D02*
X154142000Y-143000000D01*
X154549750Y-122598118D02*
X154549750Y-142592250D01*
X154142000Y-143000000D02*
X152500000Y-143000000D01*
X152050000Y-119600000D02*
X152050000Y-119900000D01*
X153181000Y-121031000D02*
X154396845Y-121031000D01*
X154549750Y-121183905D02*
X154549750Y-122598118D01*
X154396845Y-71031000D02*
X154549750Y-71183905D01*
X102050000Y-69900000D02*
X103181000Y-71031000D01*
X104396845Y-71031000D02*
X104549750Y-71183905D01*
X154142000Y-93000000D02*
X152500000Y-93000000D01*
X104549750Y-92592250D02*
X104142000Y-93000000D01*
X104549750Y-72598118D02*
X104549750Y-92592250D01*
X104142000Y-93000000D02*
X102500000Y-93000000D01*
X102050000Y-69600000D02*
X102050000Y-69900000D01*
X152050000Y-69600000D02*
X152050000Y-69900000D01*
X154549750Y-72598118D02*
X154549750Y-92592250D01*
X153181000Y-71031000D02*
X154396845Y-71031000D01*
X154549750Y-71183905D02*
X154549750Y-72598118D01*
X154549750Y-92592250D02*
X154142000Y-93000000D01*
X103181000Y-71031000D02*
X104396845Y-71031000D01*
X104549750Y-71183905D02*
X104549750Y-72598118D01*
X152050000Y-69900000D02*
X153181000Y-71031000D01*
G04 #@! TO.N,/SDA*
X101450000Y-117600000D02*
X101092000Y-117958000D01*
X102050000Y-117600000D02*
X101450000Y-117600000D01*
X101092000Y-117958000D02*
X101092000Y-120266155D01*
X102009750Y-121183905D02*
X102009750Y-122598118D01*
X101092000Y-120266155D02*
X102009750Y-121183905D01*
X102009750Y-124012331D02*
X100965000Y-125057081D01*
X102009750Y-122598118D02*
X102009750Y-124012331D01*
X100965000Y-144565000D02*
X100965000Y-144526000D01*
X101400000Y-145000000D02*
X100965000Y-144565000D01*
X102500000Y-145000000D02*
X101400000Y-145000000D01*
X100965000Y-125057081D02*
X100965000Y-144526000D01*
X151092000Y-120266155D02*
X152009750Y-121183905D01*
X152009750Y-124012331D02*
X150965000Y-125057081D01*
X152009750Y-122598118D02*
X152009750Y-124012331D01*
X150965000Y-144565000D02*
X150965000Y-144526000D01*
X151450000Y-117600000D02*
X151092000Y-117958000D01*
X152050000Y-117600000D02*
X151450000Y-117600000D01*
X151400000Y-145000000D02*
X150965000Y-144565000D01*
X152500000Y-145000000D02*
X151400000Y-145000000D01*
X150965000Y-125057081D02*
X150965000Y-144526000D01*
X151092000Y-117958000D02*
X151092000Y-120266155D01*
X152009750Y-121183905D02*
X152009750Y-122598118D01*
X151450000Y-67600000D02*
X151092000Y-67958000D01*
X101092000Y-70266155D02*
X102009750Y-71183905D01*
X102009750Y-74012331D02*
X100965000Y-75057081D01*
X102009750Y-72598118D02*
X102009750Y-74012331D01*
X100965000Y-94565000D02*
X100965000Y-94526000D01*
X151092000Y-67958000D02*
X151092000Y-70266155D01*
X150965000Y-94565000D02*
X150965000Y-94526000D01*
X152009750Y-74012331D02*
X150965000Y-75057081D01*
X152500000Y-95000000D02*
X151400000Y-95000000D01*
X152050000Y-67600000D02*
X151450000Y-67600000D01*
X150965000Y-75057081D02*
X150965000Y-94526000D01*
X152009750Y-72598118D02*
X152009750Y-74012331D01*
X101450000Y-67600000D02*
X101092000Y-67958000D01*
X102050000Y-67600000D02*
X101450000Y-67600000D01*
X151092000Y-70266155D02*
X152009750Y-71183905D01*
X101400000Y-95000000D02*
X100965000Y-94565000D01*
X102500000Y-95000000D02*
X101400000Y-95000000D01*
X100965000Y-75057081D02*
X100965000Y-94526000D01*
X101092000Y-67958000D02*
X101092000Y-70266155D01*
X102009750Y-71183905D02*
X102009750Y-72598118D01*
X151400000Y-95000000D02*
X150965000Y-94565000D01*
X152009750Y-71183905D02*
X152009750Y-72598118D01*
G04 #@! TO.N,/A*
X109600000Y-135800000D02*
X110145000Y-135255000D01*
X108500000Y-135800000D02*
X109600000Y-135800000D01*
X110145000Y-135255000D02*
X110145000Y-134330000D01*
X110145000Y-134330000D02*
X111506000Y-132969000D01*
X111506000Y-132969000D02*
X111506000Y-129667000D01*
X111506000Y-129667000D02*
X112522000Y-128651000D01*
X112522000Y-128651000D02*
X119253000Y-128651000D01*
X119253000Y-128651000D02*
X120015000Y-127889000D01*
X109335000Y-113425000D02*
X109347000Y-113437000D01*
X109335000Y-112400000D02*
X109335000Y-113425000D01*
X109347000Y-113437000D02*
X109347000Y-114427000D01*
X118237000Y-114808000D02*
X123063000Y-114808000D01*
X123063000Y-114808000D02*
X128524000Y-120269000D01*
X128524000Y-120269000D02*
X128524000Y-122936000D01*
X178524000Y-120269000D02*
X178524000Y-122936000D01*
X168237000Y-114808000D02*
X173063000Y-114808000D01*
X173063000Y-114808000D02*
X178524000Y-120269000D01*
X160145000Y-134330000D02*
X161506000Y-132969000D01*
X159347000Y-113437000D02*
X159347000Y-114427000D01*
X159335000Y-113425000D02*
X159347000Y-113437000D01*
X161506000Y-132969000D02*
X161506000Y-129667000D01*
X159335000Y-112400000D02*
X159335000Y-113425000D01*
X159600000Y-135800000D02*
X160145000Y-135255000D01*
X160145000Y-135255000D02*
X160145000Y-134330000D01*
X169253000Y-128651000D02*
X170015000Y-127889000D01*
X158500000Y-135800000D02*
X159600000Y-135800000D01*
X161506000Y-129667000D02*
X162522000Y-128651000D01*
X162522000Y-128651000D02*
X169253000Y-128651000D01*
X128524000Y-70269000D02*
X128524000Y-72936000D01*
X160145000Y-84330000D02*
X161506000Y-82969000D01*
X160145000Y-85255000D02*
X160145000Y-84330000D01*
X169253000Y-78651000D02*
X170015000Y-77889000D01*
X118237000Y-64808000D02*
X123063000Y-64808000D01*
X123063000Y-64808000D02*
X128524000Y-70269000D01*
X178524000Y-70269000D02*
X178524000Y-72936000D01*
X110145000Y-84330000D02*
X111506000Y-82969000D01*
X159335000Y-63425000D02*
X159347000Y-63437000D01*
X161506000Y-79667000D02*
X162522000Y-78651000D01*
X168237000Y-64808000D02*
X173063000Y-64808000D01*
X173063000Y-64808000D02*
X178524000Y-70269000D01*
X161506000Y-82969000D02*
X161506000Y-79667000D01*
X159347000Y-63437000D02*
X159347000Y-64427000D01*
X109347000Y-63437000D02*
X109347000Y-64427000D01*
X109335000Y-63425000D02*
X109347000Y-63437000D01*
X111506000Y-82969000D02*
X111506000Y-79667000D01*
X109335000Y-62400000D02*
X109335000Y-63425000D01*
X159600000Y-85800000D02*
X160145000Y-85255000D01*
X109600000Y-85800000D02*
X110145000Y-85255000D01*
X110145000Y-85255000D02*
X110145000Y-84330000D01*
X119253000Y-78651000D02*
X120015000Y-77889000D01*
X108500000Y-85800000D02*
X109600000Y-85800000D01*
X162522000Y-78651000D02*
X169253000Y-78651000D01*
X159335000Y-62400000D02*
X159335000Y-63425000D01*
X158500000Y-85800000D02*
X159600000Y-85800000D01*
X111506000Y-79667000D02*
X112522000Y-78651000D01*
X112522000Y-78651000D02*
X119253000Y-78651000D01*
G04 #@! TO.N,/B*
X109600000Y-133800000D02*
X110744000Y-132656000D01*
X108500000Y-133800000D02*
X109600000Y-133800000D01*
X110744000Y-132656000D02*
X110744000Y-129540000D01*
X110744000Y-129540000D02*
X112268000Y-128016000D01*
X112268000Y-128016000D02*
X118110000Y-128016000D01*
X118110000Y-128016000D02*
X120015000Y-126111000D01*
X127508000Y-123063000D02*
X127508000Y-120523000D01*
X127508000Y-120523000D02*
X122682000Y-115697000D01*
X122682000Y-115697000D02*
X116967000Y-115697000D01*
X108065000Y-115431000D02*
X108077000Y-115443000D01*
X108065000Y-112400000D02*
X108065000Y-115431000D01*
X159600000Y-133800000D02*
X160744000Y-132656000D01*
X177508000Y-123063000D02*
X177508000Y-120523000D01*
X177508000Y-120523000D02*
X172682000Y-115697000D01*
X158065000Y-115431000D02*
X158077000Y-115443000D01*
X172682000Y-115697000D02*
X166967000Y-115697000D01*
X162268000Y-128016000D02*
X168110000Y-128016000D01*
X160744000Y-132656000D02*
X160744000Y-129540000D01*
X168110000Y-128016000D02*
X170015000Y-126111000D01*
X158065000Y-112400000D02*
X158065000Y-115431000D01*
X158500000Y-133800000D02*
X159600000Y-133800000D01*
X160744000Y-129540000D02*
X162268000Y-128016000D01*
X109600000Y-83800000D02*
X110744000Y-82656000D01*
X158065000Y-65431000D02*
X158077000Y-65443000D01*
X127508000Y-73063000D02*
X127508000Y-70523000D01*
X127508000Y-70523000D02*
X122682000Y-65697000D01*
X172682000Y-65697000D02*
X166967000Y-65697000D01*
X158500000Y-83800000D02*
X159600000Y-83800000D01*
X108065000Y-65431000D02*
X108077000Y-65443000D01*
X177508000Y-70523000D02*
X172682000Y-65697000D01*
X159600000Y-83800000D02*
X160744000Y-82656000D01*
X122682000Y-65697000D02*
X116967000Y-65697000D01*
X160744000Y-82656000D02*
X160744000Y-79540000D01*
X112268000Y-78016000D02*
X118110000Y-78016000D01*
X160744000Y-79540000D02*
X162268000Y-78016000D01*
X158065000Y-62400000D02*
X158065000Y-65431000D01*
X168110000Y-78016000D02*
X170015000Y-76111000D01*
X110744000Y-82656000D02*
X110744000Y-79540000D01*
X118110000Y-78016000D02*
X120015000Y-76111000D01*
X162268000Y-78016000D02*
X168110000Y-78016000D01*
X108065000Y-62400000D02*
X108065000Y-65431000D01*
X108500000Y-83800000D02*
X109600000Y-83800000D01*
X110744000Y-79540000D02*
X112268000Y-78016000D01*
X177508000Y-73063000D02*
X177508000Y-70523000D01*
G04 #@! TO.N,/Pos*
X117249750Y-124012331D02*
X117094000Y-124168081D01*
X117249750Y-122598118D02*
X117249750Y-124012331D01*
X117094000Y-124168081D02*
X117094000Y-126238000D01*
X117094000Y-126238000D02*
X116459000Y-126873000D01*
X116459000Y-126873000D02*
X109347000Y-126873000D01*
X109347000Y-126873000D02*
X105918000Y-130302000D01*
X105918000Y-130302000D02*
X105918000Y-143256000D01*
X106862000Y-144200000D02*
X108500000Y-144200000D01*
X105918000Y-143256000D02*
X106862000Y-144200000D01*
X167094000Y-124168081D02*
X167094000Y-126238000D01*
X167094000Y-126238000D02*
X166459000Y-126873000D01*
X167249750Y-122598118D02*
X167249750Y-124012331D01*
X166459000Y-126873000D02*
X159347000Y-126873000D01*
X159347000Y-126873000D02*
X155918000Y-130302000D01*
X167249750Y-124012331D02*
X167094000Y-124168081D01*
X155918000Y-143256000D02*
X156862000Y-144200000D01*
X155918000Y-130302000D02*
X155918000Y-143256000D01*
X156862000Y-144200000D02*
X158500000Y-144200000D01*
X117094000Y-74168081D02*
X117094000Y-76238000D01*
X117094000Y-76238000D02*
X116459000Y-76873000D01*
X159347000Y-76873000D02*
X155918000Y-80302000D01*
X167249750Y-74012331D02*
X167094000Y-74168081D01*
X156862000Y-94200000D02*
X158500000Y-94200000D01*
X155918000Y-80302000D02*
X155918000Y-93256000D01*
X167094000Y-76238000D02*
X166459000Y-76873000D01*
X117249750Y-72598118D02*
X117249750Y-74012331D01*
X116459000Y-76873000D02*
X109347000Y-76873000D01*
X109347000Y-76873000D02*
X105918000Y-80302000D01*
X167094000Y-74168081D02*
X167094000Y-76238000D01*
X117249750Y-74012331D02*
X117094000Y-74168081D01*
X167249750Y-72598118D02*
X167249750Y-74012331D01*
X155918000Y-93256000D02*
X156862000Y-94200000D01*
X105918000Y-93256000D02*
X106862000Y-94200000D01*
X105918000Y-80302000D02*
X105918000Y-93256000D01*
X106862000Y-94200000D02*
X108500000Y-94200000D01*
X166459000Y-76873000D02*
X159347000Y-76873000D01*
G04 #@! TO.N,/Temp*
X102050000Y-107638368D02*
X102009750Y-107598118D01*
X102050000Y-110800000D02*
X102050000Y-107638368D01*
X102050000Y-111700000D02*
X101727000Y-112023000D01*
X102050000Y-110800000D02*
X102050000Y-111700000D01*
X101727000Y-112023000D02*
X101727000Y-112395000D01*
X151727000Y-112023000D02*
X151727000Y-112395000D01*
X152050000Y-111700000D02*
X151727000Y-112023000D01*
X152050000Y-110800000D02*
X152050000Y-111700000D01*
X152050000Y-107638368D02*
X152009750Y-107598118D01*
X152050000Y-110800000D02*
X152050000Y-107638368D01*
X151727000Y-62023000D02*
X151727000Y-62395000D01*
X101727000Y-62023000D02*
X101727000Y-62395000D01*
X102050000Y-61700000D02*
X101727000Y-62023000D01*
X102050000Y-60800000D02*
X102050000Y-61700000D01*
X152050000Y-57638368D02*
X152009750Y-57598118D01*
X152050000Y-60800000D02*
X152050000Y-57638368D01*
X152050000Y-61700000D02*
X151727000Y-62023000D01*
X152050000Y-60800000D02*
X152050000Y-61700000D01*
X102050000Y-57638368D02*
X102009750Y-57598118D01*
X102050000Y-60800000D02*
X102050000Y-57638368D01*
G04 #@! TO.N,/CH2*
X122936000Y-124460000D02*
X124460000Y-124460000D01*
X124476000Y-127450000D02*
X123576000Y-127450000D01*
X124869750Y-124050250D02*
X124869750Y-122598118D01*
X124460000Y-124460000D02*
X124869750Y-124050250D01*
X122174000Y-126048000D02*
X122174000Y-125222000D01*
X123576000Y-127450000D02*
X122174000Y-126048000D01*
X122174000Y-125222000D02*
X122936000Y-124460000D01*
X174869750Y-124050250D02*
X174869750Y-122598118D01*
X172174000Y-126048000D02*
X172174000Y-125222000D01*
X174460000Y-124460000D02*
X174869750Y-124050250D01*
X172936000Y-124460000D02*
X174460000Y-124460000D01*
X174476000Y-127450000D02*
X173576000Y-127450000D01*
X173576000Y-127450000D02*
X172174000Y-126048000D01*
X172174000Y-125222000D02*
X172936000Y-124460000D01*
X174869750Y-74050250D02*
X174869750Y-72598118D01*
X172174000Y-76048000D02*
X172174000Y-75222000D01*
X124869750Y-74050250D02*
X124869750Y-72598118D01*
X122174000Y-76048000D02*
X122174000Y-75222000D01*
X124460000Y-74460000D02*
X124869750Y-74050250D01*
X173576000Y-77450000D02*
X172174000Y-76048000D01*
X172936000Y-74460000D02*
X174460000Y-74460000D01*
X174476000Y-77450000D02*
X173576000Y-77450000D01*
X174460000Y-74460000D02*
X174869750Y-74050250D01*
X172174000Y-75222000D02*
X172936000Y-74460000D01*
X122936000Y-74460000D02*
X124460000Y-74460000D01*
X124476000Y-77450000D02*
X123576000Y-77450000D01*
X123576000Y-77450000D02*
X122174000Y-76048000D01*
X122174000Y-75222000D02*
X122936000Y-74460000D01*
G04 #@! TO.N,/CH1*
X124276000Y-132850000D02*
X122182000Y-132850000D01*
X122182000Y-132850000D02*
X121158000Y-131826000D01*
X121158000Y-123769868D02*
X122329750Y-122598118D01*
X121158000Y-131826000D02*
X121158000Y-123769868D01*
X172182000Y-132850000D02*
X171158000Y-131826000D01*
X174276000Y-132850000D02*
X172182000Y-132850000D01*
X171158000Y-123769868D02*
X172329750Y-122598118D01*
X171158000Y-131826000D02*
X171158000Y-123769868D01*
X171158000Y-73769868D02*
X172329750Y-72598118D01*
X122182000Y-82850000D02*
X121158000Y-81826000D01*
X171158000Y-81826000D02*
X171158000Y-73769868D01*
X172182000Y-82850000D02*
X171158000Y-81826000D01*
X124276000Y-82850000D02*
X122182000Y-82850000D01*
X174276000Y-82850000D02*
X172182000Y-82850000D01*
X121158000Y-73769868D02*
X122329750Y-72598118D01*
X121158000Y-81826000D02*
X121158000Y-73769868D01*
G04 #@! TO.N,/DE*
X108065000Y-117800000D02*
X109335000Y-117800000D01*
X110490000Y-120918368D02*
X112169750Y-122598118D01*
X110490000Y-120904000D02*
X110490000Y-120918368D01*
X109347000Y-118287000D02*
X109347000Y-119761000D01*
X109335000Y-117800000D02*
X109335000Y-118275000D01*
X109335000Y-118275000D02*
X109347000Y-118287000D01*
X109347000Y-119761000D02*
X110490000Y-120904000D01*
X159347000Y-119761000D02*
X160490000Y-120904000D01*
X158065000Y-117800000D02*
X159335000Y-117800000D01*
X160490000Y-120918368D02*
X162169750Y-122598118D01*
X160490000Y-120904000D02*
X160490000Y-120918368D01*
X159347000Y-118287000D02*
X159347000Y-119761000D01*
X159335000Y-117800000D02*
X159335000Y-118275000D01*
X159335000Y-118275000D02*
X159347000Y-118287000D01*
X109347000Y-69761000D02*
X110490000Y-70904000D01*
X160490000Y-70918368D02*
X162169750Y-72598118D01*
X159335000Y-67800000D02*
X159335000Y-68275000D01*
X159335000Y-68275000D02*
X159347000Y-68287000D01*
X108065000Y-67800000D02*
X109335000Y-67800000D01*
X110490000Y-70918368D02*
X112169750Y-72598118D01*
X160490000Y-70904000D02*
X160490000Y-70918368D01*
X159347000Y-69761000D02*
X160490000Y-70904000D01*
X110490000Y-70904000D02*
X110490000Y-70918368D01*
X109347000Y-68287000D02*
X109347000Y-69761000D01*
X158065000Y-67800000D02*
X159335000Y-67800000D01*
X159347000Y-68287000D02*
X159347000Y-69761000D01*
X109335000Y-67800000D02*
X109335000Y-68275000D01*
X109335000Y-68275000D02*
X109347000Y-68287000D01*
G04 #@! TO.N,/RX*
X112500000Y-116050000D02*
X112500000Y-113850000D01*
X113537868Y-113850000D02*
X114992868Y-112395000D01*
X112500000Y-113850000D02*
X113537868Y-113850000D01*
X114992868Y-112395000D02*
X116840000Y-112395000D01*
X119789750Y-109445250D02*
X119789750Y-107598118D01*
X116840000Y-112395000D02*
X119789750Y-109445250D01*
X169789750Y-109445250D02*
X169789750Y-107598118D01*
X162500000Y-113850000D02*
X163537868Y-113850000D01*
X164992868Y-112395000D02*
X166840000Y-112395000D01*
X162500000Y-116050000D02*
X162500000Y-113850000D01*
X163537868Y-113850000D02*
X164992868Y-112395000D01*
X166840000Y-112395000D02*
X169789750Y-109445250D01*
X166840000Y-62395000D02*
X169789750Y-59445250D01*
X119789750Y-59445250D02*
X119789750Y-57598118D01*
X112500000Y-63850000D02*
X113537868Y-63850000D01*
X114992868Y-62395000D02*
X116840000Y-62395000D01*
X112500000Y-66050000D02*
X112500000Y-63850000D01*
X113537868Y-63850000D02*
X114992868Y-62395000D01*
X162500000Y-63850000D02*
X163537868Y-63850000D01*
X169789750Y-59445250D02*
X169789750Y-57598118D01*
X162500000Y-66050000D02*
X162500000Y-63850000D01*
X163537868Y-63850000D02*
X164992868Y-62395000D01*
X116840000Y-62395000D02*
X119789750Y-59445250D01*
X164992868Y-62395000D02*
X166840000Y-62395000D01*
G04 #@! TO.N,/TX*
X110605000Y-118275000D02*
X110605000Y-117800000D01*
X113792000Y-118872000D02*
X113157000Y-119507000D01*
X115062000Y-113157000D02*
X113792000Y-114427000D01*
X113792000Y-114427000D02*
X113792000Y-118872000D01*
X121329751Y-108598117D02*
X121329751Y-108794249D01*
X111837000Y-119507000D02*
X110605000Y-118275000D01*
X113157000Y-119507000D02*
X111837000Y-119507000D01*
X121329751Y-108794249D02*
X116967000Y-113157000D01*
X122329750Y-107598118D02*
X121329751Y-108598117D01*
X116967000Y-113157000D02*
X115062000Y-113157000D01*
X166967000Y-113157000D02*
X165062000Y-113157000D01*
X172329750Y-107598118D02*
X171329751Y-108598117D01*
X163792000Y-118872000D02*
X163157000Y-119507000D01*
X163157000Y-119507000D02*
X161837000Y-119507000D01*
X171329751Y-108794249D02*
X166967000Y-113157000D01*
X171329751Y-108598117D02*
X171329751Y-108794249D01*
X161837000Y-119507000D02*
X160605000Y-118275000D01*
X165062000Y-113157000D02*
X163792000Y-114427000D01*
X163792000Y-114427000D02*
X163792000Y-118872000D01*
X160605000Y-118275000D02*
X160605000Y-117800000D01*
X163792000Y-64427000D02*
X163792000Y-68872000D01*
X116967000Y-63157000D02*
X115062000Y-63157000D01*
X161837000Y-69507000D02*
X160605000Y-68275000D01*
X160605000Y-68275000D02*
X160605000Y-67800000D01*
X122329750Y-57598118D02*
X121329751Y-58598117D01*
X163157000Y-69507000D02*
X161837000Y-69507000D01*
X165062000Y-63157000D02*
X163792000Y-64427000D01*
X166967000Y-63157000D02*
X165062000Y-63157000D01*
X171329751Y-58794249D02*
X166967000Y-63157000D01*
X113792000Y-68872000D02*
X113157000Y-69507000D01*
X171329751Y-58598117D02*
X171329751Y-58794249D01*
X163792000Y-68872000D02*
X163157000Y-69507000D01*
X172329750Y-57598118D02*
X171329751Y-58598117D01*
X113157000Y-69507000D02*
X111837000Y-69507000D01*
X121329751Y-58794249D02*
X116967000Y-63157000D01*
X121329751Y-58598117D02*
X121329751Y-58794249D01*
X111837000Y-69507000D02*
X110605000Y-68275000D01*
X115062000Y-63157000D02*
X113792000Y-64427000D01*
X113792000Y-64427000D02*
X113792000Y-68872000D01*
X110605000Y-68275000D02*
X110605000Y-67800000D01*
G04 #@! TO.N,Net-(Q1-Pad1)*
X124276000Y-134150000D02*
X124568000Y-133858000D01*
X124276000Y-134750000D02*
X124276000Y-134150000D01*
X126226000Y-132850000D02*
X126276000Y-132850000D01*
X125218000Y-133858000D02*
X126226000Y-132850000D01*
X124568000Y-133858000D02*
X125218000Y-133858000D01*
X174276000Y-134750000D02*
X174276000Y-134150000D01*
X176226000Y-132850000D02*
X176276000Y-132850000D01*
X175218000Y-133858000D02*
X176226000Y-132850000D01*
X174568000Y-133858000D02*
X175218000Y-133858000D01*
X174276000Y-134150000D02*
X174568000Y-133858000D01*
X124276000Y-84750000D02*
X124276000Y-84150000D01*
X126226000Y-82850000D02*
X126276000Y-82850000D01*
X125218000Y-83858000D02*
X126226000Y-82850000D01*
X124568000Y-83858000D02*
X125218000Y-83858000D01*
X124276000Y-84150000D02*
X124568000Y-83858000D01*
X175218000Y-83858000D02*
X176226000Y-82850000D01*
X174276000Y-84150000D02*
X174568000Y-83858000D01*
X174276000Y-84750000D02*
X174276000Y-84150000D01*
X176226000Y-82850000D02*
X176276000Y-82850000D01*
X174568000Y-83858000D02*
X175218000Y-83858000D01*
G04 #@! TO.N,Net-(Q2-Pad1)*
X124576000Y-125450000D02*
X124476000Y-125550000D01*
X126276000Y-125450000D02*
X124576000Y-125450000D01*
X176276000Y-125450000D02*
X174576000Y-125450000D01*
X174576000Y-125450000D02*
X174476000Y-125550000D01*
X176276000Y-75450000D02*
X174576000Y-75450000D01*
X174576000Y-75450000D02*
X174476000Y-75550000D01*
X126276000Y-75450000D02*
X124576000Y-75450000D01*
X124576000Y-75450000D02*
X124476000Y-75550000D01*
G04 #@! TO.N,Net-(R5-Pad1)*
X106795000Y-116775000D02*
X107111000Y-116459000D01*
X106795000Y-117800000D02*
X106795000Y-116775000D01*
X111600000Y-117050000D02*
X111600000Y-117350000D01*
X111009000Y-116459000D02*
X111600000Y-117050000D01*
X112200000Y-117950000D02*
X112500000Y-117950000D01*
X111600000Y-117350000D02*
X112200000Y-117950000D01*
X107111000Y-116459000D02*
X111009000Y-116459000D01*
X156795000Y-117800000D02*
X156795000Y-116775000D01*
X161600000Y-117050000D02*
X161600000Y-117350000D01*
X161009000Y-116459000D02*
X161600000Y-117050000D01*
X157111000Y-116459000D02*
X161009000Y-116459000D01*
X156795000Y-116775000D02*
X157111000Y-116459000D01*
X162200000Y-117950000D02*
X162500000Y-117950000D01*
X161600000Y-117350000D02*
X162200000Y-117950000D01*
X156795000Y-66775000D02*
X157111000Y-66459000D01*
X161600000Y-67050000D02*
X161600000Y-67350000D01*
X161009000Y-66459000D02*
X161600000Y-67050000D01*
X161600000Y-67350000D02*
X162200000Y-67950000D01*
X106795000Y-67800000D02*
X106795000Y-66775000D01*
X111600000Y-67050000D02*
X111600000Y-67350000D01*
X111009000Y-66459000D02*
X111600000Y-67050000D01*
X107111000Y-66459000D02*
X111009000Y-66459000D01*
X106795000Y-66775000D02*
X107111000Y-66459000D01*
X112200000Y-67950000D02*
X112500000Y-67950000D01*
X111600000Y-67350000D02*
X112200000Y-67950000D01*
X156795000Y-67800000D02*
X156795000Y-66775000D01*
X157111000Y-66459000D02*
X161009000Y-66459000D01*
X162200000Y-67950000D02*
X162500000Y-67950000D01*
G04 #@! TD*
M02*
